<?xml version="1.0" encoding="utf-8"?>
<svg version="1.1" id="Layer_1" xmlns="http://www.w3.org/2000/svg" xmlns:xlink="http://www.w3.org/1999/xlink" x="0px" y="0px" viewBox="0 0 73.1 75" >
	<path class="cart-main" d="M31.4,75c-4.8,0-8.7-3.9-8.7-8.7s3.9-8.7,8.7-8.7s8.7,3.9,8.7,8.7S36.2,75,31.4,75z M31.4,62.3 c-2.3,0-4.1,1.8-4.1,4.1s1.8,4.1,4.1,4.1s4.1-1.8,4.1-4.1S33.6,62.3,31.4,62.3z"/>
	<path class="cart-main" d="M56.8,75c-4.8,0-8.7-3.9-8.7-8.7s3.9-8.7,8.7-8.7c4.8,0,8.7,3.9,8.7,8.7S61.6,75,56.8,75z M56.8,62.3 c-2.3,0-4.1,1.8-4.1,4.1s1.8,4.1,4.1,4.1c2.3,0,4.1-1.8,4.1-4.1S59.1,62.3,56.8,62.3z"/>
	<path class="cart-main" d="M70.8,3.8H18.1l-0.4-2C17.4,0.8,16.5,0,15.4,0H2.3C1,0,0,1,0,2.3s1,2.3,2.3,2.3h11.3l8.9,41l-3.9,5.6 c-0.5,0.7-0.5,1.6-0.1,2.4s1.2,1.2,2,1.2H70c1.3,0,2.3-1,2.3-2.3s-1-2.3-2.3-2.3H24.9l2-2.8c0.4-0.5,0.5-1.2,0.4-1.8l-0.5-2.5 L71,39.5c1.2-0.1,2.1-1.1,2.1-2.3V6.1C73.1,4.8,72,3.8,70.8,3.8z M68.5,35.1l-42.3,3.4l-6-30.1h48.3V35.1z"/>
	<path class="barra-naranja" d="M60.3,17.8h-31c-1.3,0-2.3-1-2.3-2.3s1-2.3,2.3-2.3h31c1.3,0,2.3,1,2.3,2.3S61.6,17.8,60.3,17.8z"/>
</svg>
