<?xml version="1.0" encoding="utf-8"?>
<!-- Generator: Adobe Illustrator 25.4.1, SVG Export Plug-In . SVG Version: 6.00 Build 0)  -->
<svg version="1.1" id="Layer_1" xmlns="http://www.w3.org/2000/svg" xmlns:xlink="http://www.w3.org/1999/xlink" x="0px" y="0px"
	 viewBox="0 0 183.5 103.5" xml:space="preserve">
<g>
	<path class="barra-naranja" d="M164.9,73.5c11-4.6,16.7-25.1,16.7-25.1c-10.3,6.4-30,15.8-100.3,3.1C7.9,38.2,0,84.4,0,84.4
		s20.7-8.1,18.2-5.2c-6.6,7.8-7.9,24.3-7.9,24.3c18.9-23.1,58-9,108.5-5.1c50.5,3.9,64.7-24,64.7-24L164.9,73.5z"/>
	<path class="barra-crema" d="M156.3,76.2C166,72.1,171,54,171,54c-9.1,5.7-26.5,14-88.6,2.7c-64.9-11.7-71.8,29-71.8,29s18.3-7.2,16.1-4.6
		c-5.9,6.9-7,21.5-7,21.5c16.7-20.4,51.3-7.9,95.8-4.5c44.6,3.4,57.1-21.2,57.1-21.2L156.3,76.2z"/>
	<g>
		<path class="deli1" d="M34.3,85.2l-3-15.9l6.2-1.2l0.3,1.6l-3.9,0.7l1,5.3l3-0.6l0.3,1.6l-3,0.6l1.4,7.5L34.3,85.2z"/>
		<path class="deli1" d="M44.7,83.7c-0.8,0.1-1.5,0-2.1-0.3c-0.5-0.3-0.9-0.7-1.2-1.3c-0.3-0.6-0.5-1.3-0.6-2.2l-0.4-3.3
			c-0.1-0.9-0.1-1.6,0-2.3c0.1-0.7,0.4-1.2,0.9-1.6s1.1-0.7,1.9-0.8s1.5,0,2.1,0.3c0.5,0.3,0.9,0.7,1.2,1.3c0.3,0.6,0.5,1.3,0.6,2.2
			l0.4,3.3c0.1,0.9,0.1,1.6,0,2.3c-0.1,0.7-0.4,1.2-0.9,1.6C46.2,83.3,45.6,83.6,44.7,83.7z M44.5,82.1c0.4,0,0.7-0.2,0.8-0.5
			c0.1-0.3,0.2-0.6,0.2-1c0-0.4,0-0.8-0.1-1.2L45,75.8c-0.1-0.4-0.1-0.8-0.2-1.2s-0.2-0.7-0.4-0.9c-0.2-0.2-0.5-0.3-0.9-0.3
			c-0.4,0-0.7,0.2-0.8,0.5c-0.1,0.3-0.2,0.6-0.2,1c0,0.4,0,0.8,0.1,1.2l0.4,3.6c0.1,0.4,0.1,0.8,0.2,1.2c0.1,0.4,0.2,0.7,0.4,0.9
			C43.8,82.1,44.1,82.1,44.5,82.1z"/>
		<path class="deli1" d="M53,82.9c-0.9,0.1-1.5-0.1-2-0.4c-0.5-0.3-0.9-0.8-1.1-1.4s-0.4-1.4-0.4-2.2l-0.2-3.4c-0.1-0.9,0-1.6,0.2-2.3
			s0.5-1.2,1-1.5c0.5-0.4,1.1-0.6,2-0.6c0.9-0.1,1.5,0.1,2,0.4c0.5,0.3,0.9,0.8,1.1,1.4c0.2,0.6,0.4,1.4,0.4,2.2l0.2,3.4
			c0.1,0.9,0,1.6-0.2,2.3c-0.2,0.7-0.5,1.2-0.9,1.5C54.5,82.7,53.8,82.9,53,82.9z M52.9,81.4c0.4,0,0.7-0.2,0.8-0.4
			c0.2-0.2,0.2-0.6,0.2-1c0-0.4,0-0.8,0-1.2l-0.2-3.6c0-0.4-0.1-0.9-0.1-1.2c-0.1-0.4-0.2-0.7-0.4-0.9c-0.2-0.2-0.5-0.3-0.9-0.3
			s-0.7,0.2-0.9,0.4c-0.2,0.3-0.2,0.6-0.3,1c0,0.4,0,0.8,0,1.2l0.2,3.6c0,0.4,0.1,0.8,0.1,1.2s0.2,0.7,0.4,0.9
			C52.2,81.3,52.5,81.4,52.9,81.4z"/>
		<path class="deli1" d="M60.8,82.7c-1,0-1.7-0.3-2.2-1c-0.5-0.7-0.7-1.9-0.8-3.6l0-2.2c0-0.9,0.1-1.7,0.2-2.5
			c0.1-0.8,0.4-1.4,0.8-1.8c0.4-0.5,1-0.7,1.8-0.7c0.4,0,0.7,0.1,1.1,0.2c0.3,0.2,0.6,0.4,0.9,0.6l-0.1-5.4l2.1,0l0.2,16.2l-2.1,0
			l0-0.7c-0.3,0.3-0.5,0.5-0.8,0.7C61.5,82.6,61.2,82.7,60.8,82.7z M61.3,81c0.2,0,0.4,0,0.6-0.1c0.2-0.1,0.5-0.2,0.7-0.3l-0.1-7.6
			c-0.2-0.1-0.4-0.2-0.6-0.3c-0.2-0.1-0.5-0.1-0.7-0.1c-0.5,0-0.8,0.2-1,0.7c-0.2,0.5-0.2,1-0.2,1.7l0,3.3c0,0.5,0,1,0.1,1.4
			c0.1,0.4,0.2,0.8,0.4,1C60.6,80.9,60.9,81,61.3,81z"/>
		<path class="deli1" d="M74.5,82.9c-0.9,0-1.5-0.2-2-0.6s-0.8-0.9-1-1.5c-0.2-0.7-0.2-1.4-0.2-2.3l0.2-3.4c0-0.9,0.2-1.6,0.4-2.2
			c0.2-0.6,0.6-1.1,1.1-1.4c0.5-0.3,1.2-0.5,2-0.4c0.9,0,1.5,0.2,2,0.6s0.8,0.9,1,1.5s0.2,1.4,0.2,2.3L78,78.8
			c0,0.9-0.2,1.6-0.4,2.2c-0.2,0.6-0.6,1.1-1.1,1.4C76,82.8,75.3,83,74.5,82.9z M74.5,81.4c0.4,0,0.7-0.1,0.9-0.3
			c0.2-0.2,0.3-0.5,0.3-0.9c0.1-0.4,0.1-0.8,0.1-1.2l0.2-3.6c0-0.4,0-0.9,0-1.2c0-0.4-0.1-0.7-0.3-1c-0.2-0.3-0.4-0.4-0.9-0.4
			c-0.4,0-0.7,0.1-0.9,0.3c-0.2,0.2-0.3,0.5-0.4,0.9c-0.1,0.4-0.1,0.8-0.1,1.2l-0.2,3.6c0,0.4,0,0.8,0,1.2c0,0.4,0.1,0.7,0.3,1
			C73.8,81.2,74.1,81.3,74.5,81.4z"/>
		<path class="deli1" d="M79.7,83.1l0.8-11.5l2.1,0.1l-0.1,1.1c0.4-0.3,0.9-0.6,1.3-0.8c0.5-0.2,1-0.3,1.6-0.3c0.5,0,0.8,0.2,1,0.4
			c0.2,0.3,0.4,0.6,0.5,0.9c0.1,0.4,0.1,0.7,0.1,1.1l-0.6,9.3l-2.1-0.1l0.6-8.7c0-0.4,0-0.7-0.1-1c-0.1-0.2-0.3-0.4-0.7-0.4
			c-0.2,0-0.5,0-0.8,0.2s-0.5,0.3-0.8,0.5l-0.6,9.3L79.7,83.1z"/>
		<path class="deli1" d="M95.6,84.1c-1,0-1.7-0.4-2.1-1.2c-0.5-0.7-0.6-1.9-0.6-3.7l0.1-2.2c0-0.9,0.1-1.7,0.3-2.4s0.5-1.3,0.9-1.8
			c0.4-0.4,1-0.6,1.8-0.6c0.4,0,0.7,0.1,1,0.3c0.3,0.2,0.6,0.4,0.8,0.7l0.2-5.4l2.1,0.1l-0.6,16.2l-2.1-0.1l0-0.7
			c-0.3,0.3-0.5,0.5-0.9,0.6C96.4,84.1,96,84.2,95.6,84.1z M96.2,82.5c0.2,0,0.4,0,0.6-0.1c0.2-0.1,0.5-0.2,0.7-0.3l0.3-7.6
			c-0.2-0.1-0.4-0.3-0.6-0.4C97,74,96.8,74,96.5,74c-0.5,0-0.8,0.2-1,0.7c-0.2,0.5-0.3,1-0.3,1.7L95,79.6c0,0.5,0,1,0,1.5
			c0,0.4,0.2,0.8,0.3,1C95.6,82.3,95.9,82.5,96.2,82.5z"/>
		<path class="deli1" d="M104.9,84.4c-0.9,0-1.6-0.2-2.1-0.6c-0.5-0.4-0.8-0.9-1-1.6c-0.2-0.7-0.3-1.5-0.2-2.5l0.1-2.6
			c0-1,0.1-1.9,0.4-2.6c0.2-0.7,0.6-1.2,1.1-1.5c0.5-0.3,1.2-0.5,2.1-0.5c1,0,1.7,0.2,2.1,0.6s0.7,1,0.9,1.7
			c0.1,0.8,0.2,1.7,0.2,2.7l0,0.9l-4.6-0.1l0,2.3c0,0.5,0,0.8,0.1,1.1c0.1,0.3,0.2,0.5,0.4,0.7c0.2,0.1,0.4,0.2,0.7,0.2
			c0.3,0,0.6-0.1,0.7-0.2s0.3-0.4,0.4-0.7c0.1-0.3,0.1-0.6,0.1-1l0-0.7l2.1,0l0,0.4c0,1.2-0.3,2.1-0.8,2.7S106.1,84.5,104.9,84.4z
			 M103.8,77.3l2.5,0.1l0-1c0-0.5,0-0.9-0.1-1.2c0-0.3-0.2-0.6-0.3-0.7c-0.2-0.2-0.4-0.3-0.8-0.3c-0.3,0-0.6,0.1-0.8,0.2
			c-0.2,0.2-0.3,0.4-0.4,0.8s-0.1,0.9-0.1,1.6L103.8,77.3z"/>
		<path class="deli1" d="M110.1,84.4L110,72.8l2,0l0,1.1c0.4-0.4,0.8-0.8,1.3-1c0.5-0.2,0.9-0.3,1.4-0.3c0.4,0,0.8,0.1,1.2,0.3
			c0.3,0.2,0.6,0.6,0.7,1.1c0.4-0.5,0.9-0.9,1.3-1.1c0.5-0.2,1-0.4,1.5-0.4c0.4,0,0.7,0.1,1,0.3c0.3,0.2,0.6,0.5,0.7,0.9
			c0.2,0.4,0.3,0.9,0.3,1.5l0.1,9.1l-2,0l-0.1-8.9c0-0.6-0.1-0.9-0.3-1.1c-0.2-0.2-0.4-0.3-0.7-0.3c-0.3,0-0.6,0.1-0.9,0.3
			c-0.3,0.2-0.6,0.4-0.9,0.7c0,0.1,0,0.1,0,0.2c0,0.1,0,0.1,0,0.2l0.1,9.1l-2,0l-0.1-8.9c0-0.6-0.1-0.9-0.3-1.1s-0.4-0.3-0.7-0.3
			c-0.3,0-0.6,0.1-0.9,0.3s-0.6,0.4-0.9,0.7l0.1,9.4L110.1,84.4z"/>
		<path class="deli1" d="M125.8,84.3c-0.5,0-0.9-0.1-1.2-0.3c-0.4-0.2-0.6-0.6-0.9-1c-0.2-0.4-0.3-0.8-0.3-1.3c0-0.7,0.1-1.3,0.3-1.8
			s0.5-0.9,0.9-1.3c0.4-0.4,0.9-0.7,1.4-0.9c0.5-0.3,1.1-0.5,1.7-0.8l0-0.8c0-0.5-0.1-0.9-0.1-1.2c-0.1-0.3-0.2-0.5-0.4-0.7
			c-0.2-0.1-0.4-0.2-0.8-0.2c-0.3,0-0.5,0.1-0.7,0.2c-0.2,0.1-0.3,0.3-0.4,0.6c-0.1,0.2-0.1,0.5-0.1,0.9l0,0.6l-2.1,0
			c0-1.3,0.2-2.2,0.8-2.9s1.4-1,2.6-1c1.1,0,2,0.2,2.5,0.8c0.5,0.6,0.8,1.5,0.8,2.7l0.2,5.3c0,0.4,0,0.7,0.1,1
			c0,0.3,0.1,0.6,0.1,0.9c0,0.3,0.1,0.6,0.1,0.8l-2,0.1c0-0.2-0.1-0.5-0.2-0.8c-0.1-0.3-0.1-0.6-0.2-0.9c-0.1,0.5-0.4,0.9-0.7,1.3
			C127,84.1,126.5,84.3,125.8,84.3z M126.6,82.4c0.2,0,0.4-0.1,0.6-0.2c0.2-0.1,0.3-0.3,0.5-0.4c0.1-0.2,0.2-0.3,0.3-0.4l-0.1-3.3
			c-0.3,0.2-0.6,0.4-0.9,0.6s-0.5,0.4-0.7,0.6c-0.2,0.2-0.4,0.5-0.5,0.7c-0.1,0.3-0.2,0.6-0.2,0.9c0,0.5,0.1,0.8,0.3,1.1
			C126,82.3,126.3,82.5,126.6,82.4z"/>
		<path class="deli1" d="M132.5,83.9l-0.8-11.5l2.1-0.1l0.1,1.1c0.4-0.4,0.8-0.7,1.2-1s1-0.4,1.5-0.5c0.5,0,0.8,0.1,1.1,0.3
			c0.3,0.2,0.5,0.5,0.6,0.9c0.1,0.4,0.2,0.7,0.2,1.1l0.6,9.3l-2.1,0.1l-0.6-8.7c0-0.4-0.1-0.7-0.2-0.9c-0.1-0.2-0.4-0.3-0.8-0.3
			c-0.2,0-0.5,0.1-0.7,0.3c-0.2,0.2-0.5,0.3-0.7,0.6l0.6,9.3L132.5,83.9z"/>
		<path class="deli1" d="M144.2,83.1c-1,0.1-1.7-0.2-2.3-0.8c-0.5-0.7-0.9-1.8-1.1-3.5l-0.2-2.2c-0.1-0.9-0.1-1.7,0-2.5
			c0.1-0.8,0.3-1.4,0.6-1.9c0.4-0.5,0.9-0.8,1.7-0.9c0.4,0,0.7,0,1.1,0.2c0.3,0.1,0.6,0.3,0.9,0.6l-0.5-5.4l2.1-0.2l1.6,16.1
			l-2.1,0.2l-0.1-0.7c-0.2,0.3-0.5,0.5-0.8,0.7C145,83,144.6,83.1,144.2,83.1z M144.6,81.4c0.2,0,0.4-0.1,0.6-0.2
			c0.2-0.1,0.4-0.2,0.6-0.4l-0.8-7.5c-0.2-0.1-0.4-0.2-0.7-0.3c-0.2-0.1-0.5-0.1-0.8-0.1c-0.5,0-0.8,0.3-0.9,0.8
			c-0.1,0.5-0.2,1.1-0.1,1.7l0.3,3.2c0.1,0.5,0.1,1,0.2,1.4s0.3,0.8,0.5,1C144,81.4,144.2,81.5,144.6,81.4z"/>
	</g>
	<g>
		<g>
			<path class="deli2" d="M95.1,51.5c-0.5-0.2-1.1,0.2-1.3,0.5c-0.4,0.6-0.7,1.2-0.6,2c0.3,2.5,3.5,3,5.4,3.4c2.7,0.6,5.4,0.3,8.2,0
				c3-0.3,6-0.8,8.9-1.4c2.2-0.4,4.4-0.9,6.5-1.5c3.6-1.1,7.2-2.4,10.8-3.4c1.9-0.6,3.9-1.1,5.9-1.5c2-0.4,3.7-0.7,5.7-0.9
				c1.9-0.2,3.9-0.2,5.8,0c0.6,0.1,0.6,0,1.1,0.1c0.5,0.1,0.9,0.2,1.4,0.3c0.9,0.2,1.5,0.5,2.3,0.9c0.3,0.2,0.6,0.4,1,0.6
				c0.3,0.2-0.1-0.1,0.2,0.1c0.2,0.2,0.3,0.3,0.5,0.5c0.1,0.1,0.3,0.4,0.1,0.1c0.1,0.1,0.2,0.3,0.3,0.4c0.1,0.1,0.2,0.3,0.2,0.4
				c0,0.1,0.2,0.5,0.2,0.4c-0.1-0.2,0.1,0.3,0.1,0.4c0,0.2,0.1,0.3,0.1,0.5c0,0.2,0.1,0.3,0.1,0.5c0,0,0,0.3,0,0.1
				c0-0.2,0,0.1,0,0.2c0,0.1,0,0.2,0,0.2c0,0,0-0.2,0,0c0,0.2-0.1,0.3-0.1,0.5c-0.1,0.2,0,0-0.1,0.2c0,0.1-0.1,0.1-0.1,0.2
				c0,0-0.2,0.2-0.1,0.1c-0.3,0.4-0.7,0.7-1.1,0.8c-0.6,0.2-1.3,0.2-1.7,0.1c-1-0.2-2-0.9-2.4-1.9c-0.2-0.5,0-1.1,0.3-1.5
				c0.3-0.5-0.4-0.9-0.7-0.6c-1,0.8-1.3,2.2-1,3.4c0.4,1.5,1.5,2.7,3,3.3c3.2,1.3,6.7-1.2,7.4-4.5c0-0.2,0-0.4,0.1-0.5
				c0,0,0,0.3,0,0.1c0.1-0.3,0.1-0.6,0.1-0.9c0-0.5-0.1-1-0.1-1.4c-0.2-0.8-0.5-1.6-1-2.3c-1.2-1.6-2.8-2.7-4.6-3.4
				c-3.7-1.5-8-1.4-12-1c-4.2,0.4-8.4,1.4-12.4,2.6c-3.5,1.1-7,2.4-10.5,3.4c-2.3,0.7-4.7,1.2-7,1.6c-1.5,0.3-3,0.5-4.5,0.8
				c-0.7,0.1-1.5,0.2-2.2,0.3c0,0-0.3,0-0.1,0c0.2,0-0.1,0-0.2,0c-0.2,0-0.3,0-0.5,0.1c-0.4,0-0.8,0.1-1.2,0.1
				c-0.7,0.1-1.4,0.1-2.1,0.2c-0.3,0-0.7,0-1,0.1c0,0-0.8,0.1-0.4,0.1c0.2,0,0,0-0.1,0c-0.2,0-0.4,0-0.6,0.1
				c-0.7,0.1-1.4,0.2-2.1,0.3c-0.1,0-0.1,0-0.2,0c0,0,0.3,0,0.1,0c-0.1,0-0.2,0-0.4,0c-0.3,0-0.6,0.1-0.8,0c-0.6,0-1.3-0.1-1.8-0.3
				c-0.4-0.2-0.7-0.4-0.9-0.7c-0.1-0.1-0.2-0.4-0.2-0.6c0-0.2,0.1-0.5,0.2-0.7c0-0.1,0.1-0.2,0.2-0.2C95.4,52.2,95.4,51.7,95.1,51.5
				L95.1,51.5z"/>
		</g>
	</g>
	<g>
		<g>
			<path class="deli2" d="M113.3,60.1c2.4,0.6,4.9,0.9,7.4,0.7c1.2-0.1,2.5-0.2,3.7-0.5c1.2-0.3,2.4-0.6,3.6-0.9
				c4.9-1.2,9.3-3.9,14.2-5.1c1.3-0.3,2.4-0.5,3.6-0.6c0.2,0,0.3,0,0.5,0c0.1,0,0.6,0,0.3,0c0.4,0.1,0.7,0.2,1.1,0.5
				c0.5,0.4,1.3,0.2,1.3-0.5c-0.1-2.5-2.3-3.4-4.4-3.5c-2.8-0.1-5.5,1-8.1,2.1c-2.4,1-5,2.1-7.4,3.3c-1.1,0.6-2.2,1.2-3.4,1.7
				c-1.1,0.5-2.3,0.9-3.4,1.3c-2.8,1-5.8,1.4-8.7,0.8C113,59.1,112.8,59.9,113.3,60.1L113.3,60.1z"/>
		</g>
	</g>
	<g>
		<path class="deli3" d="M25.8,54.6l-0.3-0.7l0-0.6l0.1-0.6l-0.1-0.8l0.1-0.6v-1.5l-0.1-0.6l0-2.1l0.1-0.7l-0.1-0.5l0-0.7l0-0.8
			l0.1-0.7l-0.1-1l0-1l-0.1-0.6l0.1-1l0-1.1l0-1l0-1.1l0-0.6l0-0.6l0.1-0.7l-0.1-0.8l0.1-0.6l-0.1-0.7l0.1-3.3l-0.2-1.4l0.2-2
			l0.3-0.6l0.6-0.5l2.8-0.3l0.7-0.2l0.9,0.1l1.7-0.2l0.6,0l0.7,0l1.3,0.2l1.2,0.4l1.4,1.3l0.3,0.4l0.3,0.5l0.3,0.5l0.7,1.9l0.1,0.8
			l0.1,0.6l0.2,0.6l0,0.7V33l0.2,0.8l0,0.6l0.2,0.7v4.2L40,40.1v1.4l-0.1,2.1l-0.1,0.6L39.6,45l-0.1,1.2L39.2,47l-0.1,0.7l-0.7,2
			L38,50.3l-0.4,0.6l-0.5,0.6L36.6,52l-0.5,0.4l-0.6,0.5l-0.6,0.3l-1,0.5l-1,0.3l-0.6,0.1l-0.7,0l-2.7,0.4l-0.6,0l-1.6,0.3
			L25.8,54.6z M32.2,51.7l0.7-0.3l1.2-0.8l0.6-0.2l0.5-0.5l0.4-0.6l0.4-0.6l0.5-1.3l0.4-1.3l0.3-1.5v-1.5l0.1-0.6l0.2-5.1l-0.3-4
			l-0.1-0.7l0-0.7l-0.2-0.6l-0.1-0.6l-0.3-1.3l-0.6-1L35.2,28l-0.6-0.3l-0.4-0.4l-0.6-0.3l-0.6-0.2l-0.7,0l-0.6-0.2l-2,0.2L29.2,27
			l-0.7,0.5L28.2,28l0,0.6l-0.1,0.9v0.6l0.1,0.6l-0.1,0.8l0,1.4l0,0.5l0,4.6l-0.1,0.7l0,0.9l0,0.6l0,3.4l-0.1,0.7l0.1,0.7l-0.1,2.2
			l0.1,0.5v0.7l-0.1,0.7V51l0.4,0.8l0.6,0.2l1.5-0.1l1,0L32.2,51.7z"/>
		<path class="deli3" d="M55.3,51.5L54,51.6l-0.7,0l-0.7,0.2l-0.6,0l-1.4,0.2l-0.7,0l-0.6,0.2l-0.6,0l-1.4,0.3L46,52.6l-0.7-0.3
			L45,51.7l0.1-4.9l-0.1-2.1l0-0.7l0.1-0.6L45,42.7l0.1-0.6l0-0.7L45,40.6l0-0.8l0-1.2l0-0.7l0-0.8l0.1-0.8L45,35.7l0.1-1.9l0-0.9
			v-0.6l0-1.3l0-0.8l-0.1-1l0.1-1.7L44.9,27v-0.7l0-0.5l0-0.8l0-0.7l-0.1-0.5l0.3-0.8l0.6-0.4l0.7,0.1l0.6-0.2l0.7,0.1l2-0.4
			l3.4-0.3l2-0.3l0.7,0l0.6,0.3l0.4,0.4l0,0.6l-0.4,0.6L55.5,24l-1,0l-0.7,0l-0.8,0.1l-0.6,0.2l-0.7-0.1l-1.4,0.2l-1.4,0.3l-0.7,0.5
			l-0.4,1l0,2.4l0.1,1.4l-0.1,0.6l0.1,2l-0.1,0.7l0.1,0.6l0,0.7l0.3,0.8l0.7,0.2l0.6,0l0.7-0.2l1.1-0.1l1.3-0.2l1.1,0l1.2-0.1
			l0.7-0.2l0.7,0.3l0.3,0.7l-0.3,0.9l-0.6,0.5l-1.3,0.3l-0.6-0.1l-1.4,0.2l-0.6,0l-0.7,0.2l-1.3,0.2l-0.7,0l-0.6,0.5l-0.3,0.6
			l0.1,0.6l0,0.8l0.1,0.8v0.7l-0.1,0.6l0.1,0.8l-0.1,4.4l0,0.8l0.3,0.9l0.8,0.3l1.4-0.2l0.7,0l0.7-0.2l1.4-0.2l0.7,0l0.6-0.2l0.7,0
			l0.7-0.1l0.7,0.2l0.4,0.6l0,0.6l-0.3,0.7l-0.7,0.4L55.3,51.5z"/>
		<path class="deli3" d="M64.4,50.4l-0.7,0.1l-0.7,0.1l-0.7,0.1l-0.6-0.3l-0.3-0.6l-0.1-0.8l0-7.7l0-0.5l-0.1-0.7l0.1-2.7l-0.1-3.4
			l0.1-1.5l-0.1-0.8l0.1-0.7l-0.1-1l0-4.2l0.1-0.7l-0.1-2.1v-0.6l0-0.7l0.3-0.7l0.6-0.3l0.8,0l0.7,0.2l0.5,0.5l0,0.5l0,0.8l0.1,0.6
			l0,1.4L64,25.4l0.1,0.7v1l0.1,1.1l0,0.5v1.8l-0.1,1l0.1,2.7L64,34.9l0.1,3.4L64,39.6l0.1,1.4L64,42.7l0.1,1L64,46.1l0,1.1l0.4,0.6
			L65,48l1.4-0.3l0.6,0l4.7-0.5l0.7,0.2l0.4,0.6v0.6l-0.4,0.5l-0.7,0.4l-3.4,0.6l-1.3,0l-0.7,0.1l-0.7,0.3L64.4,50.4z"/>
		<path class="deli3" d="M77.7,48.9l-0.8-0.1l-0.5-0.6L76.3,47l0-0.7l0.1-0.7l0-0.6l0.1-0.8l-0.1-0.5l0-1.1l-0.1-1l0.1-0.7l-0.1-4.8
			l0.1-0.6l-0.1-1.4l0.1-0.7l0-0.7l0-3l0-1.1l0.1-0.6l0-3.3L76.2,24v-0.6l0.1-0.7l0-0.6l-0.1-0.6v-0.8l-0.1-0.5l0.3-0.7l0.7-0.5
			l0.6,0l0.8,0.2l0.5,0.5v0.6l0.1,2l0,0.7l0.1,0.7v1.5L79,26.7l0.1,4.3l-0.1,0.7l0.1,6.9L79,40l0,0.6l0.1,0.8l-0.1,1l0,0.9l0,0.7
			l0.2,2.6l0,0.7l0.1,0.5L79,48.5l-0.7,0.3L77.7,48.9z"/>
		<path class="deli3" d="M89.2,47.5L88,47.1l-0.9-0.7L86.6,46l-0.3-0.5L85.9,45l-0.3-0.6l-0.5-1.2L85,42.5l-0.2-0.7l-0.2-0.5l-0.4-2.2
			l0.1-0.7l-0.2-2l0.1-0.9L84.1,35l0-0.6L84,33.2l0.1-1.1L84,31.5l0.1-1.1l0-0.9l0.3-2.2v-0.7l0.1-0.6l0.1-0.8l0.2-0.7L85,24
			l0.1-0.7l0.3-0.8l0.1-0.5l0.3-0.8l0.8-1.2l0.4-0.5l1.1-1.1l0.6-0.4l0.6-0.3l0.7-0.4l0.7-0.1l0.6-0.2l2-0.3l1.4,0.1l1.3,0.4
			l0.7,0.1l0.6,0.4l0.4,0.7l-0.1,0.7l-0.4,0.6l-0.7,0.2l-0.6-0.1l-0.6-0.3l-0.7-0.1l-0.6-0.2l-0.6-0.1l-1,0l-1.1,0.3l-0.6,0.1L90,20
			l-0.5,0.4L89,20.9l-0.4,0.5l-0.2,0.7l-0.6,1.2l-0.1,0.6L87,27.5L86.9,34l0.1,0.7l0,0.6l0.1,0.5l0,0.8L87,37.3l0.1,0.6l0.2,2
			l0.2,1.3l0.3,0.6l0.1,0.8l0.2,0.5l0.3,0.7l0.3,0.5l0.5,0.4l0.6,0.4l0.6,0.2l0.6,0.1l1.1-0.2L93,45l1.1-0.2l0.9-0.3l1.2-0.6
			l0.6-0.5l0.8-0.1l0.6,0.4l0,0.9l-0.5,0.9l-2.8,1.5l-1.6,0.4l-1,0l-1.1,0.3L89.2,47.5z"/>
		<path class="deli3" d="M103.7,45.9l-0.8-0.1l-0.5-0.6l-0.1-1.2l0-0.7l0.1-0.7l0-0.6l0.1-0.8l-0.1-0.5l0-1.1l-0.1-1l0.1-0.7l-0.1-4.8
			l0.1-0.7l-0.1-1.4l0.1-0.7l0-0.7l0-3l0-1.1l0.1-0.6l0-3.3l-0.1-0.8v-0.6l0.1-0.7l0-0.6l-0.1-0.6v-0.8l-0.1-0.5l0.3-0.7l0.7-0.5
			l0.6,0l0.8,0.2l0.5,0.5v0.6l0.1,2l0,0.7l0.1,0.7v1.5l-0.1,1.4l0.1,4.3l-0.1,0.7l0.1,6.9l-0.2,1.4l0,0.6l0.1,0.8l-0.1,1l0,0.9
			l0,0.7l0.2,2.6l0,0.7l0.1,0.5l-0.3,0.8l-0.7,0.3L103.7,45.9z"/>
		<path class="deli3" d="M116.4,44.8l-0.7-0.1l-0.6-0.1l-0.5-0.2l-1-0.7l-0.8-0.8l-0.4-0.5L112,42l-0.5-1.2l-0.3-0.5l-0.4-1.3
			l-0.6-4.9l0.1-0.8l-0.1-0.7V32l0.1-0.6v-4.3l0.1-0.6l0-0.7l0-0.7v-0.6l0.2-0.7l0.3-2.1l0.6-2.1l0.3-0.5l0.2-0.8l0.4-0.5l0.3-0.8
			l0.5-0.6l0.6-0.4l0.5-0.4l0.6-0.5l0.6-0.4l0.6-0.3l0.6-0.2l0.6-0.2l1-0.2l1,0l0.8,0l0.6,0.1l0.6,0.1l0.6,0.2l1.1,0.5l0.4,0.3
			l0.9,0.9l0.6,1.1l0.4,1.2l0.3,0.6l0.2,0.7l0.7,4.9v0.7l-0.1,0.7L126,30l-0.1,1.3v1.4l-0.2,0.7l-0.1,2.1l-0.2,1.3l-0.3,1.5
			l-0.8,2.1l-0.7,1.1l-0.5,0.7l-0.5,0.5l-1.1,0.8l-0.5,0.3l-0.6,0.1l-0.6,0.3l-0.7,0.2l-1,0.1l-1,0.2L116.4,44.8z M119.5,41.9
			l0.6-0.2l0.4-0.5l0.5-0.4l0.7-1.1l0.4-1.3l0.3-0.7l0.1-0.7l0.1-0.9l0.2-1.4l0.2-2l0-0.8l0.1-0.6l0-3.7l0.1-0.6l-0.1-1.4l0-0.8
			l-0.2-2.6l-0.3-1.3l0-0.8l-0.3-0.5l-0.2-0.6l-0.2-0.7l-0.3-0.6l-0.4-0.5l-1-0.8l-0.6-0.1l-0.7-0.1l-0.9,0.1l-1,0l-0.6,0.3
			l-0.6,0.2l-0.4,0.4l-0.8,1.1l-0.6,1.1l-0.6,2.2l-0.3,2l-0.1,1.5l0,0.6L113,28l0.1,1.9l-0.1,1v0.6l0.1,0.7l0,2.8l0.1,0.5l0,1.3
			l0.5,2.2l0.4,1.2l0.3,0.6l0.9,0.9l0.6,0.2l0.5,0.3l0.6,0.1l1.9-0.2L119.5,41.9z"/>
		<path class="deli3" d="M136,42.5l-0.7,0l-1.2-0.3l-0.6-0.3l-0.4-0.4l-0.5-0.5l-0.4-0.4l-0.3-0.6l-0.3-0.6l-0.3-1.3l-0.2-0.5l0-0.8
			l-0.1-0.6l0-1.4l0-0.7l-0.1-1v-1l0-0.6l0-3.5l0.1-0.8l0-1.4l0-0.6l-0.1-2.1l0.1-2.7l-0.1-2l0.1-0.9l-0.1-1.8l0-0.7l-0.1-0.7v-0.5
			l0.3-0.8l0.6-0.4l0.7,0l0.7,0.2l0.5,0.5l0.1,0.5l0,0.6l0,0.8l0.1,1.4l0,5.5l0.1,0.6l0,4.1l-0.1,0.7l0.1,0.6V29l-0.1,1.3l0.1,0.6
			l0,0.7l-0.1,2.1l0,1.4l0.1,0.6l0,0.6l0.3,1.4l0.5,1.2l0.4,0.5l0.6,0.4l0.6,0l0.6,0.1l1,0l1-0.1l0.7-0.2l1.1-0.7l0.5-0.7l0.2-0.5
			l0.4-1.4l0.1-0.8l0.2-0.7v-0.7l0-0.7l0.1-0.6l0-4.1l0.1-0.7l0-0.7l0.1-2.8l-0.1-0.6l0-2l0-0.7l0-1.4l-0.1-1.2l0.1-0.8l-0.1-0.5
			l0.1-4.1l-0.1-0.7l0.5-0.6l0.7-0.4l0.7-0.2l0.6,0.3l0.4,0.8V13l-0.1,0.6l0,1.4l0,0.6l-0.1,4.5l0,1l0,0.6l0.1,2.2l-0.1,0.7l0.1,0.7
			l0,0.7l0,1.2l-0.1,1.3l0,0.7l0,0.7l0,0.8l0.1,0.9l-0.1,1l0,0.7l-0.1,0.7v0.7l-0.3,2l-0.6,2.1l-0.3,0.6l-0.3,0.6l-0.6,0.5l-0.5,0.5
			l-0.6,0.4l-1.2,0.6l-1.3,0.4l-2,0.3L136,42.5z"/>
		<path class="deli3" d="M154.8,40.3l-0.7,0.1l-0.8-0.1l-0.6,0l-0.7-0.1l-0.8-0.2l-1.1-0.5l-0.6-0.4l-0.3-0.6l0.2-0.9l0.7-0.5l0.6,0.1
			l0.6,0.3l1.9,0.6l0.7,0l0.6,0l1.1,0l1-0.3l1.3-0.5l1.1-0.9l0.5-0.6l0.4-0.6l0.3-0.6l0.3-0.8l0.2-0.7l0.1-0.6v-1l0-1l0-0.8
			l-0.2-0.4l-0.3-0.7l-0.3-0.5l-0.8-0.9l-1.5-1.2l-0.6-0.3l-0.6-0.4l-2.3-1.1l-1.1-0.7l-0.6-0.2l-0.4-0.6l-1-0.8l-0.9-1.4l-0.5-1.3
			l-0.2-1.3l-0.1-1l0.2-1.7l0.7-2.1l0.3-0.6l0.5-0.4l0.6-0.6l0.6-0.4l0.4-0.5l0.6-0.4l1-0.5l0.9-0.1l1-0.2l1.1-0.2l0.8,0l1.4,0.2
			l0.6,0.2l1.3,0.6l0.3,0.6l-0.2,0.9l-0.8,0.7l-0.9-0.1l-0.5-0.3l-0.7-0.3l-0.7,0.1l-0.7-0.1l-1.1,0l-1,0.3l-1.1,0.6l-0.6,0.5
			l-0.4,0.5l-0.3,0.7l-0.4,0.5l-0.1,0.8l0,2.6l0.3,0.6l0.2,0.6l0.4,0.5l0.4,0.6l1.7,1.1l2.3,1.1L160,24l1.9,1.6l0.4,0.6l0.4,0.6
			l0.3,0.5l0.5,1.3v0.6l0.2,0.7l0,1.1l-0.1,1l-0.1,0.7l-0.1,0.6l-0.1,0.7l-0.2,0.7l-0.3,0.7l-0.2,0.6l-0.4,0.7l-0.6,0.5l-0.4,0.6
			l-0.5,0.5l-1.1,0.9l-0.6,0.3l-1.4,0.5l-1.7,0.4L154.8,40.3z"/>
	</g>
	<g>
		<g>
			<path class="deli2" d="M19.1,17.3c0.9,0.3,1.9,0.5,2.8,0.6c1.1,0.1,2.4,0,3.6-0.1c2.6-0.1,5.2-0.3,7.8-0.5c6-0.4,12.1-0.7,18.1-1.2
				c12.9-1.2,25.9-2.4,38.7-3.8c9.7-1.1,19.3-2.4,29-3.7c5.1-0.7,10.1-1.2,15.2-2c2.3-0.4,4.6-0.8,6.8-1.2c1.1-0.2,2.2-0.4,3.3-0.6
				c0.2,0,0.5-0.1,0.7-0.1c0.1,0,0.2,0,0.3-0.1c-0.6,0.1,0.2,0,0.4-0.1c0.5-0.1,1.1-0.2,1.6-0.2c0.5-0.1,0.9-0.1,1.4-0.2
				c0.2,0,0.5-0.1,0.7-0.1c0.1,0,0.2,0,0.3,0c-0.5,0.1,0.1,0,0.1,0c0.5-0.1,0.9-0.1,1.4-0.2c0.2,0,0.4-0.1,0.6-0.1
				c0.2,0,0.4-0.1,0.6-0.1c-0.4,0,0,0,0.1,0c0.2,0,0.4-0.1,0.7-0.1c0.2,0,0.4-0.1,0.7-0.1c-0.1,0-0.3,0,0,0c0.4,0,0.8-0.1,1.3-0.1
				c0.5-0.1,1-0.1,1.4-0.3c0.1,0,0.2,0,0.3,0c-0.3,0.1,0.2,0,0.3-0.1c0.2,0,0.4-0.1,0.6-0.1c0.4-0.1,0.3-0.1,0.8-0.1
				c0.4,0,0.8,0,1.1-0.1c0.6,0,1.2,0,1.8,0c0.5,0,1.1,0,1.6,0.1c0.2,0,0.5,0,0.7,0.1c-0.3,0,0.2,0,0.3,0c0.1,0,0.2,0,0.3,0
				c0.2,0,0.4,0,0.5,0c0.1,0,0.1,0,0.2,0c-0.2,0,0.1,0,0.1,0c0.6,0-0.3-0.1,0,0c0.8,0.3,1.2-1,0.4-1.3c0,0-0.1,0-0.1,0
				c0.1,0.1,0.3,0.2,0.4,0.3c-0.5-0.7-1.7-0.9-2.5-1c-1.2-0.2-2.4-0.3-3.6-0.3c-0.3,0-0.7,0-1,0c-0.5,0-0.7,0-1.1,0
				c-0.2,0-0.4,0-0.6,0c-0.1,0-0.6,0-0.3,0c-0.5,0-1-0.1-1.5-0.2c-1.8-0.1-3.6,0-5.4,0.1c-4.2,0.2-8.5,0.3-12.7,0.5
				c-4.8,0.2-9.6,0.9-14.4,1.5c-9.8,1.3-19.7,2.7-29.5,3.9C88.3,6.6,83,7.2,77.7,7.7c-7,0.7-14.1,1.6-21.1,2.4
				c-6.7,0.8-13.4,1.6-20.1,2.7c-2.5,0.4-5,0.9-7.6,1.4c-1.3,0.2-2.5,0.5-3.8,0.7c-0.6,0.1-1.1,0.2-1.7,0.3
				c-0.6,0.1-1.2,0.1-1.7,0.3c-0.9,0.2-1.7,0.6-2.6,0.8C18.6,16.4,18.6,17.1,19.1,17.3L19.1,17.3z"/>
		</g>
	</g>
</g>
</svg>
