<?xml version="1.0" encoding="utf-8"?>
<!-- Generator: Adobe Illustrator 25.4.1, SVG Export Plug-In . SVG Version: 6.00 Build 0)  -->
<svg version="1.1" id="Layer_1" xmlns="http://www.w3.org/2000/svg" xmlns:xlink="http://www.w3.org/1999/xlink" x="0px" y="0px"
	 viewBox="0 0 40 40" style="enable-background:new 0 0 40 40;" xml:space="preserve">
<style type="text/css">
	.st0{fill:#231A10;stroke:#231A10;stroke-width:0.25;stroke-linecap:round;stroke-linejoin:round;stroke-miterlimit:10;}
</style>
<path class="st0" d="M11.3,30.7c-0.1,0.2-0.1,0.5-0.1,0.7c-0.2-0.1-0.3-0.2-0.5-0.3c0.1-0.3,0.2-0.6,0.3-0.9
	C11.1,30.4,11.2,30.6,11.3,30.7z M9.8,23.4c0.2,1.6,1.1,3.4,0.9,5c-0.4,2.2-1.2,4.4-2.4,6.2c-0.1,0.1,0,0.2,0,0.3
	c-1.8,3.6,8.4,5.2,10.6,3.3c0.1-0.1,0.1-0.1,0.1-0.2c0.1,0,0.3-0.1,0.2-0.3c-0.2-2.3,0-4.8,1-6.9c0.7-1.7,2.6-2.1,3.3-3.8
	c0.8-1.8,1-3.7,1.4-5.6c0.1-0.4,0.2-0.9,0.3-1.3c1.5,1.4,3.8-0.3,5-1.6c1.9-2.1,2.1-5,0.2-7.2c-1.5-1.8-4.5-2.6-6.7-1.8
	c-2.4,0.8-3.3,2.9-3.2,5.3c0,0.1,0,0.1,0.1,0.2c-0.5-0.1-1-0.1-1.5-0.2c0,0,0.1-0.1,0.1-0.1c2.4-3.7,3.6-8,5.3-12
	c0.1-0.2,0-0.3-0.1-0.4c0,0,0-0.1-0.1-0.1c-0.3-0.4-0.6-0.8-0.9-1.2c-0.2-0.2-0.5-0.1-0.5,0.1c-0.1,0-0.2,0-0.3,0.2
	c-1.1,3.5-2.8,6.8-4.3,10.1c-0.1-0.1-0.1-0.2-0.3-0.1c-2,0.2-4.4-0.6-6.2,0.6c-0.3,0.2-0.4,0.4-0.3,0.7C10.9,16,9.5,19.7,9.8,23.4z
	 M18.3,11.8c-0.4,0.9-0.7,1.8-1.1,2.6c-0.7-0.2-1.4-0.3-2.1-0.5c-0.7-0.2-1.3-0.4-1.9-0.7c-0.3-0.1-0.5-0.3-0.8-0.6
	c0.3-0.5,0.8-0.8,1.4-0.8C15.3,11.7,16.8,12,18.3,11.8C18.3,11.8,18.3,11.8,18.3,11.8z M18.8,14.5c-0.1,0.1-0.1,0.2,0,0.3
	c-0.3-0.1-0.7-0.1-1-0.2c1.7-4.4,4-8.5,5.5-13c0.2,0.3,0.5,0.7,0.7,1c0,0,0,0,0.1,0.1C22.4,6.6,21.2,10.8,18.8,14.5z M25.5,11.9
	c0-0.4-0.7-0.3-0.6,0.1c0.1,1,0.5,2,0.8,3c0,0,0,0.1,0.1,0.1c-1.5,0.2-3,0.2-4.5,0.1c0.1-0.1,0.1-0.1,0.1-0.2
	c-0.1-2,0.6-4.1,2.7-4.7c1.8-0.5,4-0.1,5.4,1.1c1.9,1.6,2.4,4.5,0.7,6.5c-0.9,1-3.3,3.5-4.6,1.8c0,0-0.1-0.1-0.1-0.1
	c0.3-1.2,0.7-2.5,0.9-3.7c0.8,0.3,1.6,0.7,2.4,1.3c0,0,0,0,0,0c-0.4,0.7-1.1,1.2-2,1c-0.4-0.1-0.5,0.5-0.1,0.6
	c1.9,0.3,3.3-1.7,3.4-3.4c0.1-2.2-1.3-3.9-3.3-4.7c-0.4-0.2-0.6,0.4-0.3,0.6c0.5,0.2,1,0.5,1.4,0.8c-0.6,0.9-1.1,1.7-1.7,2.6
	C25.9,13.8,25.6,12.9,25.5,11.9z M26.7,15.2l1.7-2.7c0.7,0.7,1.2,1.7,1.1,2.8c-0.1,0.4-0.2,0.9-0.4,1.3C28.3,16,27.5,15.6,26.7,15.2
	C26.6,15.3,26.6,15.2,26.7,15.2z M11.7,32.5C11.7,32.4,11.7,32.4,11.7,32.5c0.4,0.2,0.9,0.4,1.4,0.6c0.3,0.1,0.5-0.1,0.4-0.4
	c-0.3-0.9-0.9-1.5-1.5-2.1c0,0,0-0.1,0-0.1c0.5,0.2,1,0.4,1.5,0.5c0.2,0,0.4-0.2,0.3-0.4c-0.3-0.6-0.7-1.1-1.1-1.6
	c0.6,0.3,1.2,0.5,1.9,0.6c0.2,0,0.5-0.3,0.3-0.5c-0.5-0.5-1-1-1.5-1.5c0.7,0.4,1.4,0.7,2.2,0.8c0.3,0,0.5-0.3,0.3-0.5
	c-0.8-0.8-1.9-1.4-2.6-2.3c0.9,0.3,1.8,0.7,2.8,0.7c0.3,0,0.4-0.4,0.2-0.5c-0.4-0.3-0.8-0.6-1.3-0.9c0.3,0.1,0.6,0.1,0.9,0.2
	c0.3,0,0.5-0.3,0.3-0.5c-0.7-0.5-1.5-0.9-2.1-1.4c0.1,0.1,0.3,0.1,0.4,0.2c0.4,0.2,0.6-0.4,0.3-0.6c-0.6-0.3-1.2-0.5-1.9-0.6
	c-0.2-0.1-0.5,0.3-0.3,0.5c0.5,0.6,1.2,1,1.8,1.4c-0.3-0.1-0.6-0.2-0.9-0.3c-0.3-0.1-0.5,0.4-0.3,0.5c0.5,0.4,1.1,0.8,1.6,1.2
	c-0.7-0.2-1.4-0.5-2.1-0.6c-0.1,0-0.1,0-0.2,0C12,23,11.1,21,12.1,19.2c1-2.1,3.3-1.8,5.2-1.4c0.9,0.2,1.9,0.3,2.8,0.5
	c0.8,0.2,1.7,0.4,2.3,0.9c0.2,1.1-0.1,1.6-0.9,1.5c-0.3,0-0.5,0-0.8,0c-2.3-0.2-4.6-0.9-6.7-2c-0.4-0.2-0.6,0.4-0.3,0.6
	c1.4,0.7,2.9,1.3,4.5,1.6c1.3,0.3,3,0.7,4.3,0.3c0.2-0.1,0.4-0.2,0.6-0.3c-0.3,2.4-1.1,4.8-2.4,6.9c-0.6,1-1.3,1.9-1.9,2.9
	c-0.6,1-0.9,2-1.3,3c-1,2.5-3.9,2.2-5.2,0.5c0,0,0.1,0,0.1,0c0.3,0.1,0.5-0.2,0.4-0.4C12.5,33.3,12.1,32.9,11.7,32.5z M12.7,26
	C12.7,25.9,12.7,25.9,12.7,26c0.5,0.6,1.2,1.1,1.8,1.6c-0.6-0.2-1.2-0.6-1.8-0.9C12.8,26.4,12.8,26.2,12.7,26z M13.7,28.7
	c-0.4-0.1-0.7-0.3-1.1-0.5c0-0.1,0.1-0.3,0.1-0.4C13,28.1,13.4,28.4,13.7,28.7z M13,30.2c-0.3-0.1-0.5-0.2-0.8-0.3
	c0-0.2,0.1-0.3,0.1-0.5C12.6,29.7,12.8,29.9,13,30.2z M11.8,31.3c0.3,0.3,0.6,0.6,0.8,1c-0.3-0.1-0.6-0.3-0.9-0.5
	C11.8,31.6,11.8,31.4,11.8,31.3z M12.2,13.2c0.1,0.1,0.3,0.3,0.5,0.3c1.8,1.1,4.1,1.5,6.1,1.8c2.4,0.4,4.7,0.6,7.1,0.2c0,0,0,0,0,0
	c-0.5,2.3-1.2,4.6-1.7,7c-0.5,2.3-0.7,4.5-2.8,6c-2.6,1.9-3,6.2-2.7,9.2c0,0-0.1,0-0.1,0c-1.8,1.6-11.4,0-9.6-2.7
	c0.1-0.1,0.1-0.3,0-0.4c0.5-0.9,1-1.9,1.4-2.9c0.2,0.3,0.5,0.5,0.7,0.8c0,0.1,0,0.2,0,0.3c-0.1,0-0.2-0.1-0.3-0.1
	c-0.3-0.1-0.5,0.2-0.4,0.4c0.3,0.6,0.8,1.1,1.2,1.6l-0.5-0.1c-0.2,0-0.4,0.2-0.3,0.4c0.1,0.4,0.3,0.8,0.5,1.2
	c-0.1,0-0.2-0.1-0.2-0.1c-0.3-0.1-0.5,0.1-0.4,0.4c0.1,0.4,0.1,0.3,0.3,0.7c0.2,0.3,0.5,0.1,0.6-0.2c0.1,0,0.2,0.1,0.2,0.1
	c0.2,0.2,0.5-0.2,0.4-0.4c-0.1-0.5-0.4-1-0.5-1.4l0.9,0.2c0.1,0,0.2,0,0.3-0.1c0.8,0.6,1.9,0.8,3.1,0.5c1-0.2,1.7-0.8,2-1.7
	c0.7-1.8,1.4-3.3,2.5-4.9c1.8-2.6,3.2-5.5,3.4-8.7c0-0.1-0.1-0.3-0.2-0.3c0.3-1-1.4-2.2-2.5-2.5c-1.4-0.4-3-0.7-4.5-0.9
	c-1-0.1-2.2-0.3-3.2,0.1c-2.2,0.8-2.8,3.3-2.3,5.4c0.3,1.3,0.8,2.6,1,3.9c-0.1,0-0.2-0.1-0.3-0.1c-0.3-0.1-0.6,0.2-0.4,0.4
	c0.2,0.2,0.4,0.5,0.7,0.7c0,0.1,0,0.2,0,0.3c0,0.1,0,0.2-0.1,0.3c-0.1,0-0.2-0.1-0.3-0.1c-0.3-0.1-0.6,0.2-0.4,0.4
	c0.1,0.2,0.3,0.4,0.4,0.6c-0.1,0.3-0.2,0.5-0.2,0.8c-0.1-0.1-0.3-0.1-0.5-0.2c0-0.2,0.1-0.3,0.1-0.5c0.2-1.4-0.2-2.5-0.5-3.9
	C9.8,21.1,11.2,17.1,12.2,13.2z"/>
</svg>
