<?xml version="1.0" encoding="utf-8"?>
<!-- Generator: Adobe Illustrator 25.4.1, SVG Export Plug-In . SVG Version: 6.00 Build 0)  -->
<svg version="1.1" id="Layer_1" xmlns="http://www.w3.org/2000/svg" xmlns:xlink="http://www.w3.org/1999/xlink" x="0px" y="0px"
	 viewBox="0 0 40 40" style="enable-background:new 0 0 40 40;" xml:space="preserve">
<style type="text/css">
	.st0{fill:#231A10;stroke:#231A10;stroke-width:0.25;stroke-linecap:round;stroke-linejoin:round;stroke-miterlimit:10;}
</style>
<g>
	<path class="st0" d="M22.3,1.9c-0.9-0.1-1.4,1.1-1.6,1.9c-0.7-0.2-1.3-0.1-1.8,0.5c-0.2,0.3-0.3,0.7-0.2,1.1
		c0.1,0.9-0.1,1.6-0.5,2.5c-0.1-0.2-0.3-0.3-0.5-0.4C16.9,7,16,8,15.6,8.7c-1.6,2.8-1.9,6.1-3.2,9c-0.9,2-2,3.7-3.3,5.5
		c-0.9,1.3-1.9,2.7-2.4,4.2c-1,2.6-0.6,4.8,1.7,6.5c1.1,0.9,2.3,1.6,3.5,2.4c0.8,0.6,1.7,1.2,2.7,1.6c2.5,0.8,4.3-0.9,5.3-3.1
		c1.6-3.3,2.3-7.1,4-10.3c1-1.8,2.2-3.4,3.6-4.9c0.8-1,1.8-1.9,2.5-3.1c0.5-0.9,0.4-1.6-0.1-2.1c0.2-0.1,0.3-0.1,0.5-0.2
		c0,0,0.1,0,0.1-0.1c1.2-0.2,3.3-0.5,3.3-1.7c0-0.8-0.8-0.9-1.7-0.9c0,0,0,0,0.1-0.1c0.5-0.7,1.6-1.8,1.3-2.7c-0.3-1-2.4-0.1-2.4-1
		c-0.1-0.8-0.7-1.5-1.6-1.5c-0.6,0-2.2,0.6-2.2-0.5c0-0.3,0-0.8-0.1-1.1c-0.4-0.9-1.6-1-2.3-0.5c-0.1,0.1-0.3,0.2-0.4,0.3
		C24,3.5,23.6,2.1,22.3,1.9z M31.9,11.6c-0.4,0-0.9,0.1-1.2,0.2c0.2-0.7,0.3-1.6-0.5-2c-0.8-0.4-1.6,0-2.4,0.3c0.5-0.7,1-1.7,0-1.9
		c-0.7-0.2-1.6,0.4-2.3,1c0.1-0.3,0.1-0.5,0-0.7C25.1,8,24.5,8,24.1,8.3c-0.7,0.4-1.1,1.4-1.4,2.1c-0.5,1.2-0.1,2.9-1,3.9
		c-0.1,0.1-0.1,0.2,0,0.3c-0.5,0.1-1,0.3-1.5,0.3c-0.3-1.2-0.5-2.3-0.7-3.5c0.2-0.8,0.9-1.5,1-2.4c0.1-0.9,0-1.7,0.4-2.5
		C21.3,5.7,22,5.8,23,5.9C23.6,6,24.2,5.3,24.6,5c0.7-0.6,2-0.8,2,0.5c0,0.2,0,0.6,0.1,0.8c0.7,1.8,3.8-0.7,3.7,1.8
		c0,0.4,0.3,0.5,0.7,0.6c0.8,0,2.3,0,1.6,1.2c-0.3,0.5-0.6,0.9-0.9,1.3C31.7,11.3,31.7,11.5,31.9,11.6z M27.5,13.3
		c-1.8-0.2-3.5,0.6-5.3,1.2c0.7-1.1,0.4-2.4,0.8-3.6c0.2-0.6,0.5-1.4,1-1.9c0.2-0.3,0.5-0.4,1-0.1c-0.1,0.2-0.2,0.4-0.3,0.6
		c-0.1,0.2-0.2,0.4-0.3,0.5c-0.1,0.2,0.1,0.4,0.3,0.3C25.4,9.9,26,9.4,26.7,9c0.3-0.1,0.6-0.4,0.9-0.4c0.2,0.3,0.2,0.6,0,0.8
		c-0.2,0.3-0.5,0.6-0.6,1c-0.1,0.2,0.1,0.4,0.3,0.3c0.5-0.2,1.1-0.4,1.6-0.6c1.5-0.4,1.6,0.8,1.3,1.9c-0.1,0.2,0.1,0.3,0.3,0.3
		c0.5-0.1,1-0.2,1.5-0.3c0.3,0,0.6-0.1,0.9,0c1.1,0.3-0.1,0.9-0.3,1c-0.9,0.3-1.8,0.4-2.7,0.7c-0.1,0-0.1,0.1-0.2,0.2
		c-0.1,0-0.1,0-0.2,0.1C28.9,13.7,28.2,13.4,27.5,13.3z M8.2,25.4c0.3-0.5,0.7-1,1-1.5c0.5,0.3,0.9,0.3,1.5,0.3c0.3,0,0.3-0.5,0-0.5
		c-0.2,0-0.3,0-0.5,0c1-0.2,1.9-0.2,2.9-0.3c0.3,0,0.3-0.4,0-0.5c-0.3-0.1-0.6-0.1-0.8-0.2c1.1,0,2.1,0.1,3.1-0.4
		c0.2-0.1,0.1-0.4-0.1-0.4c-0.9-0.2-1.9-0.1-2.8-0.4c1.3-0.2,2.6-0.1,3.9-0.4c0.2-0.1,0.2-0.4,0-0.5c-1-0.2-2-0.1-3-0.4
		c1.4-0.3,2.9-0.1,4.3-0.2c0.2,0,0.3-0.4,0.1-0.5c-1-0.4-2.2-0.2-3.2-0.5c1.2-0.2,2.5,0,3.7-0.3c0.3-0.1,0.2-0.4,0-0.5
		c-1.1-0.3-2.4-0.1-3.4-0.6c1.4-0.3,2.9,0,4.3-0.4c0.2-0.1,0.2-0.4,0-0.5c-1.2-0.3-2.6,0-3.7-0.4c1-0.2,2.1-0.2,3.1-0.6
		c0.2-0.1,0.3-0.4,0-0.5c-0.8-0.1-1.7-0.1-2.5-0.3c1-0.4,2.2-0.2,3.2-0.8c0,0,0.1,0,0.1-0.1c0.2,0.9,0.4,1.7,0.6,2.6
		c0.6,3.3,0.7,7.2-1.8,9.8c-1.4,1.5-3.1,2.1-5.1,2.4c-1.2,0.2-2.4,0.4-3.5,0.9c-0.3,0.1-0.1,0.5,0.2,0.4c0,0-0.1,0-0.1,0.1
		c-0.2,0.1-0.1,0.4,0.1,0.4c0.2,0,0.5,0,0.7,0.1c-0.3,0.1-0.6,0.2-0.9,0.4c-0.2,0.1-0.1,0.4,0.1,0.4c0.4,0.2,0.9,0.2,1.3,0.3
		c-0.5,0.1-1,0.2-1.5,0.5c-0.1,0.1-0.2,0.3,0,0.4c0.7,0.5,1.5,0.6,2.4,0.6c-0.3,0-0.6,0.1-0.9,0.2c-0.2,0.1-0.2,0.3,0,0.4
		c0.5,0.3,1.1,0.4,1.7,0.4c-0.3,0.1-0.5,0.2-0.8,0.3c-0.2,0.1-0.2,0.4,0,0.5c0.7,0.3,1.5,0.5,2.2,0.6c0.3,0.1,0.4-0.4,0.1-0.5
		c-0.5-0.1-1-0.2-1.5-0.4c0.6-0.2,1.3-0.3,2-0.4c0.2-0.1,0.2-0.4,0-0.5c-0.9-0.1-1.9,0.1-2.7-0.2c0.8-0.1,1.7-0.2,2.5-0.4
		c0.2-0.1,0.2-0.4,0-0.5c-1.3-0.2-2.9,0.2-4.1-0.4c1.1-0.4,2.4-0.3,3.6-0.4c0.3,0,0.3-0.4,0-0.5c-1.1-0.3-2.2-0.2-3.3-0.4
		c0.6-0.2,1.2-0.2,1.8-0.4c0.2-0.1,0.2-0.4,0-0.5c-0.5-0.1-1.1-0.1-1.6-0.1c0.2-0.1,0.1-0.3,0-0.4c2-0.7,4.2-0.4,6.1-1.5
		c2-1.2,3.4-3.1,4-5.4c0.6-2.6,0.2-5.2-0.3-7.8c2.3-0.3,4.4-1.8,6.8-1.7c1.6,0.1,3.6,0.9,2.4,2.7c-0.8,1.2-1.9,2.3-2.8,3.4
		c-1.1,1.2-2.1,2.5-2.9,3.9c-0.7,1.4-1.3,2.8-1.8,4.2c-0.6,1.7-1.2,3.4-1.9,5.1c-0.6,1.4-1.2,3.2-2.6,4c-2.6,1.6-5.3-1.3-7.3-2.6
		c-1.5-1-3.5-2.3-3.5-4.3C6.6,28.5,7.4,26.9,8.2,25.4z M18.7,10c0.1,0.5,0.2,1,0.3,1.6c-0.1,0.4-0.1,0.9,0.1,1.4
		c0,0.1,0.1,0.1,0.2,0.1c0,0.1,0,0.1,0,0.2c0,0.2,0.1,0.5,0.2,0.7c0,0,0,0,0,0c-0.9-0.4-1.9-0.3-2.8-0.5c0.8-0.1,1.5-0.1,2.2-0.5
		c0.2-0.1,0.1-0.4,0-0.4c-0.8-0.3-1.7-0.3-2.5-0.6c0.5-0.1,1.1-0.2,1.7-0.3c0.2,0,0.2-0.4,0-0.4c-0.5-0.2-1-0.3-1.5-0.5
		c0.4-0.1,0.8-0.2,1.1-0.4c0.2-0.1,0.3-0.4,0-0.4c-0.3-0.1-0.6-0.2-0.9-0.3c0.2-0.1,0.4-0.2,0.6-0.3c0.1-0.1,0.2-0.2,0.1-0.3
		c-0.2-0.3-0.2-0.3-0.6-0.5c-0.3-0.2-0.5,0.3-0.2,0.4c0.1,0.1,0.1,0.1,0.2,0.2c-0.3,0.1-0.5,0.2-0.8,0.4c-0.1,0.1-0.2,0.3,0,0.4
		c0.2,0.1,0.5,0.2,0.7,0.3c-0.4,0.1-0.7,0.2-1.1,0.4c-0.2,0.1-0.1,0.3,0,0.4c0.4,0.2,0.7,0.3,1.1,0.4c-0.5,0.1-0.9,0.2-1.4,0.3
		c-0.2,0.1-0.2,0.3,0,0.4c0.8,0.5,1.6,0.5,2.4,0.6c-0.8,0.2-1.6,0.1-2.4,0.4c-0.2,0.1-0.2,0.4,0,0.4c1,0.5,2,0.4,3,0.6
		c-1,0.3-2.1,0.2-3.1,0.8c-0.1,0.1-0.2,0.3,0,0.4c0.5,0.2,1,0.3,1.5,0.4c-0.7,0.1-1.4,0.1-2.1,0.4c-0.2,0.1-0.2,0.3,0,0.4
		c0.4,0.3,0.8,0.4,1.3,0.5c-0.6,0-1.2,0.1-1.8,0.3c-0.2,0.1-0.2,0.3-0.1,0.4c0.7,0.5,1.4,0.6,2.2,0.7c-0.9,0-1.7,0-2.6,0.3
		c-0.2,0.1-0.2,0.3,0,0.4c0.3,0.2,0.7,0.3,1,0.4c-0.7,0-1.5,0.1-2.2,0.4c-0.2,0.1-0.2,0.3,0,0.4c0.4,0.2,0.8,0.3,1.3,0.4
		c-0.8,0-1.5,0.1-2.2,0.3c-0.2,0.1-0.2,0.3,0,0.4c0.8,0.4,1.7,0.4,2.6,0.5c-1,0.1-2-0.1-3,0.2c-0.2,0-0.2,0.4,0,0.4
		c0.2,0.1,0.4,0.2,0.5,0.2c-0.7,0.1-1.4,0.2-2.1,0.4c0.7-1,1.4-1.9,2-3c0.7-1.3,1.4-2.7,1.8-4.1c0.6-1.9,1-3.8,1.7-5.7
		C15.6,9.8,16,8.5,16.8,8C18,7.3,18.5,9.2,18.7,10z M22.6,2.5C23.4,3,23.7,4.1,23.8,5c-0.4,0.3-0.8,0.5-1.3,0.3
		c-0.4-0.1-0.8-0.2-1.1,0c-1.2,0.6-1.4,2-1.4,3.2c0,0.8-0.4,1.4-0.7,2.1c-0.1-0.8-0.3-1.7-0.7-2.4c0,0,0.1-0.1,0.1-0.1
		c0.2-0.6,0.4-1.1,0.6-1.7c0.2-0.9-0.3-3,1.6-2.1c0.1,0.1,0.3,0,0.4-0.2C21.3,3.6,21.7,1.9,22.6,2.5z"/>
	<path class="st0" d="M16.8,32c-0.6,0.3-0.9,0.9-0.6,1.5c0.3,0.6,1,0.9,1.7,0.8c0.1,0,0.1,0,0.2-0.1c0,0,0.1,0,0.1-0.1
		c0.5-0.4,0.9-1.2,0.6-1.8C18.2,31.7,17.4,31.7,16.8,32z M18.2,32.6c0.1,0.5-0.2,0.9-0.5,1.2c0,0,0,0,0,0c-0.4,0-0.9-0.1-1.1-0.5
		c-0.2-0.4,0-0.8,0.4-0.9C17.3,32.3,18.1,32.1,18.2,32.6z"/>
	<path class="st0" d="M15,24c-0.6,0.2-1,0.8-0.9,1.4c0.1,0.7,0.6,1,1.2,1c0,0,0.1,0,0.2,0c0.7-0.2,1.1-0.8,0.9-1.5
		C16.2,24.2,15.6,23.7,15,24z M15.9,25c0.1,0.4-0.1,0.8-0.5,0.9c0,0,0,0-0.1,0c-0.4,0-0.8-0.1-0.8-0.6c0-0.3,0.1-0.7,0.5-0.8
		C15.4,24.3,15.9,24.6,15.9,25z"/>
	<path class="st0" d="M11.1,26.2c-0.4-0.1-1,0.1-1.1,0.6c-0.2,0.5,0,0.9,0.4,1.1c0.1,0,0.1,0,0.2,0c0,0.1,0.1,0.2,0.3,0.1
		c0.4-0.1,0.8-0.4,0.9-0.9C11.8,26.6,11.6,26.2,11.1,26.2z M11.3,27.1c-0.1,0.2-0.3,0.4-0.5,0.4c0,0-0.1-0.1-0.1-0.1
		c-0.5-0.3-0.1-0.9,0.4-0.7C11.3,26.7,11.4,26.9,11.3,27.1z"/>
	<path class="st0" d="M24.7,17.3c-0.4,0.1-0.6,0.6-0.5,1c0.1,0.4,0.5,0.6,1,0.6c0.1,0.1,0.2,0.2,0.3,0.1c0.5-0.2,0.7-0.8,0.4-1.3
		C25.7,17.3,25.1,17.1,24.7,17.3z M25.6,18c0.1,0.2,0,0.4-0.1,0.6c0-0.1-0.1-0.1-0.2-0.1c-0.2,0-0.5-0.1-0.6-0.3
		c0-0.2,0-0.3,0.2-0.4C25.1,17.6,25.5,17.8,25.6,18z"/>
</g>
</svg>
