<?xml version="1.0" encoding="utf-8"?>
<!-- Generator: Adobe Illustrator 25.4.1, SVG Export Plug-In . SVG Version: 6.00 Build 0)  -->
<svg version="1.1" id="Layer_1" xmlns="http://www.w3.org/2000/svg" xmlns:xlink="http://www.w3.org/1999/xlink" x="0px" y="0px"
	 viewBox="0 0 40 40" xml:space="preserve">

<g>
	<path class="svgicon" d="M12.7,33.6c0.5,1.6,1,3.7,2.4,4.8c1.5,1.1,2.9,0.5,4.5,0.3c0.1,0.1,0.1,0.1,0.2,0c2.4-0.7,5.6-0.6,7.6-2.3
		c1.8-1.5,2-3.5,1.9-5.7c-0.2-2.9-0.7-5.7-1.5-8.6c-0.3-1-0.4-2.2-1-3c-0.6-0.9-1.6-1-2.6-1.4c0,0-0.1,0-0.1,0c0,0,0,0,0,0
		c-0.3-0.9-0.4-1.9-0.5-2.8c0,0,0-0.1,0.1-0.2c0.3-0.9-2-1.1-2.4-1.1c-0.1,0-0.2,0-0.2,0.1c0,0-0.1,0-0.1,0c0,0-0.1,0-0.1,0
		c0.1-1.8,0.1-3.6,0.3-5.3c0.3-2.3,0.7-4.6,1-6.9c0-0.2-0.1-0.3-0.2-0.3c0-0.1-0.1-0.3-0.3-0.2c-0.4,0-0.8,0-1.2,0
		c-0.1,0-0.2,0.1-0.3,0.2c0,0-0.1,0.1-0.1,0.2c-0.4,4.3-0.6,8.6-1.4,12.8c0,0-0.1,0-0.2,0c-0.4,0.1-0.9,0.2-1.3,0.3
		c-0.2-0.9-0.5-1.8-0.8-2.7c-0.4-1.3-0.8-2.6-1.1-3.9c-0.4-1.4-0.8-2.1-2.3-1.7c-0.1,0-0.2,0.1-0.2,0.2c-0.1,0-0.3,0.1-0.2,0.3
		c0.9,2.7,1.4,5.5,2.1,8.3c-0.8,0.1-2.4,0.8-1.9,1.8c-0.2,0-0.3,0.2-0.2,0.4c0.3,0.7,0.4,1.4,0.6,2.1c0,0,0,0.1-0.1,0.1
		c-0.4,1-1.7,1.2-2,2.3c-0.2,1-0.2,1.9,0,2.9C11.4,27.5,11.8,30.7,12.7,33.6z M15,16.5c-0.1,0-0.2,0-0.3,0c-0.2,0-2.6,0-1.1-0.8
		c0.3-0.2,0.7-0.3,1.1-0.3C14.8,15.7,14.9,16.1,15,16.5z M17,16.3c-0.5,0.1-1,0.1-1.5,0.2c-0.9-3.3-1.5-6.6-2.5-9.8
		c1.3-0.3,1.4,0.8,1.6,1.8c0.3,1,0.5,2,0.8,2.9C16.1,12.9,16.3,14.7,17,16.3z M18.3,14.6c-0.1,0.5-0.2,1-0.4,1.5c0,0,0,0,0,0.1
		c-0.1,0-0.2,0-0.4,0.1c-0.2-0.4-0.4-0.9-0.5-1.3C17.5,14.8,17.9,14.7,18.3,14.6z M20.1,13.7C20,13.8,20,14,20,14.1
		c0,0.5-0.1,0.9-0.1,1.4c0,0,0,0.1,0,0.1c-0.4,0.1-0.7,0.2-1.1,0.3c-0.1,0-0.2,0-0.3,0.1c1.2-4.7,1.3-9.6,1.8-14.5
		c0.3,0,0.6,0,0.9,0c-0.3,2.5-0.8,4.9-1,7.4C20.2,10.5,20.2,12.1,20.1,13.7z M22,15c-0.5,0.1-1,0.2-1.5,0.4c0-0.4,0.1-0.8,0.1-1.2
		c0,0,0.1,0,0.1,0c0.1,0,0.2,0,0.2-0.1c0,0,0.1,0,0.1,0c0.3,0,0.6,0,0.9,0.1C22.9,14.4,22.6,14.9,22,15z M12.6,30.8
		c-0.4-2.3-1-4.7-1.2-7c-0.1-1.5,0-2.6,1.4-3.5c0.3-0.2,0.5-0.5,0.6-0.8c0.1-0.1,0.2-0.2,0.2-0.3c0-0.3-0.1-0.6-0.2-0.9
		c2.3,0.8,5.1,0.8,7.3-0.2c0.3-0.2,0.1-0.7-0.3-0.5c-2.2,1.1-4.9,0.9-7.1,0.1c0,0-0.1,0-0.1,0c-0.1-0.2-0.1-0.5-0.2-0.7
		c0.6,0.3,1.8,0.1,2.2,0.1c1.3-0.1,2.6-0.2,3.8-0.6c1.2-0.3,2.5-0.6,3.6-1.1c0.1,0,0.2-0.1,0.3-0.1c0.1,0.9,0.2,1.7,0.5,2.5
		c0,0,0,0,0,0.1c-2.4,1.3-5.8,2.6-8.5,1.7c-0.1,0-0.2,0-0.3,0.1c0,0-0.1,0-0.1,0c-3.4,0.1-3.1,5.1-2.5,7.3c0.1,0.4,0.7,0.2,0.6-0.1
		c-0.3-1.2-0.6-2.7-0.3-4c0.3-1.1,0.9-2.6,2.3-2.6c0.1,0,0.2,0,0.2-0.1c0,0,0,0,0,0c2.9,1,6.5-0.3,9-1.7c0,0,0.1-0.1,0.1-0.1
		c0,0,0,0,0,0c0.6,0.2,1.7,0.4,2.1,0.9c0.4,0.5,0.6,1.1,0.8,1.8c0.3,1.2,0.6,2.3,0.9,3.5c0.5,2.2,0.9,4.5,1,6.8
		c0.1,2.2-0.4,4.4-2.6,5.4c-1.9,0.8-4,1-6,1.5c0,0-0.1,0-0.1,0c-1,0.1-2,0.6-3,0.6c-1.3-0.1-2.1-0.9-2.6-2
		C13.5,34.8,13,32.8,12.6,30.8z"/>
	<path class="svgicon" d="M22.6,33.9C22.6,33.9,22.6,33.9,22.6,33.9c-0.1,0.3,0.5,0.5,0.6,0.1c1.1-2.6,1.8-5.3,3-7.8
		c0.1-0.2-0.1-0.4-0.2-0.4c0-0.1-0.1-0.2-0.2-0.2c-2.6-0.8-5.9,0-6.9,2.9C18.2,30.8,20.5,33.3,22.6,33.9z M19.6,28.3
		c1.1-2.3,3.8-2.9,6-2.2c0,0,0,0,0,0c-0.1,0.2-0.1,0.3-0.2,0.5c0,0-0.1,0-0.1-0.1c-2.2-0.7-5.3,0.2-5.4,2.8c0,0.4,0.6,0.4,0.6,0
		c0.1-2.2,2.9-2.9,4.7-2.3c0,0,0,0,0.1,0c-0.9,2.1-1.5,4.2-2.4,6.3c0,0,0,0-0.1,0C20.9,32.8,18.6,30.4,19.6,28.3z"/>
	<path class="svgicon" d="M22.3,27.5c0.6,0.6,1.2,1.3,1.8,1.9c0.2,0.3-0.2,0.7-0.4,0.4c-0.6-0.6-1.2-1.3-1.8-1.9
		C21.6,27.6,22.1,27.2,22.3,27.5z"/>
	<path class="svgicon" d="M21.6,29.8c0.7,0,1.3,0,2,0.1c0.4,0,0.3,0.6,0,0.6c-0.7,0-1.3,0-2-0.1C21.2,30.4,21.3,29.8,21.6,29.8z"/>
	<path class="svgicon" d="M13.5,26.6c0,0.1,0,0.1,0.1,0.2c1.1,1.1,3.6,1.6,4.4-0.2c0.8-1.7-0.4-3.8-2.2-4.1c-0.1,0-0.1,0-0.1,0
		c-0.1-0.1-0.3-0.1-0.4,0.1c-0.7,1.2-1.7,2.3-1.8,3.8C13.4,26.5,13.5,26.6,13.5,26.6z M14,26.4C14,26.4,14,26.4,14,26.4
		c0.1-1.2,1-2.3,1.6-3.3c0,0,0.1,0,0.1,0c1.4,0.2,2.6,2.1,1.6,3.4C16.6,27.6,14.9,27.3,14,26.4z"/>
	<path class="svgicon" d="M20.5,23.4c1,0.5,1.9-0.9,1.6-1.8c-0.1-0.3-0.4-0.3-0.5-0.1c0-0.1-0.1-0.2-0.3-0.2c-0.5,0-1.2,0.2-1.4,0.8
		C19.8,22.6,20,23.2,20.5,23.4z M20.5,22.3c0.2-0.3,0.5-0.4,0.8-0.4c0.1,0,0.2,0,0.2-0.1c0,0,0,0,0,0c0.1,0.4-0.2,1.3-0.7,1.2
		C20.6,22.9,20.4,22.5,20.5,22.3z"/>
	<path class="svgicon" d="M17.1,33.8c0.5,0,0.9-0.2,1-0.7c0.1-0.5-0.2-1.1-0.6-1.4c-0.1-0.1-0.3-0.1-0.4,0c-0.1-0.1-0.2-0.1-0.3-0.1
		c-0.5,0.2-0.9,0.6-0.9,1.2C16,33.4,16.6,33.7,17.1,33.8z M16.5,32.7c0.1-0.3,0.4-0.5,0.6-0.6c0,0,0,0,0,0c0.2,0.2,0.5,0.5,0.4,0.8
		c0,0.2-0.1,0.4-0.4,0.4C17,33.2,16.5,33,16.5,32.7z"/>
	<path class="svgicon" d="M26.2,33c0.2-0.1,0.2-0.2,0.2-0.4c-0.1-0.4,0.5-0.5,0.6-0.1c0.1,0.4-0.1,0.8-0.5,1c-0.1,0.1-0.3,0-0.4-0.1
		C26,33.3,26.1,33.1,26.2,33z"/>
	<path class="svgicon" d="M16.9,37c1.3,0.6,3.1-0.2,4.5-0.4c1.7-0.2,3.4-0.6,4.7-1.6c1.8-1.4,1.4-4.3,1.2-6.3c-0.2-2.1-0.6-4.2-1.2-6.3
		c-0.1-0.4,0.5-0.5,0.6-0.1c0.7,2.6,1.2,5.2,1.3,7.8c0.1,2,0,3.9-1.5,5.3c-1.3,1.2-3.3,1.5-5,1.8c-1.5,0.2-3.3,1-4.8,0.4
		C16.4,37.4,16.6,36.9,16.9,37z"/>
</g>
</svg>
