<?xml version="1.0" encoding="utf-8"?>
<!-- Generator: Adobe Illustrator 25.4.1, SVG Export Plug-In . SVG Version: 6.00 Build 0)  -->
<svg version="1.1" id="Layer_1" xmlns="http://www.w3.org/2000/svg" xmlns:xlink="http://www.w3.org/1999/xlink" x="0px" y="0px"
	 viewBox="0 0 40 40" style="enable-background:new 0 0 40 40;" xml:space="preserve">
<style type="text/css">
	.st0{fill:#231A10;stroke:#231A10;stroke-width:0.25;stroke-linecap:round;stroke-linejoin:round;stroke-miterlimit:10;}
</style>
<g>
	<path class="st0" d="M2.6,21.8c-0.4,1.3-0.2,2.5,0.4,3.4c-4.9,7.2,6.1,8.7,11.7,9.4c0.6,0.2,1.2,0.3,1.8,0.4c0.1,0,0.2,0,0.3-0.1
		c6.2,1,18.1,4.6,17.6-5.2c1-0.3,1.7-1.1,2-2.4c0.3-1.2,0.5-1.5,1.5-2.4c0.4-0.4,0.5-0.7,0.7-1.2c0.3-1.3-1.3-2.5-2.2-3
		c-0.1-0.1-0.2-0.2-0.3-0.2c0-3.6-0.2-7.6-2.4-10.7c-2.6-3.5-6.9-5.6-11.2-6c-4-0.4-8.3,0-11.7,2.3C7.4,8.2,5,11.4,4,15.3
		c-0.4-0.1-0.8,0-1.2,0.4C1.7,16.9,0.3,21.1,2.6,21.8z M35.3,20.9c-4.1,2.8-9.3,4.3-14.4,4c0.2-0.2,0.1-0.7-0.3-0.7
		c-2.6,0.4-6.4-1.1-8.6-3c0.2,0,0.4,0.1,0.6,0.1c0.4,0.1,0.7-0.4,0.4-0.6c-0.5-0.5-1.1-1-1.7-1.4c1.1,0.5,2.1,1,3.2,1.4
		c0.3,0.1,0.7-0.3,0.4-0.6c-0.8-0.9-1.7-1.6-2.7-2.3c1,0.5,2,1,3.1,1.4c0.3,0.1,0.7-0.3,0.4-0.6c-0.7-0.8-1.5-1.4-2.3-2.1
		c0.6,0.3,1.2,0.5,1.9,0.6c0.3,0.1,0.7-0.3,0.4-0.6c-0.4-0.5-0.9-0.9-1.4-1.3c0.6,0.2,1.2,0.4,1.9,0.5c0.3,0,0.6-0.4,0.3-0.6
		c-0.3-0.3-0.6-0.6-0.9-0.8c0.5,0.2,1.1,0.3,1.6,0.4c0.3,0,0.5-0.3,0.3-0.6c-0.9-1.1-1.9-2.1-3-3c1.1,0.6,2.2,1.2,3.4,1.7
		c0.3,0.1,0.7-0.3,0.4-0.6c-0.6-0.6-1.3-1.2-2-1.8c0.7,0.3,1.4,0.6,2.1,0.8c0.3,0.1,0.7-0.3,0.4-0.6c-0.4-0.4-0.8-0.8-1.2-1.1
		c0.8,0.4,1.7,0.7,2.6,1c0.3,0.1,0.7-0.3,0.4-0.6c-0.4-0.5-0.9-1-1.5-1.4c0.2,0.1,0.4,0.2,0.6,0.2c0.4,0.2,0.7-0.4,0.4-0.6
		c-0.5-0.4-1.1-0.8-1.7-1.2c0.6,0.2,1.2,0.4,1.9,0.6c0.4,0.1,0.5-0.5,0.3-0.7c-0.3-0.2-0.5-0.4-0.8-0.6c0.7,0.2,1.4,0.4,2.2,0.6
		c0.4,0.1,0.5-0.4,0.3-0.7c-0.4-0.3-0.7-0.6-1.1-0.9C21.1,5,20.7,5.5,21,5.8C20,5.5,19,5.2,18,5c-0.4-0.1-0.6,0.5-0.3,0.7
		C18,5.8,18.3,6,18.5,6.2c-1-0.4-1.9-0.8-3-1.1c-0.4-0.1-0.7,0.4-0.4,0.6c0.1,0.1,0.3,0.2,0.4,0.3c-0.1-0.1-0.3-0.1-0.4-0.2
		c-0.4-0.2-0.7,0.4-0.4,0.6c1.5,1,3.1,1.8,4.5,3C17.5,8.7,15.9,7.7,14,7c-0.4-0.2-0.7,0.4-0.4,0.6c1.1,0.8,2.3,1.4,3.3,2.2
		c-1.3-0.6-2.4-1.3-3.7-2l0,0l0,0c0,0-0.1,0-0.1,0c-0.4-0.2-0.7,0.4-0.4,0.6c1.1,0.9,2.2,1.8,3.3,2.7c-1.7-0.8-3.2-1.8-4.9-2.6
		C10.9,8.4,10.7,9,11,9.2c1.9,1.5,3.9,2.9,5.5,4.6c-2.3-0.6-4.3-2.3-6.3-3.7c-0.4-0.3-0.8,0.3-0.5,0.6c1.7,1.4,3.6,2.6,5.3,4
		c-2.4-0.8-4.5-2.5-6.6-3.9c-0.4-0.3-0.8,0.3-0.5,0.6c2,1.5,4.1,2.8,6.1,4.4c-1.9-0.8-3.7-2-5.6-2.9c-0.4-0.2-0.7,0.4-0.4,0.6
		c1.9,1.4,3.9,2.6,5.7,4c-1.8-0.8-3.4-1.8-5.2-2.7c-0.4-0.2-0.7,0.4-0.4,0.6c1.5,1.4,3.3,2.3,4.8,3.6c-1.2-0.5-2.4-1.1-3.6-1.6
		c-0.3-0.1-0.7,0.3-0.4,0.6c0.8,0.8,1.6,1.5,2.5,2.2c-0.1,0-0.3,0-0.4-0.1c-0.3,0-0.6,0.4-0.3,0.6c0.6,0.7,1.5,1.4,2.4,2
		c-1.4-0.7-2.8-1.6-4-2.7C7.7,18.9,6.6,17,5,15.8c-0.1-0.1-0.2-0.2-0.3-0.2c2.1-7.9,9.7-12.1,17.6-11c4.1,0.5,8.7,2.4,11,6.2
		c1.8,3,2,6.5,2,10C35.3,20.7,35.3,20.8,35.3,20.9z M3.6,25.8c2.2,2.5,7.1,3.5,9.8,4c4.2,0.7,8.4,1.3,12.6,1.5
		c2.1,0.1,6.1,0.7,7.8-1.1c0,8.5-11.9,4.5-17.2,3.7c-0.2,0-0.3,0-0.5-0.1c-0.2-0.1-0.5-0.2-0.7-0.2c1,0.1,1.9,0.1,2.9,0
		c0.4,0,0.4-0.6,0.1-0.7c-1.6-0.6-3.2-1.1-4.8-1.7c0.6,0.1,1.1,0.1,1.7,0.2c0.5,0.1,0.6-0.7,0.1-0.7c-2.2-0.3-4.5-0.5-6.6-0.9
		c-0.8-0.2-1.5-0.4-2.3-0.6c0,0,0,0,0,0l0,0c0,0-0.1,0-0.1,0c-0.4-0.1-0.6,0.6-0.2,0.7c0.8,0.3,1.6,0.5,2.5,0.7
		c2.5,0.7,5.1,1.6,7.6,2.4c-2.7-0.2-5.3-1-7.9-1.6c-0.4-0.1-0.6,0.6-0.2,0.7c0.6,0.2,1.1,0.4,1.6,0.6c0,0.1,0,0.2,0.1,0.3
		C5.1,32.2,0.7,30.3,3.6,25.8z M3.4,21.9c1.8,0,4.1-1,5.6,0.3c0.3,0.3,0.3,0.7,0.1,1.1c-0.3-0.5-0.7-1-1.1-1.4
		C7.6,21.6,7,22,7.4,22.4c0.3,0.3,0.5,0.5,0.7,0.8c-0.8-0.4-1.5-0.9-2.3-1.4C5.4,21.6,5,22,5.2,22.4c0.4,0.6,0.9,1.2,1.4,1.7
		c-0.8-0.2-1.6-0.6-2.3-0.9c-0.3-0.1-0.7,0.2-0.5,0.5c0.6,1,1.3,1.7,2.2,2.4c0.4,0.3,0.8-0.3,0.5-0.6c-0.5-0.3-0.9-0.7-1.3-1.1
		C6,24.7,6.8,25,7.6,25c0.3,0,0.6-0.3,0.3-0.6c-0.2-0.3-0.5-0.6-0.7-0.8c0.4,0.2,0.9,0.5,1.3,0.6c-0.4,0.5-0.7,1-0.8,1.3
		c-1.1,3.2,3.5,2.2,5,1.9c2-0.3,4.4,1.8,6.4,0.9c0.7-0.3,1.2-0.8,1.8-1.2c2-1.2,2.3,0.5,3.3,1.5c0.9,0.9,2.4,1.9,3.6,0.7
		c0.4-0.4,0.8-1.7,1.3-1.9c1-0.3,1.6,0.8,2.2,1.3c0.6,0.6,1.3,0.9,2,1.1c-1.6,1.8-6.3,1-8.4,0.8c-3.5-0.2-7-0.8-10.4-1.3
		C10.9,28.7,1.8,27.1,3.4,21.9z M3.1,16.4c1-1.1,2.4,0.9,2.9,1.6c1.2,1.5,2.6,2.9,4.1,4c7.5,5.4,18.4,4.5,25.8-0.7c0,0,0,0,0,0
		c1.5,0.7,2.2,2.4,0.7,3.4c-1.2,0.8-0.6,2.8-1.5,3.8c-0.3,0.4-0.6,0.5-0.9,0.6c-0.1-0.1-0.3,0-0.4,0.1c-1.3,0-2.6-1.8-3.6-2.4
		c-0.7-0.4-2-0.2-2.3,0.6c-0.2,0.6-0.3,1.3-1.1,1.6c-0.9,0.3-1.9-0.5-2.3-1.2c-0.3-0.5-0.6-1.1-1.1-1.5c-1.2-1-2.7,0-3.6,0.7
		c-2.3,1.8-4.5-0.8-6.9-0.4c-0.9,0.2-1.8,0.5-2.7,0.5c-1.8,0.1-2.1-1.1-1.2-2.2c0.4-0.6,1.3-1.5,1.1-2.3C9.5,19,2.6,22.9,2.2,20
		C2,18.8,2.3,17.3,3.1,16.4z"/>
	<path class="st0" d="M30,19.8c1,0.4,2,0,2.5-1c0.5-0.9,0.4-2-0.1-3c-0.2-0.3-0.6-0.1-0.6,0.2c0,0,0,0,0,0c-1.1-0.2-2.5,0.2-3.1,1.2
		C28,18.4,29,19.5,30,19.8z M29.4,17.5c0.5-0.6,1.4-0.7,2.2-0.6c0.2,0,0.3,0,0.3-0.1c0.3,1.1-0.1,3-1.5,2.5
		C29.8,19,28.7,18.2,29.4,17.5z"/>
	<path class="st0" d="M22.2,9.3c0.4-0.4,1.1-0.6,1.6-0.7c0.2,0,0.4,0.1,0.4,0.3c0,0.2-0.1,0.4-0.3,0.4c-0.3,0.1-0.4,0.1-0.7,0.2
		c-0.1,0-0.2,0.1-0.3,0.1c0,0,0,0,0,0c0,0-0.1,0-0.1,0.1c0,0-0.1,0-0.1,0.1c0,0,0,0,0,0c0,0,0,0,0,0c0,0,0,0,0,0.1c0,0,0,0,0,0
		c0,0,0,0,0,0c0,0,0,0,0,0c0,0,0,0,0,0c0,0,0,0,0,0.1c0,0,0.1,0.1,0.1,0.1c0,0,0,0,0,0c0,0,0,0,0,0c0.1,0,0.1,0.1,0.2,0.1
		c0.1,0,0.1,0.1,0.2,0.1c0,0,0,0,0,0c0,0,0,0,0,0c0,0,0.1,0,0.1,0.1c0.1,0.1,0.3,0.1,0.4,0.2c0.1,0,0.1,0.1,0.2,0.1c0,0,0.1,0,0.1,0
		c0,0,0,0,0.1,0c0.1,0,0.3,0.1,0.4,0.1c0.1,0,0.1,0,0.2,0c0,0,0.1,0,0.1,0c0,0,0,0,0,0c0,0,0,0,0,0c0.1,0,0.1,0,0.2,0
		c0,0,0.1,0,0.1,0c0,0,0,0,0,0c0,0,0.1,0,0.1,0c0,0,0,0,0,0c0,0,0,0,0-0.1c0,0,0,0,0,0c0-0.1-0.1-0.1-0.1-0.2c0,0,0,0,0,0
		c0,0,0,0,0,0c0,0-0.1-0.1-0.1-0.1c-0.1-0.1-0.1-0.2-0.2-0.3c-0.2-0.2-0.3-0.3-0.5-0.5c-0.1-0.1-0.2-0.3-0.1-0.5
		c0.1-0.2,0.4-0.2,0.5-0.1c0.4,0.4,0.8,0.7,1,1.2c0.2,0.3,0.3,0.6,0.1,0.9c-0.2,0.6-1.1,0.6-1.6,0.5c-0.7-0.1-1.3-0.3-1.9-0.7
		C22.1,10.5,21.7,9.8,22.2,9.3z"/>
	<path class="st0" d="M20.3,20.5c0.8,0.2,1.6-0.1,1.9-0.9c0.4-0.8,0.2-1.7-0.3-2.4c-0.1-0.1-0.2-0.2-0.4-0.1
		c-0.1-0.1-0.2-0.2-0.4-0.2c-0.8,0.2-1.8,0.7-2.1,1.6C18.7,19.4,19.4,20.2,20.3,20.5z M19.8,18.5c0.3-0.5,0.9-0.8,1.4-0.9
		c0,0,0,0,0,0c0,0,0,0,0,0c0.3,0.4,0.5,1,0.3,1.5c-0.2,0.4-0.5,0.8-1,0.6C20.1,19.6,19.4,19.1,19.8,18.5z"/>
</g>
</svg>
