<?xml version="1.0" encoding="utf-8"?>
<!-- Generator: Adobe Illustrator 25.4.1, SVG Export Plug-In . SVG Version: 6.00 Build 0)  -->
<svg version="1.1" id="Layer_1" xmlns="http://www.w3.org/2000/svg" xmlns:xlink="http://www.w3.org/1999/xlink" x="0px" y="0px"
	 viewBox="0 0 40 40" xml:space="preserve">

<g>
	<path class="st0" d="M1.1,23.3C2,25.4,5,25.8,6.9,26.6c3.8,1.5,7.5,3.1,11.4,4.3c4,1.3,7.9,2.5,11.9,3.5c1.7,0.4,3.5,0.6,5.1,1.1
		c1.2,0.4,2.2,1.1,3.5,1.2c0.3,0,0.5-0.3,0.4-0.5c-1-6.3-3.7-11.6-7.1-16.9C29,14.4,26,9.3,22.4,4.6c0-0.2-0.1-0.3-0.3-0.5
		c0-0.2-0.1-0.4-0.3-0.5C16.8,2.1,11.1,4.9,7.5,8.3c-2.2,2-4.2,4.3-5.5,7.1C1,17.5,0.2,21.1,1.1,23.3z M3.8,24.5
		c-0.3-0.1-0.6-0.3-0.9-0.5c0.2-0.1,0.4-0.3,0.5-0.5c0.2,0,0.3-0.1,0.4-0.3c1.4-3.3,1.2-6.9,3.5-9.9c2.4-3.1,5.1-5.3,8.9-6.1
		c0.8-0.2,4.5-0.6,5.8-1.7c3.6,4.8,6.5,9.9,9.8,14.9c3.1,4.7,5.5,9.8,6.5,15.4c-1.1-0.3-2.2-1-3.4-1.3c-1.5-0.3-3-0.6-4.5-1
		c-3.2-0.8-6.4-1.8-9.6-2.8C15.1,29,9.4,26.8,3.8,24.5z M3,15.3c1.2-2.2,2.8-4.2,4.6-5.9c3.5-3.2,8.6-6.3,13.6-5.1c0,0,0,0.1,0,0.1
		c0.1,0.1,0.2,0.2,0.2,0.3c-0.3,0.7-4.2,1.4-4.7,1.5c-2.2,0.4-4.4,0.9-6.1,2.4c-2.2,1.9-4.1,4-5.5,6.6c-1.1,2.2-1.2,4.9-2,7.2
		c-0.1,0-0.2,0.1-0.2,0.2c-0.1,0.3-0.4,0.5-0.7,0.6C0.9,21.2,1.9,17.5,3,15.3z"/>
	<path class="st0" d="M15.7,24.3c1,0.8,3,1.1,3.3-0.6c0.2-1,0.3-2.6,1.5-0.9c0.5,0.7,0.9,1.2,1.7,1.4c1.6,0.5,3.5-0.9,3.5-2.5
		c0-0.8-0.9-1.4-1.5-1.8c-0.5-0.3-1.1-0.4-1.6-0.5c-1-0.3-1.2-0.3-1.4-0.9c0.1,0,0.1,0,0.2,0c1.3,0.1,2.7-0.8,1.9-2.3
		c-0.9-1.7-3-2.2-4.7-1.7C15.2,15.5,12.7,21.8,15.7,24.3z M16.7,17c0.6-0.8,1.4-1.5,2.4-1.7c0.6-0.1,1.3-0.1,1.9,0.2
		c1.2,0.3,1.4,0.9,0.7,1.8c-0.6-1.7-2.9-0.9-2.4,0.7c0.5,1.3,1.6,1.9,2.9,2.3c0.6,0.2,1.4,0.3,1.8,0.7c1.7,1.3-1.2,3.5-2.3,2.1
		c-0.4-0.5-0.7-0.9-1.1-1.3c-0.5-0.4-1.5-0.8-2.1-0.3c-0.3,0.2-0.3,0.6-0.3,1c0,0.3,0,0.8-0.1,1.1c-1.1,0.7-1.9,0.5-2.3-0.5
		C14.9,21.1,15.5,18.6,16.7,17z"/>
	<path class="st0" d="M29.5,31.9c1.4,0.5,5.7,0.7,5.9-1.6c0.1-1.3-1.2-2.6-1.8-3.6c-1.2-1.6-2.5-3-3.3-4.9c-0.1-0.3-0.5-0.4-0.7-0.2
		c0,0-0.1,0-0.1,0C25.8,23.6,25,30.2,29.5,31.9z M33.2,27.7c0,0-0.1,0-0.1,0.1c-0.5,0.5-0.9,1.2-1.5,1.6c-0.8,0.6-1.6-0.1-2-0.8
		C29,27.3,29,25.8,30.2,25c0.1,0,0.3,0,0.4-0.1c0.1-0.1,0.2-0.2,0.3-0.2c0.7,1,1.5,1.9,2.2,2.9C33.2,27.6,33.2,27.7,33.2,27.7z
		 M29.7,22.5c0.2,0.5,0.5,1,0.8,1.4c-0.1,0-0.1,0.1-0.2,0.1c-0.1,0-0.1,0-0.2,0c-2,0.9-2.3,3.5-1,5.2c0.6,0.8,1.4,1.6,2.5,1.2
		c0.9-0.4,1.5-1.3,2.2-2c0.6,1.1,1.1,2.4-0.8,2.7c-0.9,0.2-1.9,0.3-2.8,0C26.3,29.8,26.5,24.4,29.7,22.5z"/>
	<path class="st0" d="M8.7,22.6c1.3,0.8,3,0.6,3.7-0.9c0.8-1.6-0.3-3.1-1.7-3.8c-0.1,0-0.1,0-0.2,0c-0.1,0-0.1-0.1-0.2-0.1
		C7.5,17.4,6.5,21.1,8.7,22.6z M10.3,18.7c1,0.5,2.1,1.8,1.2,3c-0.7,0.9-2,0.7-2.6-0.1C7.8,20.2,8.6,18.4,10.3,18.7z"/>
	<path class="st0" d="M11.1,16.5c0.8,0.3,1.7,0,2.1-0.8c0.4-0.8-0.1-1.7-0.8-2.2c-0.1-0.1-0.2-0.1-0.3-0.1c-0.8-0.2-1.7,0.2-1.9,1.1
		C9.9,15.4,10.3,16.2,11.1,16.5z M11.9,14.3C11.9,14.3,11.9,14.3,11.9,14.3c0.4,0.3,0.7,0.6,0.5,1.1c-0.2,0.4-0.6,0.5-0.9,0.3
		C10.5,15.4,11,14,11.9,14.3z"/>
	<path class="st0" d="M17.6,12.2c0,0.2,0.2,0.4,0.4,0.4c0.9,0,1.8,0,2.6,0c0.4,0,0.9,0,1.2-0.2c0.8-0.6,0.5-1.9,0.6-2.8
		c0-0.2-0.1-0.3-0.2-0.4C22.2,9.1,22.1,9,22,9c-1.1-0.2-2.3-0.3-3.4-0.5c-0.2,0-0.5,0-0.5,0.3C17.7,9.9,17.6,11.1,17.6,12.2z
		 M18.5,11.8c0-0.8,0.1-1.6,0.3-2.4c1,0.1,1.9,0.2,2.9,0.4c0,0.6,0.1,2-0.5,2C20.2,11.8,19.3,11.8,18.5,11.8z"/>
	<path class="st0" d="M20.2,27.8c0.1,0.5,0.5,1.7,1.3,1.4c0.4-0.1,0.7-0.4,1-0.5c0.6-0.2,1.1-0.3,1.7-0.5c0.3-0.1,0.4-0.4,0.3-0.6
		c-0.3-0.6-0.6-1.1-0.9-1.7c0,0-0.1-0.1-0.1-0.1c0-0.2-0.1-0.4-0.4-0.4c-0.6,0.1-1.1,0.3-1.7,0.4c-0.4,0.1-0.8,0.2-1.1,0.3
		C19.8,26.5,20.1,27.3,20.2,27.8z M20.9,26.9c0-0.1,0.1-0.1,0.3-0.1c0.6-0.1,1.2-0.4,1.8-0.5c0,0,0,0,0,0c0.2,0.4,0.4,0.8,0.6,1.1
		c-0.6,0.1-1.2,0.2-1.6,0.5c-0.1,0.1-0.5,0.4-0.6,0.2c-0.1-0.2-0.2-0.4-0.2-0.7C21,27.4,20.9,27.1,20.9,26.9z"/>
	<path class="st0" d="M25.8,19.1c0.8,0.5,1.9,0.6,2.5-0.3c0.5-0.9,0.1-1.8-0.6-2.3c-0.1-0.1-0.2-0.1-0.2-0.1c0,0,0,0-0.1,0
		C25.6,15.5,24.1,18.1,25.8,19.1z M26.1,17.4c0.2-0.3,0.5-0.5,0.8-0.3c0.1,0,0.1,0,0.2,0c0,0,0.1,0.1,0.1,0.1
		c0.4,0.3,0.6,0.8,0.3,1.2c-0.3,0.4-1,0.2-1.3-0.1C25.9,18.1,25.9,17.7,26.1,17.4z"/>
</g>
</svg>
