<?xml version="1.0" encoding="utf-8"?>
<!-- Generator: Adobe Illustrator 25.4.1, SVG Export Plug-In . SVG Version: 6.00 Build 0)  -->
<svg version="1.1" id="Layer_1" xmlns="http://www.w3.org/2000/svg" xmlns:xlink="http://www.w3.org/1999/xlink" x="0px" y="0px"
	 viewBox="0 0 394.2 412" style="enable-background:new 0 0 394.2 412;" xml:space="preserve">
<style type="text/css">
	.st0{fill:#F9EDDC;}
	.st1{fill:#F26526;}
	.st2{fill:#22170E;}
	.st3{fill:#151E29;}
	.st4{fill:none;stroke:#F26526;stroke-miterlimit:10;}
	.st5{fill:#183A48;}
	.st6{fill:#111523;}
	.st7{fill:#F16465;}
	.st8{fill:none;stroke:#05687C;stroke-width:3.7666;stroke-linecap:round;stroke-miterlimit:10;}
	.st9{fill:none;stroke:#111523;stroke-width:2.8249;stroke-linecap:round;stroke-linejoin:round;stroke-miterlimit:10;}
	.st10{fill:#FFFFFF;}
	.st11{fill:#F78E47;}
	.st12{fill:#FEDB47;}
	.st13{fill:none;stroke:#FFFFFF;stroke-width:1.8833;stroke-miterlimit:10;}
</style>
<g>
	<g>
		<path class="st0" d="M217.7,192.3c0,0,34.5,3.3,42.3-17.7c7.8-21-57.9-91.5-57.9-91.5s28.8-19.5,26.1-24.8
			c-2.8-5.3-23.3,9.2-23.3,9.2s19.9-15.4,17.8-19.5c-2.1-4.1-24.9,13.1-24.9,13.1s19.6-17.6,17-21.3c-2.6-3.7-28.1,21.3-28.1,21.3
			s6.4-14.4,3.6-15.4c-2-0.7-10.8,14.4-15.8,23.4c-2.2,4-2.3,8.8-0.2,12.8l30.5,58.4"/>
		<polyline class="st0" points="16.6,253.6 6.3,270.1 43.4,280.5 48.8,246.4 		"/>
		<g>
			<g>
				<g>
					<path class="st1" d="M394.2,265l-28,2.6c-0.6-4.7-1.6-9.8-3.3-14.8c-8.3,7.3-16.2,15-23.7,23.2c6.6,12.8,10.8,24.9,10.8,24.9
						L394.2,265z"/>
					<path class="st2" d="M339.3,276c7.5-8.1,15.4-15.8,23.7-23.2c-1.2-3.7-2.7-7.4-4.4-11.1c-8.8,7.3-18.3,13.9-26.4,22
						C334.7,267.6,337.1,271.8,339.3,276z"/>
					<path class="st3" d="M295,201.9c-43.7,4-73.7,45.9-73.7,45.9l-26.9,15.3l-14.1,8l4.2,29.7l63,3.2c0,0,14.5-19.1,30.7-35.3
						c10.3-10.3,21.3-19.4,29.6-21.7c8.7-2.4,17.3,5.9,24.4,16.6c8.1-8,17.6-14.7,26.4-22C347.8,219.2,326.5,199.1,295,201.9z"/>
				</g>
				<path class="st3" d="M283.2,301.3c-20.1-45.9-124-11.3-124-11.3l-63.5,19c0,0,17.4,42.1,60.3,45.1c44.3,3,89.5-29.2,89.5-29.2
					l-13.3,43.7c10.1,1.8,20,3.2,30.1,4.9C274.6,349.9,289.7,316.2,283.2,301.3z"/>
				<path class="st2" d="M228,382c9,1.1,18,2.7,26.9,4.7c2.2-3.8,4.7-8.3,7.3-13.2c-10-1.6-20-3.1-30.1-4.9L228,382z"/>
				<path class="st1" d="M254.8,386.7c-8.9-2-17.9-3.5-26.9-4.7l-6.6,21.6l45,8.3l-18.8-13.1C247.6,398.8,250.6,394.1,254.8,386.7z"
					/>
			</g>
			<path class="st4" d="M275.1,346.3c7.4-17.7,12.3-35.3,8.1-45c-20.1-45.9-124-11.3-124-11.3"/>
		</g>
		<path class="st1" d="M186.7,200.2l40,43.7c-65.1,86.9-142.1,65.9-142.1,65.9l-25-76l-1.2,21.7C33.5,272.2,0,266.1,0,266.1
			s9.9-38.8,36.8-67.1c5.9-6.2,12.9-12.2,20.6-17.9c18.9-14,41.7-25.8,60.6-32.8c8.4-3.1,15.9-5.3,22-6.4
			c25.4-4.3,64.9-1.7,64.9-1.7c18.5,17.6,21.8,60.2,21.8,60.2C203.6,205.2,186.7,200.2,186.7,200.2z"/>
		<path class="st2" d="M114.7,203.6c-24.6,19.9-49.4-11.1-57.2-22.5c18.9-14,41.7-25.8,60.6-32.8C122.2,153.9,141.3,182,114.7,203.6
			z"/>
		<g>
			<path class="st2" d="M47.8,61.7c10-7.4,22.6-11.4,35.1-10.9c1.7,0.1,3.5,0.2,5.2-0.1c5.7-1.1,9.1-7.5,8.5-13.3
				c-1.8-0.5-3.8,0-5.1,1.4c-0.2-4.2-0.4-8.6-2.1-12.5c-1.7-3.9-5.4-7.2-9.6-7.3c-3.9-0.1-7.5,2.6-9.6,5.9c-2.1,3.3-3,7.3-3.8,11.1
				c0.2-6.8-7.4-12-14.1-11s-12,6.7-14.5,13c-2.5,6.3-2.7,13.3-2.9,20.1c-2.7-2.9-6.4-6.1-10.1-4.6c-3,1.3-4,5.1-3.8,8.4
				c0.2,3.7,1.3,7.4,3.3,10.6c-4.1-0.7-9.5,1.1-9.8,5.2c-0.2,2.4,1.5,4.5,3.2,6.3c1.4,1.5,6.8,7.4,9.1,6.7c2-0.7,4-8.5,5.1-10.5
				C35.8,72.9,41.2,66.5,47.8,61.7z"/>
			<path class="st5" d="M113.4,91.5c-1.2-5-0.6-10.9,3.2-14.5c3-2.9,7.6-3.8,11.5-2.5c3.9,1.3,7,4.7,8.3,8.6c1.2,3.9,0.7,8.4-1.3,12
				c-1.9,3.4-4.9,6.1-8,8.5L113.4,91.5z"/>
			<path class="st0" d="M139.7,122.1c-4.5,16.2-30.8,26.9-32.4,27.6l-0.1,0c0,0,3.6,5.1,7,12.1c5.7,11.7,10.9,28.8-2.4,35.8
				c-21.1,11.1-40.7-12.7-40.7-12.7L30,85.6c8-30.2,49.8-40,49.8-40C95.7,50.2,144.3,105.3,139.7,122.1z"/>
			<path class="st2" d="M52.6,128.9c0,0,9.4-36.9-24.2-43.7c0,0-10,3.1-5.8,18.4C26.8,119,39.3,123.5,52.6,128.9z"/>
			<path class="st0" d="M52.6,128.9c-4.3-2.8-10.1-4.2-14.7-1.8c-3.7,1.9-6.1,5.9-6.2,10.1c-0.1,4.1,2.1,8.2,5.4,10.7
				c3.3,2.5,7.7,3.4,11.7,2.8c3.9-0.6,7.4-2.6,10.7-4.7L52.6,128.9z"/>
			<g>
				<g>
					<path class="st6" d="M37.1,137.9c5-0.9,10.1-1,15-0.2c1.2,0.2,1.7-1.6,0.5-1.8c-5.3-0.8-10.7-0.8-16,0.2
						C35.4,136.3,35.9,138.1,37.1,137.9L37.1,137.9z"/>
				</g>
			</g>
			<g>
				<g>
					<path class="st6" d="M46.7,143.5c0.3-2.2,0.8-4.4,1.5-6.5c0.2-0.5-0.2-1-0.7-1.2c-0.5-0.1-1,0.2-1.2,0.7
						c-0.7,2.1-1.2,4.3-1.5,6.5c-0.1,0.5,0.1,1,0.7,1.2C46,144.3,46.6,144,46.7,143.5L46.7,143.5z"/>
				</g>
			</g>
			<g>
				<path class="st6" d="M114.8,131.1c-1.7,3.7-4.8,6.9-10.1,8.7C94.7,143.2,87,140,82,136c-4.8-3.8-7.3-8.2-7.3-8.2
					c0.7,0.1,25.4-8.4,38.9-19.8C113.6,108.1,119.3,121.3,114.8,131.1z"/>
				<path class="st7" d="M114.8,131.1c-1.7,3.7-4.8,6.9-10.1,8.7C94.7,143.2,87,140,82,136c7-6.5,17.1-9.5,26.6-7.8
					C110.8,128.6,113.3,129.5,114.8,131.1z"/>
			</g>
			<g>
				<g>
					<path class="st6" d="M68.8,106.1c4.1,1.5,9.4,2.2,13.2-0.6c3.1-2.2,4.9-6.3,3.2-10c-0.5-1.1-2.1-0.1-1.6,1
						c1.3,2.9-0.6,6.3-3.1,7.8c-3.4,2-7.7,1.3-11.2,0C68.2,103.9,67.7,105.7,68.8,106.1L68.8,106.1z"/>
				</g>
			</g>
			<g>
				<g>
					<path class="st6" d="M96.5,89.9c3,1,6.5,1.1,9.4-0.4c2.6-1.3,4.2-4.1,4.2-7c0-1.6-0.5-3.1-1.6-4.3c-0.8-0.9-2.1,0.4-1.3,1.3
						c1.9,2.1,1.1,5.5-0.8,7.3c-2.5,2.3-6.4,2.2-9.4,1.2C95.8,87.7,95.3,89.6,96.5,89.9L96.5,89.9z"/>
				</g>
			</g>
			<g>
				<g>
					<path class="st6" d="M89.3,88.3c5.5,2.3,10,6.4,13.7,11c0.9,1.2,1.8,2.4,2.7,3.6c0.4,0.6,0.8,1.2,1.2,1.8
						c0.6,0.9,0.8,1.1-0.1,1.8c-2.9,2.2-5.9,4.5-8.8,6.7c-1,0.7,0,2.4,1,1.6c1.8-1.3,3.5-2.7,5.3-4c0.8-0.6,1.7-1.3,2.5-1.9
						c0.7-0.5,1.7-1.1,2.2-1.8c1-1.2,0-2.6-0.7-3.7c-0.9-1.4-1.9-2.8-3-4.2c-4.1-5.4-9.2-10.1-15.5-12.8
						C88.7,86.1,88.2,87.9,89.3,88.3L89.3,88.3z"/>
				</g>
			</g>
			<path class="st2" d="M54.3,98.9c-1.8-5-1.6-10.7,0.8-15.9c2.4-5.1,6.8-9.3,12.5-11.4l0.2-0.1c2.4-0.9,5.1,0.3,6,2.7
				s-0.3,5.1-2.7,6c-0.3,0.1-0.6,0.2-0.9,0.2c-3.5,0.5-7.1,2.6-9.4,5.8c-2.3,3.1-3.5,7.5-2.8,11.7l0,0c0.2,1-0.6,2-1.6,2.2
				C55.4,100.3,54.6,99.8,54.3,98.9z"/>
			<path class="st2" d="M98.8,67.6c-2.1-1.3-4.6-1.5-6.9-1c-2.3,0.5-4.2,1.8-5.2,3.4c-1.1,1.8-3.4,2.4-5.2,1.3
				c-1.8-1.1-2.4-3.4-1.3-5.2c0.2-0.3,0.4-0.5,0.6-0.7l0.3-0.3c1.4-1.4,3.1-2.5,4.9-3.1c1.8-0.7,3.6-1,5.4-1c3.6,0,7.2,1.2,9.7,3.7
				c0.8,0.7,0.8,1.9,0.1,2.7C100.6,67.9,99.6,68,98.8,67.6L98.8,67.6z"/>
		</g>
		<path class="st8" d="M83,168"/>
		<path class="st9" d="M156.9,168.7c1.1,0.7,69.8,75.1,69.8,75.1"/>
		<path class="st0" d="M6.3,270.1c0,0-9.8,15.7-2,24.2c7.8,8.5,58.3,11.8,98.6-5.3c40.3-17.1,55.5-38.4,52.9-43.1
			c-2.6-4.6-25.8,7.6-25.8,7.6s24.7-19.3,20.6-24.8c-4-5.5-25.7,10.7-25.7,10.7s19.1-17.7,16.7-21.2c-2.4-3.5-33.2,23.1-33.2,23.1
			s12.1-17.7,8.7-20.3c-3.4-2.6-27.6,26.8-27.6,26.8l-52,23.4L6.3,270.1z"/>
		<path class="st5" d="M114.1,161.8L83,153.9c16.6-1.3,24.2-4.2,24.2-4.2S110.7,154.8,114.1,161.8z"/>
	</g>
	<g>
		<g>
			<path class="st10" d="M47.9,173.1c-13.9,3.7-27.5,8.7-40.5,15c-1.1,0.5-0.1,2.1,1,1.6c12.9-6.2,26.3-11.1,40.1-14.8
				C49.6,174.6,49.1,172.8,47.9,173.1L47.9,173.1z"/>
		</g>
	</g>
	<g>
		<g>
			<path class="st10" d="M41.6,167.3c-7.2,0.4-14.5,0.8-21.7,1.2c-1.2,0.1-1.2,2,0,1.9c7.2-0.4,14.5-0.8,21.7-1.2
				C42.8,169.1,42.8,167.3,41.6,167.3L41.6,167.3z"/>
		</g>
	</g>
	<g>
		<g>
			<path class="st10" d="M41.9,157.5c-3.2,0.6-6.5,0.3-9.6-0.8c-0.5-0.2-1,0.2-1.2,0.7c-0.1,0.5,0.2,1,0.7,1.2
				c3.4,1.2,7,1.4,10.6,0.8c0.5-0.1,0.8-0.7,0.7-1.2C42.9,157.6,42.4,157.4,41.9,157.5L41.9,157.5z"/>
		</g>
	</g>
	<g>
		<g>
			<path class="st10" d="M108,46.1c0.5-9.4,1.6-18.7,3.3-28c0.2-1.2-1.6-1.7-1.8-0.5c-1.8,9.4-2.9,18.9-3.4,28.5
				C106,47.4,107.9,47.4,108,46.1L108,46.1z"/>
		</g>
	</g>
	<g>
		<g>
			<path class="st10" d="M112.1,50.9c0.8-2.9,1.7-5.7,2.5-8.6c0.3-1.2-1.5-1.7-1.8-0.5c-0.8,2.9-1.7,5.7-2.5,8.6
				C110,51.6,111.8,52.1,112.1,50.9L112.1,50.9z"/>
		</g>
	</g>
	<g>
		<g>
			<path class="st10" d="M116.5,54.9c1.3-1.6,2.2-3.5,2.7-5.5c0.1-0.5-0.1-1-0.7-1.2c-0.5-0.1-1,0.1-1.2,0.7
				c-0.1,0.5-0.2,0.9-0.4,1.3c-0.1,0.2-0.2,0.4-0.2,0.7c0.1-0.2-0.1,0.1-0.1,0.2c0,0.1-0.1,0.2-0.1,0.3c-0.2,0.4-0.4,0.8-0.6,1.2
				c-0.1,0.2-0.2,0.4-0.4,0.6c-0.1,0.1-0.1,0.2-0.2,0.3c0,0-0.1,0.1-0.1,0.1c0.1-0.1,0.1-0.1,0,0c-0.3,0.4-0.4,1,0,1.3
				C115.5,55.2,116.2,55.3,116.5,54.9L116.5,54.9z"/>
		</g>
	</g>
	<g>
		<g>
			<path class="st11" d="M141.6,58.4c2.8-2.9,7-3.7,10.7-5.3c3.6-1.6,6.8-3.9,10.3-5.7c3.3-1.7,6.9-3,10.2-4.8
				c2.8-1.5,5.4-3.4,8-5.2c8.8-6.3,17.7-12.8,24.3-21.3c1.2-1.6,2.4-3.7,1.3-5.4c-0.7-1.1-2.5-0.7-3.8-0.7
				c-8.9,0.1-17.1,5-23.8,10.9c-6.7,5.9-12.3,13-19.2,18.6c-4.5,3.7-9.6,6.7-14.1,10.4C143,52,141.3,55.1,141.6,58.4z"/>
			<path class="st11" d="M210.6,7.5c0,1.2-0.4,2.3-1,3.3c-1,1.7-2.5,3.1-4.3,3.9c-0.2,0.1-0.3,0.2-0.5,0.2c-2.3,0.9-4.9,0.9-7.4,0.8
				c-8.8-0.3-17.6-1.4-26.3-3.1c-1.8-0.4-3.8-0.9-4.8-2.4c-1.3-2-0.3-4.9,1.6-6.3c3.5-2.7,9.5-3.3,13.7-3.6c6-0.4,12.1-0.4,18.2,0
				c2.2,0.2,4.4,0.4,6.3,1.3c0.2,0.1,0.4,0.2,0.6,0.3C208.8,3,210.6,5.1,210.6,7.5z"/>
			<path class="st7" d="M210.6,7.5c0,1.2-0.4,2.3-1,3.3c-1,1.7-2.5,3.1-4.3,3.9c-1.3-0.3-2.6-1-3.6-2c-1.3-1.3-2.2-3.2-2.1-5.1
				c0.1-1.4,0.7-2.7,1.6-3.7c1-1.1,2.9-2,4.8-2.4c0.2,0.1,0.4,0.2,0.6,0.3C208.8,3,210.6,5.1,210.6,7.5z"/>
			<path class="st12" d="M204.6,14.5c-0.7,3-4.6,4-6.3,6.6c-1.3,2-1.3,4.8-3.1,6.4c-2.6,2.3-7.4,0.9-9.5,3.6
				c-0.6,0.7-0.8,1.6-1.4,2.4c-1.4,1.8-4.1,1.8-6.4,1.4c-2.3-0.4-4.8-0.8-6.7,0.5c-2.3,1.6-2.3,5-1.6,7.7c0.4,1.5,0.7,3.5-0.8,4.2
				c-1.1,0.5-2.4-0.6-3-1.6c-0.6-1.1-1.2-2.4-2.3-2.9c-1.4-0.6-3.1,0.4-4,1.6c-0.9,1.2-1.5,2.8-2.6,3.9c-2.7,2.7-7.4,1.8-10.6,4
				c-2.4,1.7-3.3,4.7-4.5,7.4c-0.8,1.7-1.7,3.4-2.7,4.9c-0.3,0.5-0.7,1-1.3,1.1c-0.8,0.3-1.8-0.3-2.2-1.2c-0.4-0.8-0.3-1.8-0.3-2.7
				c0.2-3.6,0.3-7.1,0.5-10.7c0.1-2.5,0.2-5.1,0.9-7.5c0.1-0.4,0.2-0.8,0.4-1.1c1.3-3.6,3.8-6.7,6.8-9c0.2-0.2,0.5-0.4,0.7-0.5
				c2.5-1.8,5.3-3.2,7.5-5.3c3.1-3,4.8-7.2,8.2-9.8c0.7-0.5,1.5-1,2.3-1.4c1-0.5,1.9-1,2.8-1.6c1-0.6,2-1.5,2.6-2.5
				c0.4-0.6,0.6-1.8,1.1-2.2c1.5-1.1,5.7-0.6,7.5-0.7c0.1,0,0.2,0,0.3,0h0c5.6-0.4,11.2-0.8,16.8-1.2c2.4-0.2,4.9-0.3,7.1,0.6
				C203.4,9.7,205.2,12.1,204.6,14.5z"/>
			<path class="st7" d="M146.5,38.9c-0.3,0.5-0.8,1-1.3,1.4c-1.2,1-2.5,2-4.1,2.5c-1.3,0.4-2.8,0.3-4-0.3c1.3-3.6,3.8-6.7,6.8-9
				c0.5,0.1,0.9,0.4,1.3,0.6C146.8,35.2,147.5,37.4,146.5,38.9z"/>
			<path class="st7" d="M154.4,35c0.3,0.6,0.9,1.1,1.5,1.5c2.7,1.5,6.1,1.2,8.7-0.4c1.8-1.1,3.3-2.9,3.3-5c0-0.5-0.1-1.1-0.3-1.5
				c-0.2-0.4-0.5-0.6-0.9-0.9c-2.1-1.6-6-2.7-8.5-1.4C156.1,28.5,153.2,32.5,154.4,35z"/>
			<path class="st7" d="M178.1,13c-0.3,3.1-2.2,6-5,7.4c-4,1.9-8.9,0.1-10.3-4c1-0.5,1.9-1,2.8-1.6c1-0.6,2-1.5,2.6-2.5
				c0.4-0.6,0.6-1.8,1.1-2.2c1.5-1.1,5.7-0.6,7.5-0.7c0.1,0,0.2,0,0.3,0h0c0.3,0.4,0.5,0.8,0.7,1.3C178.1,11.5,178.1,12.3,178.1,13z
				"/>
			<path class="st7" d="M180.5,20.2c-0.4,0.8-0.6,1.8-0.3,2.7c0.5,1.4,2.3,1.8,3.8,1.7c2.7-0.2,5.4-1.5,7.2-3.6
				c2.5-3,1.8-6.3-2.3-6.1C185.4,15,182,17.1,180.5,20.2z"/>
		</g>
		<g>
			<g>
				<path class="st10" d="M139.5,48c0.5,1.9,2.7,2.7,4.5,2.1c2-0.7,3.4-2.6,4.3-4.4c0.2-0.4,0.6-1.6,1.2-1.4
					c0.5,0.2,0.9,0.5,1.4,0.7c0.5,0.1,1,0.1,1.5-0.1c2.2-0.7,2.7-3,2.3-5c-0.3-1.2-2.1-0.7-1.8,0.5c0.2,0.7,0.2,1.6-0.2,2.2
					c-0.4,0.5-1,0.7-1.6,0.4c-0.7-0.4-1.4-0.8-2.2-0.5c-0.7,0.2-1.2,0.7-1.6,1.3c-0.4,0.6-0.6,1.3-1,1.9c-0.4,0.7-1,1.4-1.7,2
					c-0.8,0.7-2.8,1.3-3.2-0.2C141,46.3,139.2,46.8,139.5,48L139.5,48z"/>
			</g>
		</g>
		<g>
			<g>
				<path class="st10" d="M157.6,23.3c0.4,1,1.4,1.7,2.4,2c0.6,0.1,1.1,0.1,1.7,0c0.6-0.1,1-0.5,1.6-0.7c0.5-0.2,1.1,0.2,1.6,0.4
					c0.5,0.2,1,0.5,1.6,0.6c1.1,0.2,2.3,0,2.9-1.1c0.6-1.1-1.1-2-1.6-1c-0.2,0.4-1,0.3-1.5,0.1c-1-0.4-2-1-3.1-0.9
					c-0.9,0.1-1.5,0.9-2.4,0.8c-0.7-0.1-1.3-0.5-1.5-1.2c-0.2-0.5-0.9-0.6-1.3-0.3C157.5,22.3,157.4,22.8,157.6,23.3L157.6,23.3z"/>
			</g>
		</g>
		<g>
			<g>
				<path class="st10" d="M196.9,12.6c0.8,1.9-0.1,3.5-1.8,4.4c-0.8,0.4-1.6,0.8-2.3,1.5c-0.7,0.6-1.2,1.4-1.5,2.2
					c-0.8,1.8-1.2,3.5-3,4.5c-2,1.1-4.3,1.1-6.5,1.1c-1.2,0-1.2,1.9,0,1.9c2.5,0,5.2-0.1,7.4-1.4c0.9-0.5,1.7-1.2,2.3-2.1
					c0.6-0.9,0.9-1.9,1.3-2.8c0.4-1,0.9-1.8,1.8-2.4c0.9-0.6,1.8-1,2.7-1.6c1.7-1.4,2.3-3.8,1.5-5.8C198.3,11,196.4,11.5,196.9,12.6
					L196.9,12.6z"/>
			</g>
		</g>
		<g>
			<g>
				<path class="st10" d="M178.5,29.5c-0.1,0-0.2,0-0.3,0C178.2,29.5,178.3,29.5,178.5,29.5c-0.5-0.1-0.9-0.2-1.2-0.3
					c0.1,0,0.1,0.1,0.2,0.1c-0.2-0.1-0.4-0.2-0.5-0.3c-0.2-0.1-0.5-0.2-0.7-0.1c-0.2,0.1-0.5,0.2-0.6,0.4c-0.2,0.5-0.1,1,0.3,1.3
					c0.8,0.4,1.6,0.7,2.5,0.7c0.2,0,0.5-0.1,0.7-0.3c0.2-0.2,0.3-0.4,0.3-0.7c0-0.2-0.1-0.5-0.3-0.7C179,29.6,178.8,29.5,178.5,29.5
					L178.5,29.5z"/>
			</g>
		</g>
	</g>
	<g>
		<g>
			<path class="st10" d="M110.2,353.7c13.7,8.9,30,13.6,46.3,13.5c4.6,0,9.2-0.5,13.8-1.3c1.2-0.2,0.7-2-0.5-1.8
				c-15.7,2.8-32.2,0.9-46.8-5.6c-4.1-1.8-8-3.9-11.8-6.4C110.2,351.5,109.2,353.1,110.2,353.7L110.2,353.7z"/>
		</g>
	</g>
	<g>
		<g>
			<path class="st10" d="M140.9,379.4c15.5,2.9,31.8,0.1,45.4-7.9c1-0.6,0.1-2.2-1-1.6c-13.1,7.8-29,10.5-44,7.7
				C140.2,377.4,139.7,379.2,140.9,379.4L140.9,379.4z"/>
		</g>
	</g>
	<g>
		<g>
			<path class="st10" d="M194.5,367.1c0-0.1,0-0.2,0-0.3c0-0.1,0-0.3-0.1-0.4c0-0.1-0.1-0.2-0.2-0.3c-0.1-0.1-0.2-0.2-0.3-0.2
				c-0.1-0.1-0.2-0.1-0.4-0.1c-0.1,0-0.2,0-0.3,0c-0.2,0-0.3,0.1-0.4,0.2c0,0.1-0.1,0.1-0.1,0.2c-0.1,0.1-0.1,0.3-0.1,0.5
				c0,0.1,0,0.2,0,0.3c0,0.1,0,0.3,0.1,0.4c0,0.1,0.1,0.2,0.2,0.3c0.1,0.1,0.2,0.2,0.3,0.2c0.1,0.1,0.2,0.1,0.4,0.1
				c0.1,0,0.2,0,0.3,0c0.2,0,0.3-0.1,0.4-0.2c0-0.1,0.1-0.1,0.1-0.2C194.4,367.4,194.5,367.3,194.5,367.1L194.5,367.1z"/>
		</g>
	</g>
	<g>
		<g>
			<path class="st10" d="M149.8,134.2c8.9-3.1,18.2-4.5,27.6-4.4c1.2,0,1.2-1.9,0-1.9c-9.5-0.2-19,1.3-28.1,4.4
				C148.1,132.8,148.6,134.6,149.8,134.2L149.8,134.2z"/>
		</g>
	</g>
	<g>
		<g>
			<path class="st10" d="M168.1,120.6c3.2-0.3,6.4-0.7,9.7-1c0.5-0.1,0.9-0.4,0.9-0.9c0-0.5-0.4-1-0.9-0.9c-3.2,0.3-6.4,0.7-9.7,1
				c-0.5,0.1-0.9,0.4-0.9,0.9C167.1,120.1,167.6,120.6,168.1,120.6L168.1,120.6z"/>
		</g>
	</g>
	<g>
		<g>
			<path class="st10" d="M149.8,116.8c6.6-1.8,13.4-2.7,20.3-2.8c1.2,0,1.2-1.9,0-1.9c-7,0-14,1-20.8,2.8
				C148.1,115.3,148.6,117.1,149.8,116.8L149.8,116.8z"/>
		</g>
	</g>
	<circle class="st13" cx="158.4" cy="91.7" r="5"/>
</g>
<image style="overflow:visible;" width="620" height="399" xlink:href="AFAACD86.jpg"  transform="matrix(1 0 0 1 -8172 -8172)">
</image>
</svg>
