<?xml version="1.0" encoding="utf-8"?>
<!-- Generator: Adobe Illustrator 25.4.1, SVG Export Plug-In . SVG Version: 6.00 Build 0)  -->
<svg version="1.1" id="Layer_1" xmlns="http://www.w3.org/2000/svg" xmlns:xlink="http://www.w3.org/1999/xlink" x="0px" y="0px"
	 viewBox="0 0 231.4 12.4" style="enable-background:new 0 0 231.4 12.4;" xml:space="preserve">
<style type="text/css">
	.st0{fill:#22180E;}
</style>
<g>
	<g>
		<g>
			<path class="st0" d="M2.5,0.6C1.2,3.8,0,7,0,10.5c0,0.9,1.3,1.1,1.6,0.2c0.8-2.8,1.6-5.7,2.4-8.5C4.1,1.8,4.2,1.4,4.3,1
				C4.4,0.5,4,0,3.5,0C3.4,0,3.3,0,3.2,0c-1,0-1,1.6,0,1.6c0.1,0,0.2,0,0.3,0C3.3,1.3,3,0.9,2.7,0.6C1.9,3.4,1.2,6.2,0.4,9.1
				C0.3,9.5,0.1,9.9,0,10.3c0.5,0.1,1,0.1,1.6,0.2C1.6,7.2,2.8,4.1,4,1c0.2-0.4-0.2-0.9-0.6-1C3-0.1,2.6,0.2,2.5,0.6z"/>
		</g>
	</g>
	<g>
		<g>
			<path class="st0" d="M5.9,11.6c0.3-2,0.5-3.9,0.8-5.9c0-0.3,0.1-0.6,0.1-0.8C6.9,4.4,6.5,4.1,6.1,4C5.7,4,5.4,4.2,5.2,4.6
				C4.8,5.8,4.3,7,4,8.2C3.8,9.5,3.9,10.8,4.4,12c0.2,0.4,0.7,0.5,1.1,0.3C5.9,12,6,11.6,5.8,11.2C4.9,9.2,6,6.9,6.8,5
				C6.2,5,5.7,4.9,5.2,4.8c-0.3,2-0.5,3.9-0.8,5.9c0,0.3-0.1,0.6-0.1,0.8c-0.1,0.4,0.4,0.8,0.8,0.8C5.6,12.4,5.8,12,5.9,11.6z"/>
		</g>
	</g>
	<g>
		<g>
			<path class="st0" d="M5.7,0.8C5.6,2,5.4,3.2,5.3,4.3c0,0.2,0,0.3-0.1,0.5C5.1,5.2,5.5,5.6,5.9,5.6C6.3,5.7,6.6,5.4,6.8,5
				c0.5-1.4,1.1-2.8,1.2-4.2C8,0.4,7.5,0,7.1,0C6.9,0,6.7,0,6.5,0C6.1,0,5.7,0.4,5.7,0.8c0,0.4,0.4,0.8,0.8,0.8c0.2,0,0.4,0,0.6,0
				C6.9,1.3,6.6,1.1,6.3,0.8c0,0.1,0,0.2,0,0.3c0,0.2,0-0.1,0,0.1c0,0.2-0.1,0.3-0.1,0.5C6.1,2,6.1,2.3,6,2.6C5.8,3.3,5.5,4,5.2,4.6
				c0.5,0.1,1,0.1,1.6,0.2C7,3.7,7.1,2.5,7.3,1.3c0-0.2,0-0.3,0.1-0.5C7.4,0.4,6.9,0,6.5,0C6.1,0,5.8,0.4,5.7,0.8z"/>
		</g>
	</g>
	<g>
		<g>
			<path class="st0" d="M10.2,0.6C9,3.8,7.7,7,7.7,10.5c0,0.9,1.3,1.1,1.6,0.2c0.8-2.8,1.6-5.7,2.4-8.5C11.8,1.8,11.9,1.4,12,1
				c0.1-0.5-0.3-1-0.8-1c-0.1,0-0.2,0-0.3,0c-1,0-1,1.6,0,1.6c0.1,0,0.2,0,0.3,0c-0.3-0.3-0.5-0.7-0.8-1C9.7,3.4,8.9,6.2,8.1,9.1
				C8,9.5,7.9,9.9,7.8,10.3c0.5,0.1,1,0.1,1.6,0.2c0-3.3,1.2-6.4,2.4-9.5c0.2-0.4-0.2-0.9-0.6-1C10.7-0.1,10.4,0.2,10.2,0.6z"/>
		</g>
	</g>
	<g>
		<g>
			<path class="st0" d="M13.5,0.8C13.3,2,13.2,3.2,13,4.3c0,0.2,0,0.3-0.1,0.5c-0.1,0.4,0.3,0.7,0.7,0.8c0.4,0.1,0.7-0.2,0.9-0.6
				c0.5-1.4,1.1-2.8,1.2-4.2c0-0.4-0.4-0.8-0.8-0.8c-0.2,0-0.4,0-0.6,0C13.9,0,13.5,0.4,13.5,0.8c0,0.4,0.4,0.8,0.8,0.8
				c0.2,0,0.4,0,0.6,0c-0.3-0.3-0.5-0.5-0.8-0.8c0,0.1,0,0.2,0,0.3c0,0.2,0-0.1,0,0.1C14,1.3,14,1.5,14,1.7c-0.1,0.3-0.2,0.6-0.3,1
				c-0.2,0.7-0.5,1.3-0.7,2c0.5,0.1,1,0.1,1.6,0.2c0.2-1.2,0.3-2.4,0.5-3.5c0-0.2,0-0.3,0.1-0.5C15.1,0.4,14.7,0,14.3,0
				C13.8,0,13.5,0.4,13.5,0.8z"/>
		</g>
	</g>
	<g>
		<g>
			<path class="st0" d="M13.6,11.6c0.3-2,0.5-3.9,0.8-5.9c0-0.3,0.1-0.6,0.1-0.8c0.1-0.4-0.3-0.7-0.7-0.8C13.4,4,13.1,4.2,13,4.6
				c-0.5,1.2-1,2.4-1.2,3.6c-0.2,1.3-0.2,2.5,0.4,3.7c0.2,0.4,0.7,0.5,1.1,0.3c0.4-0.2,0.5-0.7,0.3-1.1c-0.9-2,0.2-4.3,1-6.1
				c-0.5-0.1-1-0.1-1.6-0.2c-0.3,2-0.5,3.9-0.8,5.9c0,0.3-0.1,0.6-0.1,0.8c-0.1,0.4,0.4,0.8,0.8,0.8C13.3,12.4,13.6,12,13.6,11.6z"
				/>
		</g>
	</g>
	<g>
		<g>
			<path class="st0" d="M17.9,0.6c-1.2,3.2-2.5,6.4-2.5,9.9c0,0.9,1.3,1.1,1.6,0.2c0.8-2.8,1.6-5.7,2.4-8.5c0.1-0.4,0.2-0.8,0.3-1.2
				c0.1-0.5-0.3-1-0.8-1c-0.1,0-0.2,0-0.3,0c-1,0-1,1.6,0,1.6c0.1,0,0.2,0,0.3,0c-0.3-0.3-0.5-0.7-0.8-1c-0.8,2.8-1.6,5.7-2.4,8.5
				c-0.1,0.4-0.2,0.8-0.3,1.2c0.5,0.1,1,0.1,1.6,0.2c0-3.3,1.2-6.4,2.4-9.5c0.2-0.4-0.2-0.9-0.6-1C18.5-0.1,18.1,0.2,17.9,0.6z"/>
		</g>
	</g>
	<g>
		<g>
			<path class="st0" d="M21.4,11.6c0.3-2,0.5-3.9,0.8-5.9c0-0.3,0.1-0.6,0.1-0.8c0.1-0.4-0.3-0.7-0.7-0.8c-0.4-0.1-0.7,0.2-0.9,0.6
				c-0.5,1.2-1,2.4-1.2,3.6c-0.2,1.3-0.2,2.5,0.4,3.7c0.2,0.4,0.7,0.5,1.1,0.3c0.4-0.2,0.5-0.7,0.3-1.1c-0.9-2,0.2-4.3,1-6.1
				c-0.5-0.1-1-0.1-1.6-0.2c-0.3,2-0.5,3.9-0.8,5.9c0,0.3-0.1,0.6-0.1,0.8c-0.1,0.4,0.4,0.8,0.8,0.8C21.1,12.4,21.3,12,21.4,11.6z"
				/>
		</g>
	</g>
	<g>
		<g>
			<path class="st0" d="M21.2,0.8c-0.2,1.2-0.3,2.4-0.5,3.5c0,0.2,0,0.3-0.1,0.5c-0.1,0.4,0.3,0.7,0.7,0.8c0.4,0.1,0.7-0.2,0.9-0.6
				c0.5-1.4,1.1-2.8,1.2-4.2C23.5,0.4,23,0,22.6,0c-0.2,0-0.4,0-0.6,0C21.6,0,21.2,0.4,21.2,0.8c0,0.4,0.4,0.8,0.8,0.8
				c0.2,0,0.4,0,0.6,0c-0.3-0.3-0.5-0.5-0.8-0.8c0,0.1,0,0.2,0,0.3c0,0.2,0-0.1,0,0.1c0,0.2-0.1,0.3-0.1,0.5c-0.1,0.3-0.2,0.6-0.3,1
				c-0.2,0.7-0.5,1.3-0.7,2c0.5,0.1,1,0.1,1.6,0.2c0.2-1.2,0.3-2.4,0.5-3.5c0-0.2,0-0.3,0.1-0.5C22.9,0.4,22.4,0,22,0
				C21.5,0,21.3,0.4,21.2,0.8z"/>
		</g>
	</g>
	<g>
		<g>
			<path class="st0" d="M25.7,0.6c-1.2,3.2-2.5,6.4-2.5,9.9c0,0.9,1.3,1.1,1.6,0.2c0.8-2.8,1.6-5.7,2.4-8.5c0.1-0.4,0.2-0.8,0.3-1.2
				c0.1-0.5-0.3-1-0.8-1c-0.1,0-0.2,0-0.3,0c-1,0-1,1.6,0,1.6c0.1,0,0.2,0,0.3,0c-0.3-0.3-0.5-0.7-0.8-1c-0.8,2.8-1.6,5.7-2.4,8.5
				c-0.1,0.4-0.2,0.8-0.3,1.2c0.5,0.1,1,0.1,1.6,0.2c0-3.3,1.2-6.4,2.4-9.5c0.2-0.4-0.2-0.9-0.6-1C26.2-0.1,25.8,0.2,25.7,0.6z"/>
		</g>
	</g>
	<g>
		<g>
			<path class="st0" d="M29.1,11.6c0.3-2,0.5-3.9,0.8-5.9C30,5.4,30,5.1,30,4.8c0.1-0.4-0.3-0.7-0.7-0.8c-0.4-0.1-0.7,0.2-0.9,0.6
				c-0.5,1.2-1,2.4-1.2,3.6c-0.2,1.3-0.2,2.5,0.4,3.7c0.2,0.4,0.7,0.5,1.1,0.3c0.4-0.2,0.5-0.7,0.3-1.1c-0.9-2,0.2-4.3,1-6.1
				c-0.5-0.1-1-0.1-1.6-0.2c-0.3,2-0.5,3.9-0.8,5.9c0,0.3-0.1,0.6-0.1,0.8c-0.1,0.4,0.4,0.8,0.8,0.8C28.8,12.4,29.1,12,29.1,11.6z"
				/>
		</g>
	</g>
	<g>
		<g>
			<path class="st0" d="M29,0.8c-0.2,1.2-0.3,2.4-0.5,3.5c0,0.2,0,0.3-0.1,0.5c-0.1,0.4,0.3,0.7,0.7,0.8C29.6,5.7,29.9,5.4,30,5
				c0.5-1.4,1.1-2.8,1.2-4.2c0-0.4-0.4-0.8-0.8-0.8c-0.2,0-0.4,0-0.6,0C29.4,0,29,0.4,29,0.8c0,0.4,0.4,0.8,0.8,0.8
				c0.2,0,0.4,0,0.6,0c-0.3-0.3-0.5-0.5-0.8-0.8c0,0.1,0,0.2,0,0.3c0,0.2,0-0.1,0,0.1c0,0.2-0.1,0.3-0.1,0.5c-0.1,0.3-0.2,0.6-0.3,1
				c-0.2,0.7-0.5,1.3-0.7,2c0.5,0.1,1,0.1,1.6,0.2c0.2-1.2,0.3-2.4,0.5-3.5c0-0.2,0-0.3,0.1-0.5C30.6,0.4,30.2,0,29.8,0
				C29.3,0,29,0.4,29,0.8z"/>
		</g>
	</g>
	<g>
		<g>
			<path class="st0" d="M33.4,0.6C32.2,3.8,30.9,7,31,10.5c0,0.9,1.3,1.1,1.6,0.2c0.8-2.8,1.6-5.7,2.4-8.5C35,1.8,35.1,1.4,35.3,1
				c0.1-0.5-0.3-1-0.8-1c-0.1,0-0.2,0-0.3,0c-1,0-1,1.6,0,1.6c0.1,0,0.2,0,0.3,0c-0.3-0.3-0.5-0.7-0.8-1c-0.8,2.8-1.6,5.7-2.4,8.5
				c-0.1,0.4-0.2,0.8-0.3,1.2c0.5,0.1,1,0.1,1.6,0.2c0-3.3,1.2-6.4,2.4-9.5c0.2-0.4-0.2-0.9-0.6-1C34-0.1,33.6,0.2,33.4,0.6z"/>
		</g>
	</g>
	<g>
		<g>
			<path class="st0" d="M36.9,11.6c0.3-2,0.5-3.9,0.8-5.9c0-0.3,0.1-0.6,0.1-0.8c0.1-0.4-0.3-0.7-0.7-0.8c-0.4-0.1-0.7,0.2-0.9,0.6
				c-0.5,1.2-1,2.4-1.2,3.6c-0.2,1.3-0.2,2.5,0.4,3.7c0.2,0.4,0.7,0.5,1.1,0.3c0.4-0.2,0.5-0.7,0.3-1.1c-0.9-2,0.2-4.3,1-6.1
				c-0.5-0.1-1-0.1-1.6-0.2c-0.3,2-0.5,3.9-0.8,5.9c0,0.3-0.1,0.6-0.1,0.8c-0.1,0.4,0.4,0.8,0.8,0.8C36.6,12.4,36.8,12,36.9,11.6z"
				/>
		</g>
	</g>
	<g>
		<g>
			<path class="st0" d="M36.7,0.8c-0.2,1.2-0.3,2.4-0.5,3.5c0,0.2,0,0.3-0.1,0.5c-0.1,0.4,0.3,0.7,0.7,0.8c0.4,0.1,0.7-0.2,0.9-0.6
				c0.5-1.4,1.1-2.8,1.2-4.2C39,0.4,38.5,0,38.1,0c-0.2,0-0.4,0-0.6,0C37.1,0,36.7,0.4,36.7,0.8c0,0.4,0.4,0.8,0.8,0.8
				c0.2,0,0.4,0,0.6,0c-0.3-0.3-0.5-0.5-0.8-0.8c0,0.1,0,0.2,0,0.3c0,0.2,0-0.1,0,0.1c0,0.2-0.1,0.3-0.1,0.5c-0.1,0.3-0.2,0.6-0.3,1
				c-0.2,0.7-0.5,1.3-0.7,2c0.5,0.1,1,0.1,1.6,0.2c0.2-1.2,0.3-2.4,0.5-3.5c0-0.2,0-0.3,0.1-0.5C38.4,0.4,37.9,0,37.5,0
				C37,0,36.8,0.4,36.7,0.8z"/>
		</g>
	</g>
	<g>
		<g>
			<path class="st0" d="M41.2,0.6C40,3.8,38.7,7,38.7,10.5c0,0.9,1.3,1.1,1.6,0.2c0.8-2.8,1.6-5.7,2.4-8.5C42.8,1.8,42.9,1.4,43,1
				c0.1-0.5-0.3-1-0.8-1C42.1,0,42,0,42,0c-1,0-1,1.6,0,1.6c0.1,0,0.2,0,0.3,0c-0.3-0.3-0.5-0.7-0.8-1c-0.8,2.8-1.6,5.7-2.4,8.5
				c-0.1,0.4-0.2,0.8-0.3,1.2c0.5,0.1,1,0.1,1.6,0.2c0-3.3,1.2-6.4,2.4-9.5c0.2-0.4-0.2-0.9-0.6-1C41.7-0.1,41.3,0.2,41.2,0.6z"/>
		</g>
	</g>
	<g>
		<g>
			<path class="st0" d="M44.6,11.6c0.3-2,0.5-3.9,0.8-5.9c0-0.3,0.1-0.6,0.1-0.8c0.1-0.4-0.3-0.7-0.7-0.8C44.4,4,44.1,4.2,44,4.6
				c-0.5,1.2-1,2.4-1.2,3.6c-0.2,1.3-0.2,2.5,0.4,3.7c0.2,0.4,0.7,0.5,1.1,0.3c0.4-0.2,0.5-0.7,0.3-1.1c-0.9-2,0.2-4.3,1-6.1
				c-0.5-0.1-1-0.1-1.6-0.2c-0.3,2-0.5,3.9-0.8,5.9c0,0.3-0.1,0.6-0.1,0.8c-0.1,0.4,0.4,0.8,0.8,0.8C44.3,12.4,44.6,12,44.6,11.6z"
				/>
		</g>
	</g>
	<g>
		<g>
			<path class="st0" d="M44.5,0.8C44.3,2,44.2,3.2,44,4.3c0,0.2,0,0.3-0.1,0.5c-0.1,0.4,0.3,0.7,0.7,0.8C45,5.7,45.3,5.4,45.5,5
				c0.5-1.4,1.1-2.8,1.2-4.2c0-0.4-0.4-0.8-0.8-0.8c-0.2,0-0.4,0-0.6,0C44.8,0,44.4,0.4,44.5,0.8c0,0.4,0.4,0.8,0.8,0.8
				c0.2,0,0.4,0,0.6,0c-0.3-0.3-0.5-0.5-0.8-0.8c0,0.1,0,0.2,0,0.3c0,0.2,0-0.1,0,0.1c0,0.2-0.1,0.3-0.1,0.5c-0.1,0.3-0.2,0.6-0.3,1
				c-0.2,0.7-0.5,1.3-0.7,2c0.5,0.1,1,0.1,1.6,0.2c0.2-1.2,0.3-2.4,0.5-3.5c0-0.2,0-0.3,0.1-0.5C46.1,0.4,45.7,0,45.3,0
				C44.8,0,44.5,0.4,44.5,0.8z"/>
		</g>
	</g>
	<g>
		<g>
			<path class="st0" d="M48.9,0.6c-1.2,3.2-2.5,6.4-2.5,9.9c0,0.9,1.3,1.1,1.6,0.2c0.8-2.8,1.6-5.7,2.4-8.5c0.1-0.4,0.2-0.8,0.3-1.2
				c0.1-0.5-0.3-1-0.8-1c-0.1,0-0.2,0-0.3,0c-1,0-1,1.6,0,1.6c0.1,0,0.2,0,0.3,0c-0.3-0.3-0.5-0.7-0.8-1c-0.8,2.8-1.6,5.7-2.4,8.5
				c-0.1,0.4-0.2,0.8-0.3,1.2c0.5,0.1,1,0.1,1.6,0.2c0-3.3,1.2-6.4,2.4-9.5c0.2-0.4-0.2-0.9-0.6-1C49.5-0.1,49.1,0.2,48.9,0.6z"/>
		</g>
	</g>
	<g>
		<g>
			<path class="st0" d="M52.4,11.6c0.3-2,0.5-3.9,0.8-5.9c0-0.3,0.1-0.6,0.1-0.8c0.1-0.4-0.3-0.7-0.7-0.8c-0.4-0.1-0.7,0.2-0.9,0.6
				c-0.5,1.2-1,2.4-1.2,3.6c-0.2,1.3-0.2,2.5,0.4,3.7c0.2,0.4,0.7,0.5,1.1,0.3c0.4-0.2,0.5-0.7,0.3-1.1c-0.9-2,0.2-4.3,1-6.1
				c-0.5-0.1-1-0.1-1.6-0.2c-0.3,2-0.5,3.9-0.8,5.9c0,0.3-0.1,0.6-0.1,0.8c-0.1,0.4,0.4,0.8,0.8,0.8C52.1,12.4,52.3,12,52.4,11.6z"
				/>
		</g>
	</g>
	<g>
		<g>
			<path class="st0" d="M52.2,0.8c-0.2,1.2-0.3,2.4-0.5,3.5c0,0.2,0,0.3-0.1,0.5c-0.1,0.4,0.3,0.7,0.7,0.8c0.4,0.1,0.7-0.2,0.9-0.6
				c0.5-1.4,1.1-2.8,1.2-4.2C54.4,0.4,54,0,53.6,0c-0.2,0-0.4,0-0.6,0C52.6,0,52.2,0.4,52.2,0.8c0,0.4,0.4,0.8,0.8,0.8
				c0.2,0,0.4,0,0.6,0c-0.3-0.3-0.5-0.5-0.8-0.8c0,0.1,0,0.2,0,0.3c0,0.2,0-0.1,0,0.1c0,0.2-0.1,0.3-0.1,0.5c-0.1,0.3-0.2,0.6-0.3,1
				c-0.2,0.7-0.5,1.3-0.7,2c0.5,0.1,1,0.1,1.6,0.2c0.2-1.2,0.3-2.4,0.5-3.5c0-0.2,0-0.3,0.1-0.5C53.9,0.4,53.4,0,53,0
				C52.5,0,52.3,0.4,52.2,0.8z"/>
		</g>
	</g>
	<g>
		<g>
			<path class="st0" d="M56.7,0.6c-1.2,3.2-2.5,6.4-2.5,9.9c0,0.9,1.3,1.1,1.6,0.2c0.8-2.8,1.6-5.7,2.4-8.5c0.1-0.4,0.2-0.8,0.3-1.2
				c0.1-0.5-0.3-1-0.8-1c-0.1,0-0.2,0-0.3,0c-1,0-1,1.6,0,1.6c0.1,0,0.2,0,0.3,0c-0.3-0.3-0.5-0.7-0.8-1c-0.8,2.8-1.6,5.7-2.4,8.5
				c-0.1,0.4-0.2,0.8-0.3,1.2c0.5,0.1,1,0.1,1.6,0.2c0-3.3,1.2-6.4,2.4-9.5c0.2-0.4-0.2-0.9-0.6-1C57.2-0.1,56.8,0.2,56.7,0.6z"/>
		</g>
	</g>
	<g>
		<g>
			<path class="st0" d="M60.1,11.6c0.3-2,0.5-3.9,0.8-5.9c0-0.3,0.1-0.6,0.1-0.8c0.1-0.4-0.3-0.7-0.7-0.8c-0.4-0.1-0.7,0.2-0.9,0.6
				c-0.5,1.2-1,2.4-1.2,3.6c-0.2,1.3-0.2,2.5,0.4,3.7c0.2,0.4,0.7,0.5,1.1,0.3c0.4-0.2,0.5-0.7,0.3-1.1c-0.9-2,0.2-4.3,1-6.1
				c-0.5-0.1-1-0.1-1.6-0.2c-0.3,2-0.5,3.9-0.8,5.9c0,0.3-0.1,0.6-0.1,0.8c-0.1,0.4,0.4,0.8,0.8,0.8C59.8,12.4,60.1,12,60.1,11.6z"
				/>
		</g>
	</g>
	<g>
		<g>
			<path class="st0" d="M60,0.8c-0.2,1.2-0.3,2.4-0.5,3.5c0,0.2,0,0.3-0.1,0.5c-0.1,0.4,0.3,0.7,0.7,0.8C60.5,5.7,60.8,5.4,61,5
				c0.5-1.4,1.1-2.8,1.2-4.2c0-0.4-0.4-0.8-0.8-0.8c-0.2,0-0.4,0-0.6,0C60.3,0,59.9,0.4,60,0.8c0,0.4,0.4,0.8,0.8,0.8
				c0.2,0,0.4,0,0.6,0c-0.3-0.3-0.5-0.5-0.8-0.8c0,0.1,0,0.2,0,0.3c0,0.2,0-0.1,0,0.1c0,0.2-0.1,0.3-0.1,0.5c-0.1,0.3-0.2,0.6-0.3,1
				c-0.2,0.7-0.5,1.3-0.7,2c0.5,0.1,1,0.1,1.6,0.2c0.2-1.2,0.3-2.4,0.5-3.5c0-0.2,0-0.3,0.1-0.5C61.6,0.4,61.1,0,60.8,0
				C60.3,0,60,0.4,60,0.8z"/>
		</g>
	</g>
	<g>
		<g>
			<path class="st0" d="M64.4,0.6C63.2,3.8,61.9,7,62,10.5c0,0.9,1.3,1.1,1.6,0.2c0.8-2.8,1.6-5.7,2.4-8.5C66,1.8,66.1,1.4,66.2,1
				c0.1-0.5-0.3-1-0.8-1c-0.1,0-0.2,0-0.3,0c-1,0-1,1.6,0,1.6c0.1,0,0.2,0,0.3,0c-0.3-0.3-0.5-0.7-0.8-1c-0.8,2.8-1.6,5.7-2.4,8.5
				c-0.1,0.4-0.2,0.8-0.3,1.2c0.5,0.1,1,0.1,1.6,0.2c0-3.3,1.2-6.4,2.4-9.5c0.2-0.4-0.2-0.9-0.6-1C65-0.1,64.6,0.2,64.4,0.6z"/>
		</g>
	</g>
	<g>
		<g>
			<path class="st0" d="M67.9,11.6c0.3-2,0.5-3.9,0.8-5.9c0-0.3,0.1-0.6,0.1-0.8c0.1-0.4-0.3-0.7-0.7-0.8c-0.4-0.1-0.7,0.2-0.9,0.6
				c-0.5,1.2-1,2.4-1.2,3.6c-0.2,1.3-0.2,2.5,0.4,3.7c0.2,0.4,0.7,0.5,1.1,0.3c0.4-0.2,0.5-0.7,0.3-1.1c-0.9-2,0.2-4.3,1-6.1
				c-0.5-0.1-1-0.1-1.6-0.2c-0.3,2-0.5,3.9-0.8,5.9c0,0.3-0.1,0.6-0.1,0.8c-0.1,0.4,0.4,0.8,0.8,0.8C67.5,12.4,67.8,12,67.9,11.6z"
				/>
		</g>
	</g>
	<g>
		<g>
			<path class="st0" d="M67.7,0.8c-0.2,1.2-0.3,2.4-0.5,3.5c0,0.2,0,0.3-0.1,0.5c-0.1,0.4,0.3,0.7,0.7,0.8c0.4,0.1,0.7-0.2,0.9-0.6
				c0.5-1.4,1.1-2.8,1.2-4.2c0-0.4-0.4-0.8-0.8-0.8c-0.2,0-0.4,0-0.6,0C68.1,0,67.7,0.4,67.7,0.8c0,0.4,0.4,0.8,0.8,0.8
				c0.2,0,0.4,0,0.6,0c-0.3-0.3-0.5-0.5-0.8-0.8c0,0.1,0,0.2,0,0.3c0,0.2,0-0.1,0,0.1c0,0.2-0.1,0.3-0.1,0.5c-0.1,0.3-0.2,0.6-0.3,1
				c-0.2,0.7-0.5,1.3-0.7,2c0.5,0.1,1,0.1,1.6,0.2c0.2-1.2,0.3-2.4,0.5-3.5c0-0.2,0-0.3,0.1-0.5C69.4,0.4,68.9,0,68.5,0
				C68,0,67.8,0.4,67.7,0.8z"/>
		</g>
	</g>
	<g>
		<g>
			<path class="st0" d="M72.2,0.6c-1.2,3.2-2.5,6.4-2.5,9.9c0,0.9,1.3,1.1,1.6,0.2c0.8-2.8,1.6-5.7,2.4-8.5C73.8,1.8,73.9,1.4,74,1
				c0.1-0.5-0.3-1-0.8-1c-0.1,0-0.2,0-0.3,0c-1,0-1,1.6,0,1.6c0.1,0,0.2,0,0.3,0c-0.3-0.3-0.5-0.7-0.8-1c-0.8,2.8-1.6,5.7-2.4,8.5
				c-0.1,0.4-0.2,0.8-0.3,1.2c0.5,0.1,1,0.1,1.6,0.2c0-3.3,1.2-6.4,2.4-9.5c0.2-0.4-0.2-0.9-0.6-1C72.7-0.1,72.3,0.2,72.2,0.6z"/>
		</g>
	</g>
	<g>
		<g>
			<path class="st0" d="M75.4,0.8C75.3,2,75.1,3.2,75,4.3c0,0.2,0,0.3-0.1,0.5c-0.1,0.4,0.3,0.7,0.7,0.8C76,5.7,76.3,5.4,76.5,5
				c0.5-1.4,1.1-2.8,1.2-4.2c0-0.4-0.4-0.8-0.8-0.8c-0.2,0-0.4,0-0.6,0C75.8,0,75.4,0.4,75.4,0.8c0,0.4,0.4,0.8,0.8,0.8
				c0.2,0,0.4,0,0.6,0c-0.3-0.3-0.5-0.5-0.8-0.8c0,0.1,0,0.2,0,0.3c0,0.2,0-0.1,0,0.1c0,0.2-0.1,0.3-0.1,0.5c-0.1,0.3-0.2,0.6-0.3,1
				c-0.2,0.7-0.5,1.3-0.7,2c0.5,0.1,1,0.1,1.6,0.2c0.2-1.2,0.3-2.4,0.5-3.5C77,1.1,77,1,77,0.8C77.1,0.4,76.6,0,76.2,0
				C75.8,0,75.5,0.4,75.4,0.8z"/>
		</g>
	</g>
	<g>
		<g>
			<path class="st0" d="M75.6,11.6c0.3-2,0.5-3.9,0.8-5.9c0-0.3,0.1-0.6,0.1-0.8c0.1-0.4-0.3-0.7-0.7-0.8c-0.4-0.1-0.7,0.2-0.9,0.6
				c-0.5,1.2-1,2.4-1.2,3.6c-0.2,1.3-0.2,2.5,0.4,3.7c0.2,0.4,0.7,0.5,1.1,0.3c0.4-0.2,0.5-0.7,0.3-1.1c-0.9-2,0.2-4.3,1-6.1
				c-0.5-0.1-1-0.1-1.6-0.2c-0.3,2-0.5,3.9-0.8,5.9c0,0.3-0.1,0.6-0.1,0.8c-0.1,0.4,0.4,0.8,0.8,0.8C75.3,12.4,75.6,12,75.6,11.6z"
				/>
		</g>
	</g>
	<g>
		<g>
			<path class="st0" d="M79.9,0.6c-1.2,3.2-2.5,6.4-2.5,9.9c0,0.9,1.3,1.1,1.6,0.2c0.8-2.8,1.6-5.7,2.4-8.5c0.1-0.4,0.2-0.8,0.3-1.2
				c0.1-0.5-0.3-1-0.8-1c-0.1,0-0.2,0-0.3,0c-1,0-1,1.6,0,1.6c0.1,0,0.2,0,0.3,0c-0.3-0.3-0.5-0.7-0.8-1c-0.8,2.8-1.6,5.7-2.4,8.5
				c-0.1,0.4-0.2,0.8-0.3,1.2c0.5,0.1,1,0.1,1.6,0.2c0-3.3,1.2-6.4,2.4-9.5c0.2-0.4-0.2-0.9-0.6-1C80.4-0.1,80.1,0.2,79.9,0.6z"/>
		</g>
	</g>
	<g>
		<g>
			<path class="st0" d="M83.4,11.6c0.3-2,0.5-3.9,0.8-5.9c0-0.3,0.1-0.6,0.1-0.8c0.1-0.4-0.3-0.7-0.7-0.8c-0.4-0.1-0.7,0.2-0.9,0.6
				c-0.5,1.2-1,2.4-1.2,3.6c-0.2,1.3-0.2,2.5,0.4,3.7c0.2,0.4,0.7,0.5,1.1,0.3c0.4-0.2,0.5-0.7,0.3-1.1c-0.9-2,0.2-4.3,1-6.1
				c-0.5-0.1-1-0.1-1.6-0.2c-0.3,2-0.5,3.9-0.8,5.9c0,0.3-0.1,0.6-0.1,0.8c-0.1,0.4,0.4,0.8,0.8,0.8C83,12.4,83.3,12,83.4,11.6z"/>
		</g>
	</g>
	<g>
		<g>
			<path class="st0" d="M83.2,0.8C83,2,82.9,3.2,82.7,4.3c0,0.2,0,0.3-0.1,0.5c-0.1,0.4,0.3,0.7,0.7,0.8c0.4,0.1,0.7-0.2,0.9-0.6
				c0.5-1.4,1.1-2.8,1.2-4.2C85.4,0.4,85,0,84.6,0c-0.2,0-0.4,0-0.6,0C83.6,0,83.2,0.4,83.2,0.8c0,0.4,0.4,0.8,0.8,0.8
				c0.2,0,0.4,0,0.6,0c-0.3-0.3-0.5-0.5-0.8-0.8c0,0.1,0,0.2,0,0.3c0,0.2,0-0.1,0,0.1c0,0.2-0.1,0.3-0.1,0.5c-0.1,0.3-0.2,0.6-0.3,1
				c-0.2,0.7-0.5,1.3-0.7,2c0.5,0.1,1,0.1,1.6,0.2c0.2-1.2,0.3-2.4,0.5-3.5c0-0.2,0-0.3,0.1-0.5C84.8,0.4,84.4,0,84,0
				C83.5,0,83.3,0.4,83.2,0.8z"/>
		</g>
	</g>
	<g>
		<g>
			<path class="st0" d="M87.7,0.6c-1.2,3.2-2.5,6.4-2.5,9.9c0,0.9,1.3,1.1,1.6,0.2c0.8-2.8,1.6-5.7,2.4-8.5c0.1-0.4,0.2-0.8,0.3-1.2
				c0.1-0.5-0.3-1-0.8-1c-0.1,0-0.2,0-0.3,0c-1,0-1,1.6,0,1.6c0.1,0,0.2,0,0.3,0c-0.3-0.3-0.5-0.7-0.8-1c-0.8,2.8-1.6,5.7-2.4,8.5
				c-0.1,0.4-0.2,0.8-0.3,1.2c0.5,0.1,1,0.1,1.6,0.2c0-3.3,1.2-6.4,2.4-9.5c0.2-0.4-0.2-0.9-0.6-1C88.2-0.1,87.8,0.2,87.7,0.6z"/>
		</g>
	</g>
	<g>
		<g>
			<path class="st0" d="M91.1,11.6c0.3-2,0.5-3.9,0.8-5.9c0-0.3,0.1-0.6,0.1-0.8c0.1-0.4-0.3-0.7-0.7-0.8c-0.4-0.1-0.7,0.2-0.9,0.6
				c-0.5,1.2-1,2.4-1.2,3.6c-0.2,1.3-0.2,2.5,0.4,3.7c0.2,0.4,0.7,0.5,1.1,0.3c0.4-0.2,0.5-0.7,0.3-1.1c-0.9-2,0.2-4.3,1-6.1
				c-0.5-0.1-1-0.1-1.6-0.2c-0.3,2-0.5,3.9-0.8,5.9c0,0.3-0.1,0.6-0.1,0.8c-0.1,0.4,0.4,0.8,0.8,0.8C90.8,12.4,91,12,91.1,11.6z"/>
		</g>
	</g>
	<g>
		<g>
			<path class="st0" d="M90.9,0.8c-0.2,1.2-0.3,2.4-0.5,3.5c0,0.2,0,0.3-0.1,0.5c-0.1,0.4,0.3,0.7,0.7,0.8C91.5,5.7,91.8,5.4,92,5
				c0.5-1.4,1.1-2.8,1.2-4.2c0-0.4-0.4-0.8-0.8-0.8c-0.2,0-0.4,0-0.6,0C91.3,0,90.9,0.4,90.9,0.8c0,0.4,0.4,0.8,0.8,0.8
				c0.2,0,0.4,0,0.6,0c-0.3-0.3-0.5-0.5-0.8-0.8c0,0.1,0,0.2,0,0.3c0,0.2,0-0.1,0,0.1c0,0.2-0.1,0.3-0.1,0.5c-0.1,0.3-0.2,0.6-0.3,1
				c-0.2,0.7-0.5,1.3-0.7,2c0.5,0.1,1,0.1,1.6,0.2c0.2-1.2,0.3-2.4,0.5-3.5c0-0.2,0-0.3,0.1-0.5C92.6,0.4,92.1,0,91.7,0
				C91.3,0,91,0.4,90.9,0.8z"/>
		</g>
	</g>
	<g>
		<g>
			<path class="st0" d="M95.4,0.6c-1.2,3.2-2.5,6.4-2.5,9.9c0,0.9,1.3,1.1,1.6,0.2c0.8-2.8,1.6-5.7,2.4-8.5C97,1.8,97.1,1.4,97.2,1
				c0.1-0.5-0.3-1-0.8-1c-0.1,0-0.2,0-0.3,0c-1,0-1,1.6,0,1.6c0.1,0,0.2,0,0.3,0c-0.3-0.3-0.5-0.7-0.8-1c-0.8,2.8-1.6,5.7-2.4,8.5
				c-0.1,0.4-0.2,0.8-0.3,1.2c0.5,0.1,1,0.1,1.6,0.2c0-3.3,1.2-6.4,2.4-9.5c0.2-0.4-0.2-0.9-0.6-1C95.9-0.1,95.6,0.2,95.4,0.6z"/>
		</g>
	</g>
	<g>
		<g>
			<path class="st0" d="M98.8,11.6c0.3-2,0.5-3.9,0.8-5.9c0-0.3,0.1-0.6,0.1-0.8c0.1-0.4-0.3-0.7-0.7-0.8c-0.4-0.1-0.7,0.2-0.9,0.6
				c-0.5,1.2-1,2.4-1.2,3.6c-0.2,1.3-0.2,2.5,0.4,3.7c0.2,0.4,0.7,0.5,1.1,0.3c0.4-0.2,0.5-0.7,0.3-1.1c-0.9-2,0.2-4.3,1-6.1
				c-0.5-0.1-1-0.1-1.6-0.2c-0.3,2-0.5,3.9-0.8,5.9c0,0.3-0.1,0.6-0.1,0.8c-0.1,0.4,0.4,0.8,0.8,0.8C98.5,12.4,98.8,12,98.8,11.6z"
				/>
		</g>
	</g>
	<g>
		<g>
			<path class="st0" d="M98.7,0.8c-0.2,1.2-0.3,2.4-0.5,3.5c0,0.2,0,0.3-0.1,0.5c-0.1,0.4,0.3,0.7,0.7,0.8c0.4,0.1,0.7-0.2,0.9-0.6
				c0.5-1.4,1.1-2.8,1.2-4.2c0-0.4-0.4-0.8-0.8-0.8c-0.2,0-0.4,0-0.6,0C99.1,0,98.7,0.4,98.7,0.8c0,0.4,0.4,0.8,0.8,0.8
				c0.2,0,0.4,0,0.6,0c-0.3-0.3-0.5-0.5-0.8-0.8c0,0.1,0,0.2,0,0.3c0,0.2,0-0.1,0,0.1c0,0.2-0.1,0.3-0.1,0.5c-0.1,0.3-0.2,0.6-0.3,1
				c-0.2,0.7-0.5,1.3-0.7,2c0.5,0.1,1,0.1,1.6,0.2c0.2-1.2,0.3-2.4,0.5-3.5c0-0.2,0-0.3,0.1-0.5c0.1-0.4-0.4-0.8-0.8-0.8
				C99,0,98.7,0.4,98.7,0.8z"/>
		</g>
	</g>
	<g>
		<g>
			<path class="st0" d="M103.1,0.6c-1.2,3.2-2.5,6.4-2.5,9.9c0,0.9,1.3,1.1,1.6,0.2c0.8-2.8,1.6-5.7,2.4-8.5
				c0.1-0.4,0.2-0.8,0.3-1.2c0.1-0.5-0.3-1-0.8-1c-0.1,0-0.2,0-0.3,0c-1,0-1,1.6,0,1.6c0.1,0,0.2,0,0.3,0c-0.3-0.3-0.5-0.7-0.8-1
				c-0.8,2.8-1.6,5.7-2.4,8.5c-0.1,0.4-0.2,0.8-0.3,1.2c0.5,0.1,1,0.1,1.6,0.2c0-3.3,1.2-6.4,2.4-9.5c0.2-0.4-0.2-0.9-0.6-1
				C103.7-0.1,103.3,0.2,103.1,0.6z"/>
		</g>
	</g>
	<g>
		<g>
			<path class="st0" d="M106.6,11.6c0.3-2,0.5-3.9,0.8-5.9c0-0.3,0.1-0.6,0.1-0.8c0.1-0.4-0.3-0.7-0.7-0.8c-0.4-0.1-0.7,0.2-0.9,0.6
				c-0.5,1.2-1,2.4-1.2,3.6c-0.2,1.3-0.2,2.5,0.4,3.7c0.2,0.4,0.7,0.5,1.1,0.3c0.4-0.2,0.5-0.7,0.3-1.1c-0.9-2,0.2-4.3,1-6.1
				c-0.5-0.1-1-0.1-1.6-0.2c-0.3,2-0.5,3.9-0.8,5.9c0,0.3-0.1,0.6-0.1,0.8c-0.1,0.4,0.4,0.8,0.8,0.8C106.3,12.4,106.5,12,106.6,11.6
				z"/>
		</g>
	</g>
	<g>
		<g>
			<path class="st0" d="M106.4,0.8c-0.2,1.2-0.3,2.4-0.5,3.5c0,0.2,0,0.3-0.1,0.5c-0.1,0.4,0.3,0.7,0.7,0.8c0.4,0.1,0.7-0.2,0.9-0.6
				c0.5-1.4,1.1-2.8,1.2-4.2c0-0.4-0.4-0.8-0.8-0.8c-0.2,0-0.4,0-0.6,0C106.8,0,106.4,0.4,106.4,0.8c0,0.4,0.4,0.8,0.8,0.8
				c0.2,0,0.4,0,0.6,0c-0.3-0.3-0.5-0.5-0.8-0.8c0,0.1,0,0.2,0,0.3c0,0.2,0-0.1,0,0.1c0,0.2-0.1,0.3-0.1,0.5c-0.1,0.3-0.2,0.6-0.3,1
				c-0.2,0.7-0.5,1.3-0.7,2c0.5,0.1,1,0.1,1.6,0.2c0.2-1.2,0.3-2.4,0.5-3.5c0-0.2,0-0.3,0.1-0.5c0.1-0.4-0.4-0.8-0.8-0.8
				C106.7,0,106.5,0.4,106.4,0.8z"/>
		</g>
	</g>
	<g>
		<g>
			<path class="st0" d="M110.9,0.6c-1.2,3.2-2.5,6.4-2.5,9.9c0,0.9,1.3,1.1,1.6,0.2c0.8-2.8,1.6-5.7,2.4-8.5
				c0.1-0.4,0.2-0.8,0.3-1.2c0.1-0.5-0.3-1-0.8-1c-0.1,0-0.2,0-0.3,0c-1,0-1,1.6,0,1.6c0.1,0,0.2,0,0.3,0c-0.3-0.3-0.5-0.7-0.8-1
				c-0.8,2.8-1.6,5.7-2.4,8.5c-0.1,0.4-0.2,0.8-0.3,1.2c0.5,0.1,1,0.1,1.6,0.2c0-3.3,1.2-6.4,2.4-9.5c0.2-0.4-0.2-0.9-0.6-1
				C111.4-0.1,111,0.2,110.9,0.6z"/>
		</g>
	</g>
	<g>
		<g>
			<path class="st0" d="M114.3,11.6c0.3-2,0.5-3.9,0.8-5.9c0-0.3,0.1-0.6,0.1-0.8c0.1-0.4-0.3-0.7-0.7-0.8c-0.4-0.1-0.7,0.2-0.9,0.6
				c-0.5,1.2-1,2.4-1.2,3.6c-0.2,1.3-0.2,2.5,0.4,3.7c0.2,0.4,0.7,0.5,1.1,0.3c0.4-0.2,0.5-0.7,0.3-1.1c-0.9-2,0.2-4.3,1-6.1
				c-0.5-0.1-1-0.1-1.6-0.2c-0.3,2-0.5,3.9-0.8,5.9c0,0.3-0.1,0.6-0.1,0.8c-0.1,0.4,0.4,0.8,0.8,0.8C114,12.4,114.3,12,114.3,11.6z"
				/>
		</g>
	</g>
	<g>
		<g>
			<path class="st0" d="M114.2,0.8c-0.2,1.2-0.3,2.4-0.5,3.5c0,0.2,0,0.3-0.1,0.5c-0.1,0.4,0.3,0.7,0.7,0.8c0.4,0.1,0.7-0.2,0.9-0.6
				c0.5-1.4,1.1-2.8,1.2-4.2c0-0.4-0.4-0.8-0.8-0.8c-0.2,0-0.4,0-0.6,0C114.6,0,114.2,0.4,114.2,0.8c0,0.4,0.4,0.8,0.8,0.8
				c0.2,0,0.4,0,0.6,0c-0.3-0.3-0.5-0.5-0.8-0.8c0,0.1,0,0.2,0,0.3c0,0.2,0-0.1,0,0.1c0,0.2-0.1,0.3-0.1,0.5c-0.1,0.3-0.2,0.6-0.3,1
				c-0.2,0.7-0.5,1.3-0.7,2c0.5,0.1,1,0.1,1.6,0.2c0.2-1.2,0.3-2.4,0.5-3.5c0-0.2,0-0.3,0.1-0.5c0.1-0.4-0.4-0.8-0.8-0.8
				C114.5,0,114.2,0.4,114.2,0.8z"/>
		</g>
	</g>
	<g>
		<g>
			<path class="st0" d="M118.6,0.6c-1.2,3.2-2.5,6.4-2.5,9.9c0,0.9,1.3,1.1,1.6,0.2c0.8-2.8,1.6-5.7,2.4-8.5
				c0.1-0.4,0.2-0.8,0.3-1.2c0.1-0.5-0.3-1-0.8-1c-0.1,0-0.2,0-0.3,0c-1,0-1,1.6,0,1.6c0.1,0,0.2,0,0.3,0c-0.3-0.3-0.5-0.7-0.8-1
				c-0.8,2.8-1.6,5.7-2.4,8.5c-0.1,0.4-0.2,0.8-0.3,1.2c0.5,0.1,1,0.1,1.6,0.2c0-3.3,1.2-6.4,2.4-9.5c0.2-0.4-0.2-0.9-0.6-1
				C119.2-0.1,118.8,0.2,118.6,0.6z"/>
		</g>
	</g>
	<g>
		<g>
			<path class="st0" d="M122.1,11.6c0.3-2,0.5-3.9,0.8-5.9c0-0.3,0.1-0.6,0.1-0.8c0.1-0.4-0.3-0.7-0.7-0.8c-0.4-0.1-0.7,0.2-0.9,0.6
				c-0.5,1.2-1,2.4-1.2,3.6c-0.2,1.3-0.2,2.5,0.4,3.7c0.2,0.4,0.7,0.5,1.1,0.3c0.4-0.2,0.5-0.7,0.3-1.1c-0.9-2,0.2-4.3,1-6.1
				c-0.5-0.1-1-0.1-1.6-0.2c-0.3,2-0.5,3.9-0.8,5.9c0,0.3-0.1,0.6-0.1,0.8c-0.1,0.4,0.4,0.8,0.8,0.8C121.8,12.4,122,12,122.1,11.6z"
				/>
		</g>
	</g>
	<g>
		<g>
			<path class="st0" d="M121.9,0.8c-0.2,1.2-0.3,2.4-0.5,3.5c0,0.2,0,0.3-0.1,0.5c-0.1,0.4,0.3,0.7,0.7,0.8c0.4,0.1,0.7-0.2,0.9-0.6
				c0.5-1.4,1.1-2.8,1.2-4.2c0-0.4-0.4-0.8-0.8-0.8c-0.2,0-0.4,0-0.6,0C122.3,0,121.9,0.4,121.9,0.8c0,0.4,0.4,0.8,0.8,0.8
				c0.2,0,0.4,0,0.6,0c-0.3-0.3-0.5-0.5-0.8-0.8c0,0.1,0,0.2,0,0.3c0,0.2,0-0.1,0,0.1c0,0.2-0.1,0.3-0.1,0.5c-0.1,0.3-0.2,0.6-0.3,1
				c-0.2,0.7-0.5,1.3-0.7,2c0.5,0.1,1,0.1,1.6,0.2c0.2-1.2,0.3-2.4,0.5-3.5c0-0.2,0-0.3,0.1-0.5c0.1-0.4-0.4-0.8-0.8-0.8
				C122.2,0,122,0.4,121.9,0.8z"/>
		</g>
	</g>
	<g>
		<g>
			<path class="st0" d="M126.4,0.6c-1.2,3.2-2.5,6.4-2.5,9.9c0,0.9,1.3,1.1,1.6,0.2c0.8-2.8,1.6-5.7,2.4-8.5
				c0.1-0.4,0.2-0.8,0.3-1.2c0.1-0.5-0.3-1-0.8-1c-0.1,0-0.2,0-0.3,0c-1,0-1,1.6,0,1.6c0.1,0,0.2,0,0.3,0c-0.3-0.3-0.5-0.7-0.8-1
				c-0.8,2.8-1.6,5.7-2.4,8.5c-0.1,0.4-0.2,0.8-0.3,1.2c0.5,0.1,1,0.1,1.6,0.2c0-3.3,1.2-6.4,2.4-9.5c0.2-0.4-0.2-0.9-0.6-1
				C126.9-0.1,126.5,0.2,126.4,0.6z"/>
		</g>
	</g>
	<g>
		<g>
			<path class="st0" d="M129.8,11.6c0.3-2,0.5-3.9,0.8-5.9c0-0.3,0.1-0.6,0.1-0.8c0.1-0.4-0.3-0.7-0.7-0.8c-0.4-0.1-0.7,0.2-0.9,0.6
				c-0.5,1.2-1,2.4-1.2,3.6c-0.2,1.3-0.2,2.5,0.4,3.7c0.2,0.4,0.7,0.5,1.1,0.3c0.4-0.2,0.5-0.7,0.3-1.1c-0.9-2,0.2-4.3,1-6.1
				c-0.5-0.1-1-0.1-1.6-0.2c-0.3,2-0.5,3.9-0.8,5.9c0,0.3-0.1,0.6-0.1,0.8c-0.1,0.4,0.4,0.8,0.8,0.8C129.5,12.4,129.8,12,129.8,11.6
				z"/>
		</g>
	</g>
	<g>
		<g>
			<path class="st0" d="M129.7,0.8c-0.2,1.2-0.3,2.4-0.5,3.5c0,0.2,0,0.3-0.1,0.5c-0.1,0.4,0.3,0.7,0.7,0.8c0.4,0.1,0.7-0.2,0.9-0.6
				c0.5-1.4,1.1-2.8,1.2-4.2c0-0.4-0.4-0.8-0.8-0.8c-0.2,0-0.4,0-0.6,0C130,0,129.6,0.4,129.7,0.8c0,0.4,0.4,0.8,0.8,0.8
				c0.2,0,0.4,0,0.6,0c-0.3-0.3-0.5-0.5-0.8-0.8c0,0.1,0,0.2,0,0.3c0,0.2,0-0.1,0,0.1c0,0.2-0.1,0.3-0.1,0.5c-0.1,0.3-0.2,0.6-0.3,1
				c-0.2,0.7-0.5,1.3-0.7,2c0.5,0.1,1,0.1,1.6,0.2c0.2-1.2,0.3-2.4,0.5-3.5c0-0.2,0-0.3,0.1-0.5c0.1-0.4-0.4-0.8-0.8-0.8
				C130,0,129.7,0.4,129.7,0.8z"/>
		</g>
	</g>
	<g>
		<g>
			<path class="st0" d="M134.1,0.6c-1.2,3.2-2.5,6.4-2.5,9.9c0,0.9,1.3,1.1,1.6,0.2c0.8-2.8,1.6-5.7,2.4-8.5
				c0.1-0.4,0.2-0.8,0.3-1.2c0.1-0.5-0.3-1-0.8-1c-0.1,0-0.2,0-0.3,0c-1,0-1,1.6,0,1.6c0.1,0,0.2,0,0.3,0c-0.3-0.3-0.5-0.7-0.8-1
				c-0.8,2.8-1.6,5.7-2.4,8.5c-0.1,0.4-0.2,0.8-0.3,1.2c0.5,0.1,1,0.1,1.6,0.2c0-3.3,1.2-6.4,2.4-9.5c0.2-0.4-0.2-0.9-0.6-1
				C134.7-0.1,134.3,0.2,134.1,0.6z"/>
		</g>
	</g>
	<g>
		<g>
			<path class="st0" d="M137.4,0.8c-0.2,1.2-0.3,2.4-0.5,3.5c0,0.2,0,0.3-0.1,0.5c-0.1,0.4,0.3,0.7,0.7,0.8c0.4,0.1,0.7-0.2,0.9-0.6
				c0.5-1.4,1.1-2.8,1.2-4.2c0-0.4-0.4-0.8-0.8-0.8c-0.2,0-0.4,0-0.6,0C137.8,0,137.4,0.4,137.4,0.8c0,0.4,0.4,0.8,0.8,0.8
				c0.2,0,0.4,0,0.6,0c-0.3-0.3-0.5-0.5-0.8-0.8c0,0.1,0,0.2,0,0.3c0,0.2,0-0.1,0,0.1c0,0.2-0.1,0.3-0.1,0.5c-0.1,0.3-0.2,0.6-0.3,1
				c-0.2,0.7-0.5,1.3-0.7,2c0.5,0.1,1,0.1,1.6,0.2c0.2-1.2,0.3-2.4,0.5-3.5c0-0.2,0-0.3,0.1-0.5c0.1-0.4-0.4-0.8-0.8-0.8
				C137.7,0,137.5,0.4,137.4,0.8z"/>
		</g>
	</g>
	<g>
		<g>
			<path class="st0" d="M137.6,11.6c0.3-2,0.5-3.9,0.8-5.9c0-0.3,0.1-0.6,0.1-0.8c0.1-0.4-0.3-0.7-0.7-0.8c-0.4-0.1-0.7,0.2-0.9,0.6
				c-0.5,1.2-1,2.4-1.2,3.6c-0.2,1.3-0.2,2.5,0.4,3.7c0.2,0.4,0.7,0.5,1.1,0.3c0.4-0.2,0.5-0.7,0.3-1.1c-0.9-2,0.2-4.3,1-6.1
				c-0.5-0.1-1-0.1-1.6-0.2c-0.3,2-0.5,3.9-0.8,5.9c0,0.3-0.1,0.6-0.1,0.8c-0.1,0.4,0.4,0.8,0.8,0.8C137.3,12.4,137.5,12,137.6,11.6
				z"/>
		</g>
	</g>
	<g>
		<g>
			<path class="st0" d="M141.9,0.6c-1.2,3.2-2.5,6.4-2.5,9.9c0,0.9,1.3,1.1,1.6,0.2c0.8-2.8,1.6-5.7,2.4-8.5
				c0.1-0.4,0.2-0.8,0.3-1.2c0.1-0.5-0.3-1-0.8-1c-0.1,0-0.2,0-0.3,0c-1,0-1,1.6,0,1.6c0.1,0,0.2,0,0.3,0c-0.3-0.3-0.5-0.7-0.8-1
				c-0.8,2.8-1.6,5.7-2.4,8.5c-0.1,0.4-0.2,0.8-0.3,1.2c0.5,0.1,1,0.1,1.6,0.2c0-3.3,1.2-6.4,2.4-9.5c0.2-0.4-0.2-0.9-0.6-1
				C142.4-0.1,142,0.2,141.9,0.6z"/>
		</g>
	</g>
	<g>
		<g>
			<path class="st0" d="M145.2,0.8c-0.2,1.2-0.3,2.4-0.5,3.5c0,0.2,0,0.3-0.1,0.5c-0.1,0.4,0.3,0.7,0.7,0.8c0.4,0.1,0.7-0.2,0.9-0.6
				c0.5-1.4,1.1-2.8,1.2-4.2c0-0.4-0.4-0.8-0.8-0.8c-0.2,0-0.4,0-0.6,0C145.5,0,145.1,0.4,145.2,0.8c0,0.4,0.4,0.8,0.8,0.8
				c0.2,0,0.4,0,0.6,0c-0.3-0.3-0.5-0.5-0.8-0.8c0,0.1,0,0.2,0,0.3c0,0.2,0-0.1,0,0.1c0,0.2-0.1,0.3-0.1,0.5c-0.1,0.3-0.2,0.6-0.3,1
				c-0.2,0.7-0.5,1.3-0.7,2c0.5,0.1,1,0.1,1.6,0.2c0.2-1.2,0.3-2.4,0.5-3.5c0-0.2,0-0.3,0.1-0.5c0.1-0.4-0.4-0.8-0.8-0.8
				C145.5,0,145.2,0.4,145.2,0.8z"/>
		</g>
	</g>
	<g>
		<g>
			<path class="st0" d="M145.3,11.6c0.3-2,0.5-3.9,0.8-5.9c0-0.3,0.1-0.6,0.1-0.8c0.1-0.4-0.3-0.7-0.7-0.8c-0.4-0.1-0.7,0.2-0.9,0.6
				c-0.5,1.2-1,2.4-1.2,3.6c-0.2,1.3-0.2,2.5,0.4,3.7c0.2,0.4,0.7,0.5,1.1,0.3c0.4-0.2,0.5-0.7,0.3-1.1c-0.9-2,0.2-4.3,1-6.1
				c-0.5-0.1-1-0.1-1.6-0.2c-0.3,2-0.5,3.9-0.8,5.9c0,0.3-0.1,0.6-0.1,0.8c-0.1,0.4,0.4,0.8,0.8,0.8C145,12.4,145.3,12,145.3,11.6z"
				/>
		</g>
	</g>
	<g>
		<g>
			<path class="st0" d="M149.6,0.6c-1.2,3.2-2.5,6.4-2.5,9.9c0,0.9,1.3,1.1,1.6,0.2c0.8-2.8,1.6-5.7,2.4-8.5
				c0.1-0.4,0.2-0.8,0.3-1.2c0.1-0.5-0.3-1-0.8-1c-0.1,0-0.2,0-0.3,0c-1,0-1,1.6,0,1.6c0.1,0,0.2,0,0.3,0c-0.3-0.3-0.5-0.7-0.8-1
				c-0.8,2.8-1.6,5.7-2.4,8.5c-0.1,0.4-0.2,0.8-0.3,1.2c0.5,0.1,1,0.1,1.6,0.2c0-3.3,1.2-6.4,2.4-9.5c0.2-0.4-0.2-0.9-0.6-1
				C150.2-0.1,149.8,0.2,149.6,0.6z"/>
		</g>
	</g>
	<g>
		<g>
			<path class="st0" d="M152.9,0.8c-0.2,1.2-0.3,2.4-0.5,3.5c0,0.2,0,0.3-0.1,0.5c-0.1,0.4,0.3,0.7,0.7,0.8c0.4,0.1,0.7-0.2,0.9-0.6
				c0.5-1.4,1.1-2.8,1.2-4.2c0-0.4-0.4-0.8-0.8-0.8c-0.2,0-0.4,0-0.6,0C153.3,0,152.9,0.4,152.9,0.8c0,0.4,0.4,0.8,0.8,0.8
				c0.2,0,0.4,0,0.6,0c-0.3-0.3-0.5-0.5-0.8-0.8c0,0.1,0,0.2,0,0.3c0,0.2,0-0.1,0,0.1c0,0.2-0.1,0.3-0.1,0.5c-0.1,0.3-0.2,0.6-0.3,1
				c-0.2,0.7-0.5,1.3-0.7,2c0.5,0.1,1,0.1,1.6,0.2c0.2-1.2,0.3-2.4,0.5-3.5c0-0.2,0-0.3,0.1-0.5c0.1-0.4-0.4-0.8-0.8-0.8
				C153.2,0,153,0.4,152.9,0.8z"/>
		</g>
	</g>
	<g>
		<g>
			<path class="st0" d="M153.1,11.6c0.3-2,0.5-3.9,0.8-5.9c0-0.3,0.1-0.6,0.1-0.8c0.1-0.4-0.3-0.7-0.7-0.8c-0.4-0.1-0.7,0.2-0.9,0.6
				c-0.5,1.2-1,2.4-1.2,3.6c-0.2,1.3-0.2,2.5,0.4,3.7c0.2,0.4,0.7,0.5,1.1,0.3c0.4-0.2,0.5-0.7,0.3-1.1c-0.9-2,0.2-4.3,1-6.1
				c-0.5-0.1-1-0.1-1.6-0.2c-0.3,2-0.5,3.9-0.8,5.9c0,0.3-0.1,0.6-0.1,0.8c-0.1,0.4,0.4,0.8,0.8,0.8C152.7,12.4,153,12,153.1,11.6z"
				/>
		</g>
	</g>
	<g>
		<g>
			<path class="st0" d="M157.4,0.6c-1.2,3.2-2.5,6.4-2.5,9.9c0,0.9,1.3,1.1,1.6,0.2c0.8-2.8,1.6-5.7,2.4-8.5
				c0.1-0.4,0.2-0.8,0.3-1.2c0.1-0.5-0.3-1-0.8-1c-0.1,0-0.2,0-0.3,0c-1,0-1,1.6,0,1.6c0.1,0,0.2,0,0.3,0c-0.3-0.3-0.5-0.7-0.8-1
				c-0.8,2.8-1.6,5.7-2.4,8.5c-0.1,0.4-0.2,0.8-0.3,1.2c0.5,0.1,1,0.1,1.6,0.2c0-3.3,1.2-6.4,2.4-9.5c0.2-0.4-0.2-0.9-0.6-1
				C157.9-0.1,157.5,0.2,157.4,0.6z"/>
		</g>
	</g>
	<g>
		<g>
			<path class="st0" d="M160.8,11.6c0.3-2,0.5-3.9,0.8-5.9c0-0.3,0.1-0.6,0.1-0.8c0.1-0.4-0.3-0.7-0.7-0.8c-0.4-0.1-0.7,0.2-0.9,0.6
				c-0.5,1.2-1,2.4-1.2,3.6c-0.2,1.3-0.2,2.5,0.4,3.7c0.2,0.4,0.7,0.5,1.1,0.3c0.4-0.2,0.5-0.7,0.3-1.1c-0.9-2,0.2-4.3,1-6.1
				c-0.5-0.1-1-0.1-1.6-0.2c-0.3,2-0.5,3.9-0.8,5.9c0,0.3-0.1,0.6-0.1,0.8c-0.1,0.4,0.4,0.8,0.8,0.8C160.5,12.4,160.8,12,160.8,11.6
				z"/>
		</g>
	</g>
	<g>
		<g>
			<path class="st0" d="M160.6,0.8c-0.2,1.2-0.3,2.4-0.5,3.5c0,0.2,0,0.3-0.1,0.5c-0.1,0.4,0.3,0.7,0.7,0.8c0.4,0.1,0.7-0.2,0.9-0.6
				c0.5-1.4,1.1-2.8,1.2-4.2c0-0.4-0.4-0.8-0.8-0.8c-0.2,0-0.4,0-0.6,0C161,0,160.6,0.4,160.6,0.8c0,0.4,0.4,0.8,0.8,0.8
				c0.2,0,0.4,0,0.6,0c-0.3-0.3-0.5-0.5-0.8-0.8c0,0.1,0,0.2,0,0.3c0,0.2,0-0.1,0,0.1c0,0.2-0.1,0.3-0.1,0.5c-0.1,0.3-0.2,0.6-0.3,1
				c-0.2,0.7-0.5,1.3-0.7,2c0.5,0.1,1,0.1,1.6,0.2c0.2-1.2,0.3-2.4,0.5-3.5c0-0.2,0-0.3,0.1-0.5c0.1-0.4-0.4-0.8-0.8-0.8
				C161,0,160.7,0.4,160.6,0.8z"/>
		</g>
	</g>
	<g>
		<g>
			<path class="st0" d="M165.1,0.6c-1.2,3.2-2.5,6.4-2.5,9.9c0,0.9,1.3,1.1,1.6,0.2c0.8-2.8,1.6-5.7,2.4-8.5
				c0.1-0.4,0.2-0.8,0.3-1.2c0.1-0.5-0.3-1-0.8-1c-0.1,0-0.2,0-0.3,0c-1,0-1,1.6,0,1.6c0.1,0,0.2,0,0.3,0c-0.3-0.3-0.5-0.7-0.8-1
				c-0.8,2.8-1.6,5.7-2.4,8.5c-0.1,0.4-0.2,0.8-0.3,1.2c0.5,0.1,1,0.1,1.6,0.2c0-3.3,1.2-6.4,2.4-9.5c0.2-0.4-0.2-0.9-0.6-1
				C165.6-0.1,165.3,0.2,165.1,0.6z"/>
		</g>
	</g>
	<g>
		<g>
			<path class="st0" d="M168.6,11.6c0.3-2,0.5-3.9,0.8-5.9c0-0.3,0.1-0.6,0.1-0.8c0.1-0.4-0.3-0.7-0.7-0.8c-0.4-0.1-0.7,0.2-0.9,0.6
				c-0.5,1.2-1,2.4-1.2,3.6c-0.2,1.3-0.2,2.5,0.4,3.7c0.2,0.4,0.7,0.5,1.1,0.3c0.4-0.2,0.5-0.7,0.3-1.1c-0.9-2,0.2-4.3,1-6.1
				c-0.5-0.1-1-0.1-1.6-0.2c-0.3,2-0.5,3.9-0.8,5.9c0,0.3-0.1,0.6-0.1,0.8c-0.1,0.4,0.4,0.8,0.8,0.8C168.2,12.4,168.5,12,168.6,11.6
				z"/>
		</g>
	</g>
	<g>
		<g>
			<path class="st0" d="M168.4,0.8c-0.2,1.2-0.3,2.4-0.5,3.5c0,0.2,0,0.3-0.1,0.5c-0.1,0.4,0.3,0.7,0.7,0.8c0.4,0.1,0.7-0.2,0.9-0.6
				c0.5-1.4,1.1-2.8,1.2-4.2c0-0.4-0.4-0.8-0.8-0.8c-0.2,0-0.4,0-0.6,0C168.8,0,168.4,0.4,168.4,0.8c0,0.4,0.4,0.8,0.8,0.8
				c0.2,0,0.4,0,0.6,0c-0.3-0.3-0.5-0.5-0.8-0.8c0,0.1,0,0.2,0,0.3c0,0.2,0-0.1,0,0.1c0,0.2-0.1,0.3-0.1,0.5c-0.1,0.3-0.2,0.6-0.3,1
				c-0.2,0.7-0.5,1.3-0.7,2c0.5,0.1,1,0.1,1.6,0.2c0.2-1.2,0.3-2.4,0.5-3.5c0-0.2,0-0.3,0.1-0.5c0.1-0.4-0.4-0.8-0.8-0.8
				C168.7,0,168.4,0.4,168.4,0.8z"/>
		</g>
	</g>
	<g>
		<g>
			<path class="st0" d="M172.9,0.6c-1.2,3.2-2.5,6.4-2.5,9.9c0,0.9,1.3,1.1,1.6,0.2c0.8-2.8,1.6-5.7,2.4-8.5
				c0.1-0.4,0.2-0.8,0.3-1.2c0.1-0.5-0.3-1-0.8-1c-0.1,0-0.2,0-0.3,0c-1,0-1,1.6,0,1.6c0.1,0,0.2,0,0.3,0c-0.3-0.3-0.5-0.7-0.8-1
				c-0.8,2.8-1.6,5.7-2.4,8.5c-0.1,0.4-0.2,0.8-0.3,1.2c0.5,0.1,1,0.1,1.6,0.2c0-3.3,1.2-6.4,2.4-9.5c0.2-0.4-0.2-0.9-0.6-1
				C173.4-0.1,173,0.2,172.9,0.6z"/>
		</g>
	</g>
	<g>
		<g>
			<path class="st0" d="M176.3,11.6c0.3-2,0.5-3.9,0.8-5.9c0-0.3,0.1-0.6,0.1-0.8c0.1-0.4-0.3-0.7-0.7-0.8c-0.4-0.1-0.7,0.2-0.9,0.6
				c-0.5,1.2-1,2.4-1.2,3.6c-0.2,1.3-0.2,2.5,0.4,3.7c0.2,0.4,0.7,0.5,1.1,0.3c0.4-0.2,0.5-0.7,0.3-1.1c-0.9-2,0.2-4.3,1-6.1
				c-0.5-0.1-1-0.1-1.6-0.2c-0.3,2-0.5,3.9-0.8,5.9c0,0.3-0.1,0.6-0.1,0.8c-0.1,0.4,0.4,0.8,0.8,0.8C176,12.4,176.2,12,176.3,11.6z"
				/>
		</g>
	</g>
	<g>
		<g>
			<path class="st0" d="M176.1,0.8c-0.2,1.2-0.3,2.4-0.5,3.5c0,0.2,0,0.3-0.1,0.5c-0.1,0.4,0.3,0.7,0.7,0.8c0.4,0.1,0.7-0.2,0.9-0.6
				c0.5-1.4,1.1-2.8,1.2-4.2c0-0.4-0.4-0.8-0.8-0.8c-0.2,0-0.4,0-0.6,0C176.5,0,176.1,0.4,176.1,0.8c0,0.4,0.4,0.8,0.8,0.8
				c0.2,0,0.4,0,0.6,0c-0.3-0.3-0.5-0.5-0.8-0.8c0,0.1,0,0.2,0,0.3c0,0.2,0-0.1,0,0.1c0,0.2-0.1,0.3-0.1,0.5c-0.1,0.3-0.2,0.6-0.3,1
				c-0.2,0.7-0.5,1.3-0.7,2c0.5,0.1,1,0.1,1.6,0.2c0.2-1.2,0.3-2.4,0.5-3.5c0-0.2,0-0.3,0.1-0.5c0.1-0.4-0.4-0.8-0.8-0.8
				C176.5,0,176.2,0.4,176.1,0.8z"/>
		</g>
	</g>
	<g>
		<g>
			<path class="st0" d="M180.6,0.6c-1.2,3.2-2.5,6.4-2.5,9.9c0,0.9,1.3,1.1,1.6,0.2c0.8-2.8,1.6-5.7,2.4-8.5
				c0.1-0.4,0.2-0.8,0.3-1.2c0.1-0.5-0.3-1-0.8-1c-0.1,0-0.2,0-0.3,0c-1,0-1,1.6,0,1.6c0.1,0,0.2,0,0.3,0c-0.3-0.3-0.5-0.7-0.8-1
				c-0.8,2.8-1.6,5.7-2.4,8.5c-0.1,0.4-0.2,0.8-0.3,1.2c0.5,0.1,1,0.1,1.6,0.2c0-3.3,1.2-6.4,2.4-9.5c0.2-0.4-0.2-0.9-0.6-1
				C181.1-0.1,180.8,0.2,180.6,0.6z"/>
		</g>
	</g>
	<g>
		<g>
			<path class="st0" d="M184,11.6c0.3-2,0.5-3.9,0.8-5.9c0-0.3,0.1-0.6,0.1-0.8c0.1-0.4-0.3-0.7-0.7-0.8c-0.4-0.1-0.7,0.2-0.9,0.6
				c-0.5,1.2-1,2.4-1.2,3.6c-0.2,1.3-0.2,2.5,0.4,3.7c0.2,0.4,0.7,0.5,1.1,0.3c0.4-0.2,0.5-0.7,0.3-1.1c-0.9-2,0.2-4.3,1-6.1
				c-0.5-0.1-1-0.1-1.6-0.2c-0.3,2-0.5,3.9-0.8,5.9c0,0.3-0.1,0.6-0.1,0.8c-0.1,0.4,0.4,0.8,0.8,0.8C183.7,12.4,184,12,184,11.6z"/>
		</g>
	</g>
	<g>
		<g>
			<path class="st0" d="M183.9,0.8c-0.2,1.2-0.3,2.4-0.5,3.5c0,0.2,0,0.3-0.1,0.5c-0.1,0.4,0.3,0.7,0.7,0.8c0.4,0.1,0.7-0.2,0.9-0.6
				c0.5-1.4,1.1-2.8,1.2-4.2c0-0.4-0.4-0.8-0.8-0.8c-0.2,0-0.4,0-0.6,0C184.3,0,183.9,0.4,183.9,0.8c0,0.4,0.4,0.8,0.8,0.8
				c0.2,0,0.4,0,0.6,0c-0.3-0.3-0.5-0.5-0.8-0.8c0,0.1,0,0.2,0,0.3c0,0.2,0-0.1,0,0.1c0,0.2-0.1,0.3-0.1,0.5c-0.1,0.3-0.2,0.6-0.3,1
				c-0.2,0.7-0.5,1.3-0.7,2c0.5,0.1,1,0.1,1.6,0.2c0.2-1.2,0.3-2.4,0.5-3.5c0-0.2,0-0.3,0.1-0.5c0.1-0.4-0.4-0.8-0.8-0.8
				C184.2,0,183.9,0.4,183.9,0.8z"/>
		</g>
	</g>
	<g>
		<g>
			<path class="st0" d="M188.3,0.6c-1.2,3.2-2.5,6.4-2.5,9.9c0,0.9,1.3,1.1,1.6,0.2c0.8-2.8,1.6-5.7,2.4-8.5
				c0.1-0.4,0.2-0.8,0.3-1.2c0.1-0.5-0.3-1-0.8-1c-0.1,0-0.2,0-0.3,0c-1,0-1,1.6,0,1.6c0.1,0,0.2,0,0.3,0c-0.3-0.3-0.5-0.7-0.8-1
				c-0.8,2.8-1.6,5.7-2.4,8.5c-0.1,0.4-0.2,0.8-0.3,1.2c0.5,0.1,1,0.1,1.6,0.2c0-3.3,1.2-6.4,2.4-9.5c0.2-0.4-0.2-0.9-0.6-1
				C188.9-0.1,188.5,0.2,188.3,0.6z"/>
		</g>
	</g>
	<g>
		<g>
			<path class="st0" d="M191.8,11.6c0.3-2,0.5-3.9,0.8-5.9c0-0.3,0.1-0.6,0.1-0.8c0.1-0.4-0.3-0.7-0.7-0.8c-0.4-0.1-0.7,0.2-0.9,0.6
				c-0.5,1.2-1,2.4-1.2,3.6c-0.2,1.3-0.2,2.5,0.4,3.7c0.2,0.4,0.7,0.5,1.1,0.3c0.4-0.2,0.5-0.7,0.3-1.1c-0.9-2,0.2-4.3,1-6.1
				c-0.5-0.1-1-0.1-1.6-0.2c-0.3,2-0.5,3.9-0.8,5.9c0,0.3-0.1,0.6-0.1,0.8c-0.1,0.4,0.4,0.8,0.8,0.8C191.5,12.4,191.7,12,191.8,11.6
				z"/>
		</g>
	</g>
	<g>
		<g>
			<path class="st0" d="M191.6,0.8c-0.2,1.2-0.3,2.4-0.5,3.5c0,0.2,0,0.3-0.1,0.5c-0.1,0.4,0.3,0.7,0.7,0.8c0.4,0.1,0.7-0.2,0.9-0.6
				c0.5-1.4,1.1-2.8,1.2-4.2c0-0.4-0.4-0.8-0.8-0.8c-0.2,0-0.4,0-0.6,0C192,0,191.6,0.4,191.6,0.8c0,0.4,0.4,0.8,0.8,0.8
				c0.2,0,0.4,0,0.6,0c-0.3-0.3-0.5-0.5-0.8-0.8c0,0.1,0,0.2,0,0.3c0,0.2,0-0.1,0,0.1c0,0.2-0.1,0.3-0.1,0.5c-0.1,0.3-0.2,0.6-0.3,1
				c-0.2,0.7-0.5,1.3-0.7,2c0.5,0.1,1,0.1,1.6,0.2c0.2-1.2,0.3-2.4,0.5-3.5c0-0.2,0-0.3,0.1-0.5c0.1-0.4-0.4-0.8-0.8-0.8
				C191.9,0,191.7,0.4,191.6,0.8z"/>
		</g>
	</g>
	<g>
		<g>
			<path class="st0" d="M196.1,0.6c-1.2,3.2-2.5,6.4-2.5,9.9c0,0.9,1.3,1.1,1.6,0.2c0.8-2.8,1.6-5.7,2.4-8.5
				c0.1-0.4,0.2-0.8,0.3-1.2c0.1-0.5-0.3-1-0.8-1c-0.1,0-0.2,0-0.3,0c-1,0-1,1.6,0,1.6c0.1,0,0.2,0,0.3,0c-0.3-0.3-0.5-0.7-0.8-1
				c-0.8,2.8-1.6,5.7-2.4,8.5c-0.1,0.4-0.2,0.8-0.3,1.2c0.5,0.1,1,0.1,1.6,0.2c0-3.3,1.2-6.4,2.4-9.5c0.2-0.4-0.2-0.9-0.6-1
				C196.6-0.1,196.2,0.2,196.1,0.6z"/>
		</g>
	</g>
	<g>
		<g>
			<path class="st0" d="M199.5,11.6c0.3-2,0.5-3.9,0.8-5.9c0-0.3,0.1-0.6,0.1-0.8c0.1-0.4-0.3-0.7-0.7-0.8c-0.4-0.1-0.7,0.2-0.9,0.6
				c-0.5,1.2-1,2.4-1.2,3.6c-0.2,1.3-0.2,2.5,0.4,3.7c0.2,0.4,0.7,0.5,1.1,0.3c0.4-0.2,0.5-0.7,0.3-1.1c-0.9-2,0.2-4.3,1-6.1
				c-0.5-0.1-1-0.1-1.6-0.2c-0.3,2-0.5,3.9-0.8,5.9c0,0.3-0.1,0.6-0.1,0.8c-0.1,0.4,0.4,0.8,0.8,0.8C199.2,12.4,199.5,12,199.5,11.6
				z"/>
		</g>
	</g>
	<g>
		<g>
			<path class="st0" d="M199.4,0.8c-0.2,1.2-0.3,2.4-0.5,3.5c0,0.2,0,0.3-0.1,0.5c-0.1,0.4,0.3,0.7,0.7,0.8c0.4,0.1,0.7-0.2,0.9-0.6
				c0.5-1.4,1.1-2.8,1.2-4.2c0-0.4-0.4-0.8-0.8-0.8c-0.2,0-0.4,0-0.6,0C199.8,0,199.4,0.4,199.4,0.8c0,0.4,0.4,0.8,0.8,0.8
				c0.2,0,0.4,0,0.6,0c-0.3-0.3-0.5-0.5-0.8-0.8c0,0.1,0,0.2,0,0.3c0,0.2,0-0.1,0,0.1c0,0.2-0.1,0.3-0.1,0.5c-0.1,0.3-0.2,0.6-0.3,1
				c-0.2,0.7-0.5,1.3-0.7,2c0.5,0.1,1,0.1,1.6,0.2c0.2-1.2,0.3-2.4,0.5-3.5c0-0.2,0-0.3,0.1-0.5c0.1-0.4-0.4-0.8-0.8-0.8
				C199.7,0,199.4,0.4,199.4,0.8z"/>
		</g>
	</g>
	<g>
		<g>
			<path class="st0" d="M203.8,0.6c-1.2,3.2-2.5,6.4-2.5,9.9c0,0.9,1.3,1.1,1.6,0.2c0.8-2.8,1.6-5.7,2.4-8.5
				c0.1-0.4,0.2-0.8,0.3-1.2c0.1-0.5-0.3-1-0.8-1c-0.1,0-0.2,0-0.3,0c-1,0-1,1.6,0,1.6c0.1,0,0.2,0,0.3,0c-0.3-0.3-0.5-0.7-0.8-1
				c-0.8,2.8-1.6,5.7-2.4,8.5c-0.1,0.4-0.2,0.8-0.3,1.2c0.5,0.1,1,0.1,1.6,0.2c0-3.3,1.2-6.4,2.4-9.5c0.2-0.4-0.2-0.9-0.6-1
				C204.4-0.1,204,0.2,203.8,0.6z"/>
		</g>
	</g>
	<g>
		<g>
			<path class="st0" d="M207.3,11.6c0.3-2,0.5-3.9,0.8-5.9c0-0.3,0.1-0.6,0.1-0.8c0.1-0.4-0.3-0.7-0.7-0.8c-0.4-0.1-0.7,0.2-0.9,0.6
				c-0.5,1.2-1,2.4-1.2,3.6c-0.2,1.3-0.2,2.5,0.4,3.7c0.2,0.4,0.7,0.5,1.1,0.3c0.4-0.2,0.5-0.7,0.3-1.1c-0.9-2,0.2-4.3,1-6.1
				c-0.5-0.1-1-0.1-1.6-0.2c-0.3,2-0.5,3.9-0.8,5.9c0,0.3-0.1,0.6-0.1,0.8c-0.1,0.4,0.4,0.8,0.8,0.8C207,12.4,207.2,12,207.3,11.6z"
				/>
		</g>
	</g>
	<g>
		<g>
			<path class="st0" d="M207.1,0.8c-0.2,1.2-0.3,2.4-0.5,3.5c0,0.2,0,0.3-0.1,0.5c-0.1,0.4,0.3,0.7,0.7,0.8c0.4,0.1,0.7-0.2,0.9-0.6
				c0.5-1.4,1.1-2.8,1.2-4.2c0-0.4-0.4-0.8-0.8-0.8c-0.2,0-0.4,0-0.6,0C207.5,0,207.1,0.4,207.1,0.8c0,0.4,0.4,0.8,0.8,0.8
				c0.2,0,0.4,0,0.6,0c-0.3-0.3-0.5-0.5-0.8-0.8c0,0.1,0,0.2,0,0.3c0,0.2,0-0.1,0,0.1c0,0.2-0.1,0.3-0.1,0.5c-0.1,0.3-0.2,0.6-0.3,1
				c-0.2,0.7-0.5,1.3-0.7,2c0.5,0.1,1,0.1,1.6,0.2c0.2-1.2,0.3-2.4,0.5-3.5c0-0.2,0-0.3,0.1-0.5c0.1-0.4-0.4-0.8-0.8-0.8
				C207.4,0,207.2,0.4,207.1,0.8z"/>
		</g>
	</g>
	<g>
		<g>
			<path class="st0" d="M211.6,0.6c-1.2,3.2-2.5,6.4-2.5,9.9c0,0.9,1.3,1.1,1.6,0.2c0.8-2.8,1.6-5.7,2.4-8.5
				c0.1-0.4,0.2-0.8,0.3-1.2c0.1-0.5-0.3-1-0.8-1c-0.1,0-0.2,0-0.3,0c-1,0-1,1.6,0,1.6c0.1,0,0.2,0,0.3,0c-0.3-0.3-0.5-0.7-0.8-1
				c-0.8,2.8-1.6,5.7-2.4,8.5c-0.1,0.4-0.2,0.8-0.3,1.2c0.5,0.1,1,0.1,1.6,0.2c0-3.3,1.2-6.4,2.4-9.5c0.2-0.4-0.2-0.9-0.6-1
				C212.1-0.1,211.7,0.2,211.6,0.6z"/>
		</g>
	</g>
	<g>
		<g>
			<path class="st0" d="M215,11.6c0.3-2,0.5-3.9,0.8-5.9c0-0.3,0.1-0.6,0.1-0.8c0.1-0.4-0.3-0.7-0.7-0.8c-0.4-0.1-0.7,0.2-0.9,0.6
				c-0.5,1.2-1,2.4-1.2,3.6c-0.2,1.3-0.2,2.5,0.4,3.7c0.2,0.4,0.7,0.5,1.1,0.3c0.4-0.2,0.5-0.7,0.3-1.1c-0.9-2,0.2-4.3,1-6.1
				c-0.5-0.1-1-0.1-1.6-0.2c-0.3,2-0.5,3.9-0.8,5.9c0,0.3-0.1,0.6-0.1,0.8c-0.1,0.4,0.4,0.8,0.8,0.8C214.7,12.4,215,12,215,11.6z"/>
		</g>
	</g>
	<g>
		<g>
			<path class="st0" d="M214.9,0.8c-0.2,1.2-0.3,2.4-0.5,3.5c0,0.2,0,0.3-0.1,0.5c-0.1,0.4,0.3,0.7,0.7,0.8c0.4,0.1,0.7-0.2,0.9-0.6
				c0.5-1.4,1.1-2.8,1.2-4.2c0-0.4-0.4-0.8-0.8-0.8c-0.2,0-0.4,0-0.6,0C215.2,0,214.8,0.4,214.9,0.8c0,0.4,0.4,0.8,0.8,0.8
				c0.2,0,0.4,0,0.6,0c-0.3-0.3-0.5-0.5-0.8-0.8c0,0.1,0,0.2,0,0.3c0,0.2,0-0.1,0,0.1c0,0.2-0.1,0.3-0.1,0.5c-0.1,0.3-0.2,0.6-0.3,1
				c-0.2,0.7-0.5,1.3-0.7,2c0.5,0.1,1,0.1,1.6,0.2c0.2-1.2,0.3-2.4,0.5-3.5c0-0.2,0-0.3,0.1-0.5c0.1-0.4-0.4-0.8-0.8-0.8
				C215.2,0,214.9,0.4,214.9,0.8z"/>
		</g>
	</g>
	<g>
		<g>
			<path class="st0" d="M219.3,0.6c-1.2,3.2-2.5,6.4-2.5,9.9c0,0.9,1.3,1.1,1.6,0.2c0.8-2.8,1.6-5.7,2.4-8.5
				c0.1-0.4,0.2-0.8,0.3-1.2c0.1-0.5-0.3-1-0.8-1c-0.1,0-0.2,0-0.3,0c-1,0-1,1.6,0,1.6c0.1,0,0.2,0,0.3,0c-0.3-0.3-0.5-0.7-0.8-1
				c-0.8,2.8-1.6,5.7-2.4,8.5c-0.1,0.4-0.2,0.8-0.3,1.2c0.5,0.1,1,0.1,1.6,0.2c0-3.3,1.2-6.4,2.4-9.5c0.2-0.4-0.2-0.9-0.6-1
				C219.9-0.1,219.5,0.2,219.3,0.6z"/>
		</g>
	</g>
	<g>
		<g>
			<path class="st0" d="M222.8,11.6c0.3-2,0.5-3.9,0.8-5.9c0-0.3,0.1-0.6,0.1-0.8c0.1-0.4-0.3-0.7-0.7-0.8c-0.4-0.1-0.7,0.2-0.9,0.6
				c-0.5,1.2-1,2.4-1.2,3.6c-0.2,1.3-0.2,2.5,0.4,3.7c0.2,0.4,0.7,0.5,1.1,0.3c0.4-0.2,0.5-0.7,0.3-1.1c-0.9-2,0.2-4.3,1-6.1
				c-0.5-0.1-1-0.1-1.6-0.2c-0.3,2-0.5,3.9-0.8,5.9c0,0.3-0.1,0.6-0.1,0.8c-0.1,0.4,0.4,0.8,0.8,0.8C222.5,12.4,222.7,12,222.8,11.6
				z"/>
		</g>
	</g>
	<g>
		<g>
			<path class="st0" d="M222.6,0.8c-0.2,1.2-0.3,2.4-0.5,3.5c0,0.2,0,0.3-0.1,0.5c-0.1,0.4,0.3,0.7,0.7,0.8c0.4,0.1,0.7-0.2,0.9-0.6
				c0.5-1.4,1.1-2.8,1.2-4.2c0-0.4-0.4-0.8-0.8-0.8c-0.2,0-0.4,0-0.6,0C223,0,222.6,0.4,222.6,0.8c0,0.4,0.4,0.8,0.8,0.8
				c0.2,0,0.4,0,0.6,0c-0.3-0.3-0.5-0.5-0.8-0.8c0,0.1,0,0.2,0,0.3c0,0.2,0-0.1,0,0.1c0,0.2-0.1,0.3-0.1,0.5c-0.1,0.3-0.2,0.6-0.3,1
				c-0.2,0.7-0.5,1.3-0.7,2c0.5,0.1,1,0.1,1.6,0.2c0.2-1.2,0.3-2.4,0.5-3.5c0-0.2,0-0.3,0.1-0.5c0.1-0.4-0.4-0.8-0.8-0.8
				C222.9,0,222.7,0.4,222.6,0.8z"/>
		</g>
	</g>
	<g>
		<g>
			<path class="st0" d="M227.1,0.6c-1.2,3.2-2.5,6.4-2.5,9.9c0,0.9,1.3,1.1,1.6,0.2c0.8-2.8,1.6-5.7,2.4-8.5
				c0.1-0.4,0.2-0.8,0.3-1.2c0.1-0.5-0.3-1-0.8-1c-0.1,0-0.2,0-0.3,0c-1,0-1,1.6,0,1.6c0.1,0,0.2,0,0.3,0c-0.3-0.3-0.5-0.7-0.8-1
				c-0.8,2.8-1.6,5.7-2.4,8.5c-0.1,0.4-0.2,0.8-0.3,1.2c0.5,0.1,1,0.1,1.6,0.2c0-3.3,1.2-6.4,2.4-9.5c0.2-0.4-0.2-0.9-0.6-1
				C227.6-0.1,227.2,0.2,227.1,0.6z"/>
		</g>
	</g>
	<g>
		<g>
			<path class="st0" d="M230.5,11.6c0.3-2,0.5-3.9,0.8-5.9c0-0.3,0.1-0.6,0.1-0.8c0.1-0.4-0.3-0.7-0.7-0.8c-0.4-0.1-0.7,0.2-0.9,0.6
				c-0.5,1.2-1,2.4-1.2,3.6c-0.2,1.3-0.2,2.5,0.4,3.7c0.2,0.4,0.7,0.5,1.1,0.3c0.4-0.2,0.5-0.7,0.3-1.1c-0.9-2,0.2-4.3,1-6.1
				c-0.5-0.1-1-0.1-1.6-0.2c-0.3,2-0.5,3.9-0.8,5.9c0,0.3-0.1,0.6-0.1,0.8c-0.1,0.4,0.4,0.8,0.8,0.8C230.2,12.4,230.5,12,230.5,11.6
				z"/>
		</g>
	</g>
</g>
</svg>
